Andika-BoldItalic.ufo
<glyph name="LtnCapM" format="2">
  <advance width="1835"/>
  <unicode hex="004D"/>
  <anchor x="1498" y="0" name="H"/>
  <anchor x="830" y="-100" name="L"/>
  <anchor x="1235" y="1530" name="U"/>
  <outline>
    <contour>
      <point x="710" y="0" type="line"/>
      <point x="1005" y="0" type="line"/>
      <point x="1625" y="1158" type="line"/>
      <point x="1817" y="1445" type="line"/>
      <point x="1550" y="1445" type="line"/>
      <point x="919" y="272" type="line"/>
      <point x="865" y="1445" type="line"/>
      <point x="615" y="1445" type="line"/>
      <point x="664" y="1158" type="line"/>
    </contour>
    <contour>
      <point x="90" y="0" type="curve"/>
      <point x="360" y="0" type="line"/>
      <point x="686" y="1193" type="line"/>
      <point x="785" y="1445" type="line"/>
      <point x="520" y="1445" type="line"/>
      <point x="367" y="908"/>
      <point x="144" y="143"/>
    </contour>
    <contour>
      <point x="1360" y="0" type="line"/>
      <point x="1630" y="0" type="line"/>
      <point x="1644" y="143"/>
      <point x="1798" y="908"/>
      <point x="1910" y="1445" type="curve"/>
      <point x="1640" y="1445" type="line"/>
      <point x="1622" y="1193" type="line"/>
    </contour>
  </outline>
</glyph>
<glyph name="LtnCapZ" format="2">
  <advance width="1230"/>
  <unicode hex="005A"/>
  <anchor x="550" y="-100" name="L"/>
  <anchor x="932" y="1530" name="U"/>
  <outline>
    <contour>
      <point x="1445" y="1445" type="line"/>
      <point x="395" y="1445" type="line"/>
      <point x="333" y="1198" type="line"/>
      <point x="425" y="1215"/>
      <point x="586" y="1217"/>
      <point x="803" y="1217" type="curve" smooth="yes"/>
      <point x="1046" y="1217" type="line"/>
      <point x="54" y="158" type="line"/>
      <point x="5" y="0" type="line"/>
      <point x="1135" y="0" type="line"/>
      <point x="1196" y="247" type="line"/>
      <point x="1113" y="234"/>
      <point x="952" y="228"/>
      <point x="756" y="228" type="curve" smooth="yes"/>
      <point x="421" y="228" type="line"/>
      <point x="1402" y="1272" type="line"/>
    </contour>
  </outline>
</glyph>
<glyph name="LtnSmZ" format="2">
  <advance width="1050"/>
  <unicode hex="007A"/>
  <anchor x="480" y="0" name="H"/>
  <anchor x="485" y="-100" name="L"/>
  <anchor x="705" y="1100" name="U"/>
  <outline>
    <contour>
      <point x="255" y="1010" type="line"/>
      <point x="198" y="772" type="line"/>
      <point x="239" y="787"/>
      <point x="298" y="797"/>
      <point x="357" y="797" type="curve" smooth="yes"/>
      <point x="732" y="797" type="line"/>
      <point x="30" y="70" type="line"/>
      <point x="111" y="-25" type="line"/>
      <point x="189" y="50"/>
      <point x="264" y="75"/>
      <point x="339" y="75" type="curve" smooth="yes"/>
      <point x="489" y="75"/>
      <point x="637" y="-25"/>
      <point x="811" y="-25" type="curve" smooth="yes"/>
      <point x="857" y="-25"/>
      <point x="904" y="-18"/>
      <point x="954" y="0" type="curve"/>
      <point x="1007" y="213" type="line"/>
      <point x="949" y="196"/>
      <point x="903" y="190"/>
      <point x="859" y="190" type="curve" smooth="yes"/>
      <point x="719" y="190"/>
      <point x="635" y="255"/>
      <point x="515" y="255" type="curve" smooth="yes"/>
      <point x="495" y="255"/>
      <point x="474" y="253"/>
      <point x="451" y="249" type="curve"/>
      <point x="1075" y="867" type="line"/>
      <point x="1110" y="1010" type="line"/>
    </contour>
  </outline>
</glyph>
<glyph name="CentSgn" format="2">
  <advance width="1180"/>
  <unicode hex="00A2"/>
  <outline>
    <contour>
      <point x="1116" y="985" type="line"/>
      <point x="1065" y="1021"/>
      <point x="963" y="1051"/>
      <point x="818" y="1051" type="curve" smooth="yes"/>
      <point x="537" y="1051"/>
      <point x="298" y="878"/>
      <point x="225" y="584" type="curve" smooth="yes"/>
      <point x="212" y="530"/>
      <point x="205" y="478"/>
      <point x="205" y="430" type="curve" smooth="yes"/>
      <point x="205" y="203"/>
      <point x="348" y="49"/>
      <point x="576" y="49" type="curve" smooth="yes"/>
      <point x="717" y="49"/>
      <point x="823" y="80"/>
      <point x="914" y="129" type="curve"/>
      <point x="943" y="368" type="line"/>
      <point x="854" y="304"/>
      <point x="771" y="266"/>
      <point x="657" y="266" type="curve" smooth="yes"/>
      <point x="527" y="266"/>
      <point x="475" y="348"/>
      <point x="475" y="460" type="curve" smooth="yes"/>
      <point x="475" y="497"/>
      <point x="481" y="537"/>
      <point x="491" y="578" type="curve" smooth="yes"/>
      <point x="537" y="760"/>
      <point x="647" y="835"/>
      <point x="779" y="835" type="curve" smooth="yes"/>
      <point x="887" y="835"/>
      <point x="953" y="806"/>
      <point x="1015" y="747" type="curve"/>
    </contour>
    <contour>
      <point x="818" y="1307" type="line"/>
      <point x="441" y="-208" type="line"/>
      <point x="630" y="-208" type="line"/>
      <point x="1008" y="1307" type="line"/>
    </contour>
  </outline>
</glyph>
<glyph name="BrokenBar" format="2">
  <advance width="1044"/>
  <unicode hex="00A6"/>
  <outline>
    <contour>
      <point x="479" y="441" type="line"/>
      <point x="273" y="-386" type="line"/>
      <point x="483" y="-386" type="line"/>
      <point x="689" y="441" type="line"/>
    </contour>
    <contour>
      <point x="771" y="767" type="line"/>
      <point x="974" y="1584" type="line"/>
      <point x="764" y="1584" type="line"/>
      <point x="561" y="767" type="line"/>
    </contour>
  </outline>
</glyph>
<glyph name="SectionSgn" format="2">
  <advance width="1075"/>
  <unicode hex="00A7"/>
  <outline>
    <contour>
      <point x="-48" y="-351" type="line"/>
      <point x="24" y="-413"/>
      <point x="190" y="-465"/>
      <point x="369" y="-465" type="curve" smooth="yes"/>
      <point x="648" y="-465"/>
      <point x="878" y="-299"/>
      <point x="878" y="-25" type="curve" smooth="yes"/>
      <point x="878" y="130"/>
      <point x="775" y="252"/>
      <point x="666" y="337" type="curve" smooth="yes"/>
      <point x="553" y="425"/>
      <point x="454" y="510"/>
      <point x="454" y="578" type="curve" smooth="yes"/>
      <point x="454" y="691"/>
      <point x="609" y="714"/>
      <point x="690" y="715" type="curve"/>
      <point x="746" y="941" type="line"/>
      <point x="379" y="929"/>
      <point x="195" y="761"/>
      <point x="195" y="553" type="curve" smooth="yes"/>
      <point x="195" y="438"/>
      <point x="263" y="308"/>
      <point x="419" y="189" type="curve" smooth="yes"/>
      <point x="551" y="88"/>
      <point x="613" y="11"/>
      <point x="613" y="-63" type="curve" smooth="yes"/>
      <point x="613" y="-173"/>
      <point x="506" y="-244"/>
      <point x="409" y="-244" type="curve" smooth="yes"/>
      <point x="292" y="-244"/>
      <point x="146" y="-190"/>
      <point x="67" y="-110" type="curve"/>
    </contour>
    <contour>
      <point x="1191" y="1391" type="line"/>
      <point x="1123" y="1429"/>
      <point x="994" y="1470"/>
      <point x="831" y="1470" type="curve" smooth="yes"/>
      <point x="584" y="1470"/>
      <point x="341" y="1343"/>
      <point x="341" y="1127" type="curve" smooth="yes"/>
      <point x="341" y="1003"/>
      <point x="417" y="875"/>
      <point x="581" y="768" type="curve" smooth="yes"/>
      <point x="727" y="674"/>
      <point x="777" y="610"/>
      <point x="777" y="560" type="curve" smooth="yes"/>
      <point x="777" y="457"/>
      <point x="666" y="411"/>
      <point x="530" y="410" type="curve"/>
      <point x="474" y="188" type="line"/>
      <point x="835" y="194"/>
      <point x="1037" y="339"/>
      <point x="1037" y="583" type="curve" smooth="yes"/>
      <point x="1037" y="692"/>
      <point x="965" y="779"/>
      <point x="834" y="895" type="curve" smooth="yes"/>
      <point x="658" y="1051"/>
      <point x="600" y="1094"/>
      <point x="600" y="1155" type="curve" smooth="yes"/>
      <point x="600" y="1210"/>
      <point x="664" y="1248"/>
      <point x="786" y="1248" type="curve" smooth="yes"/>
      <point x="925" y="1248"/>
      <point x="1028" y="1193"/>
      <point x="1093" y="1154" type="curve"/>
    </contour>
  </outline>
</glyph>
<glyph name="LftPtngDblAngQuotMrk" format="2">
  <advance width="1280"/>
  <unicode hex="00AB"/>
  <outline>
    <contour>
      <point x="705" y="0" type="line"/>
      <point x="421" y="507" type="line"/>
      <point x="946" y="1010" type="line"/>
      <point x="681" y="1010" type="line"/>
      <point x="141" y="507" type="line"/>
      <point x="460" y="0" type="line"/>
    </contour>
    <contour>
      <point x="1195" y="0" type="line"/>
      <point x="911" y="507" type="line"/>
      <point x="1436" y="1010" type="line"/>
      <point x="1171" y="1010" type="line"/>
      <point x="631" y="507" type="line"/>
      <point x="950" y="0" type="line"/>
    </contour>
  </outline>
</glyph>
<glyph name="DegreeSgn" format="2">
  <advance width="695"/>
  <unicode hex="00B0"/>
  <outline>
    <contour>
      <point x="566" y="1030" type="curve" smooth="yes"/>
      <point x="496" y="1030"/>
      <point x="441" y="1089"/>
      <point x="441" y="1157" type="curve" smooth="yes"/>
      <point x="441" y="1252"/>
      <point x="533" y="1322"/>
      <point x="619" y="1322" type="curve" smooth="yes"/>
      <point x="689" y="1322"/>
      <point x="739" y="1268"/>
      <point x="739" y="1201" type="curve" smooth="yes"/>
      <point x="739" y="1107"/>
      <point x="653" y="1030"/>
    </contour>
    <contour>
      <point x="288" y="1121" type="curve" smooth="yes"/>
      <point x="288" y="986"/>
      <point x="385" y="881"/>
      <point x="529" y="881" type="curve" smooth="yes"/>
      <point x="728" y="881"/>
      <point x="895" y="1056"/>
      <point x="895" y="1241" type="curve" smooth="yes"/>
      <point x="895" y="1373"/>
      <point x="799" y="1470"/>
      <point x="656" y="1470" type="curve" smooth="yes"/>
      <point x="459" y="1470"/>
      <point x="288" y="1307"/>
    </contour>
  </outline>
</glyph>
<glyph name="MicroSgn" format="2">
  <advance width="1165"/>
  <unicode hex="00B5"/>
  <outline>
    <contour>
      <point x="1100" y="0" type="line"/>
      <point x="1096" y="30"/>
      <point x="1094" y="62"/>
      <point x="1094" y="96" type="curve" smooth="yes"/>
      <point x="1094" y="191"/>
      <point x="1110" y="304"/>
      <point x="1145" y="445" type="curve" smooth="yes"/>
      <point x="1190" y="626"/>
      <point x="1286" y="1010"/>
      <point x="1286" y="1010" type="curve"/>
      <point x="986" y="1010" type="line"/>
      <point x="974" y="889"/>
      <point x="960" y="824"/>
      <point x="927" y="693" type="curve" smooth="yes"/>
      <point x="858" y="414" type="line"/>
      <point x="802" y="323"/>
      <point x="665" y="204"/>
      <point x="590" y="204" type="curve" smooth="yes"/>
      <point x="497" y="204"/>
      <point x="458" y="241"/>
      <point x="458" y="324" type="curve" smooth="yes"/>
      <point x="458" y="360"/>
      <point x="466" y="406"/>
      <point x="479" y="460" type="curve" smooth="yes"/>
      <point x="517" y="613"/>
      <point x="616" y="1010"/>
      <point x="616" y="1010" type="curve"/>
      <point x="316" y="1010" type="line"/>
      <point x="305" y="891"/>
      <point x="289" y="819"/>
      <point x="257" y="693" type="curve" smooth="yes"/>
      <point x="-36" y="-485" type="line"/>
      <point x="269" y="-485" type="line"/>
      <point x="273" y="-401"/>
      <point x="288" y="-307"/>
      <point x="327" y="-149" type="curve" smooth="yes"/>
      <point x="371" y="25" type="line"/>
      <point x="406" y="-19"/>
      <point x="454" y="-25"/>
      <point x="511" y="-25" type="curve" smooth="yes"/>
      <point x="588" y="-25"/>
      <point x="709" y="48"/>
      <point x="825" y="183" type="curve"/>
      <point x="823" y="165"/>
      <point x="822" y="146"/>
      <point x="822" y="128" type="curve" smooth="yes"/>
      <point x="822" y="78"/>
      <point x="828" y="32"/>
      <point x="835" y="0" type="curve"/>
    </contour>
  </outline>
</glyph>
<glyph name="RtPtngDblAngQuotMrk" format="2">
  <advance width="1280"/>
  <unicode hex="00BB"/>
  <outline>
    <contour>
      <point x="807" y="0" type="line"/>
      <point x="1351" y="507" type="line"/>
      <point x="1031" y="1010" type="line"/>
      <point x="796" y="1010" type="line"/>
      <point x="1061" y="507" type="line"/>
      <point x="545" y="0" type="line"/>
    </contour>
    <contour>
      <point x="317" y="0" type="line"/>
      <point x="861" y="507" type="line"/>
      <point x="541" y="1010" type="line"/>
      <point x="306" y="1010" type="line"/>
      <point x="571" y="507" type="line"/>
      <point x="55" y="0" type="line"/>
    </contour>
  </outline>
</glyph>
<glyph name="VulgFracOneHalf" format="2">
  <advance width="1716"/>
  <unicode hex="00BD"/>
  <outline>
    <contour>
      <point x="154" y="-50" type="line"/>
      <point x="334" y="-50" type="line"/>
      <point x="1813" y="1584" type="line"/>
      <point x="1632" y="1584" type="line"/>
    </contour>
    <contour>
      <point x="165" y="663" type="line"/>
      <point x="701" y="663" type="line"/>
      <point x="738" y="812" type="line"/>
      <point x="562" y="812" type="line"/>
      <point x="752" y="1574" type="line"/>
      <point x="587" y="1574" type="line"/>
      <point x="353" y="1459" type="line"/>
      <point x="339" y="1295" type="line"/>
      <point x="541" y="1391" type="line"/>
      <point x="397" y="812" type="line"/>
      <point x="202" y="812" type="line"/>
    </contour>
    <contour>
      <point x="1012" y="0" type="line"/>
      <point x="1636" y="0" type="line"/>
      <point x="1676" y="163" type="line"/>
      <point x="1623" y="155"/>
      <point x="1579" y="153"/>
      <point x="1454" y="153" type="curve" smooth="yes"/>
      <point x="1285" y="153" type="line"/>
      <point x="1472" y="274"/>
      <point x="1780" y="472"/>
      <point x="1780" y="709" type="curve" smooth="yes"/>
      <point x="1780" y="847"/>
      <point x="1679" y="936"/>
      <point x="1521" y="936" type="curve" smooth="yes"/>
      <point x="1424" y="936"/>
      <point x="1299" y="883"/>
      <point x="1226" y="823" type="curve"/>
      <point x="1236" y="671" type="line"/>
      <point x="1308" y="730"/>
      <point x="1417" y="778"/>
      <point x="1485" y="778" type="curve" smooth="yes"/>
      <point x="1560" y="778"/>
      <point x="1587" y="733"/>
      <point x="1587" y="678" type="curve" smooth="yes"/>
      <point x="1587" y="473"/>
      <point x="1258" y="272"/>
      <point x="1046" y="139" type="curve"/>
    </contour>
  </outline>
</glyph>
<glyph name="InvQstnMrk" format="2">
  <advance width="1070"/>
  <unicode hex="00BF"/>
  <outline>
    <contour>
      <point x="484" y="579" type="line"/>
      <point x="442" y="410"/>
      <point x="381" y="277"/>
      <point x="244" y="128" type="curve" smooth="yes"/>
      <point x="143" y="17"/>
      <point x="37" y="-50"/>
      <point x="37" y="-193" type="curve" smooth="yes"/>
      <point x="37" y="-340"/>
      <point x="164" y="-450"/>
      <point x="387" y="-450" type="curve" smooth="yes"/>
      <point x="532" y="-450"/>
      <point x="679" y="-381"/>
      <point x="760" y="-319" type="curve"/>
      <point x="774" y="-82" type="line"/>
      <point x="679" y="-160"/>
      <point x="566" y="-208"/>
      <point x="466" y="-208" type="curve" smooth="yes"/>
      <point x="381" y="-208"/>
      <point x="336" y="-183"/>
      <point x="336" y="-135" type="curve" smooth="yes"/>
      <point x="336" y="-71"/>
      <point x="417" y="2"/>
      <point x="510" y="104" type="curve" smooth="yes"/>
      <point x="589" y="190"/>
      <point x="677" y="320"/>
      <point x="749" y="579" type="curve"/>
    </contour>
    <contour>
      <point x="881" y="960" type="curve" smooth="yes"/>
      <point x="881" y="1041"/>
      <point x="820" y="1099"/>
      <point x="734" y="1099" type="curve" smooth="yes"/>
      <point x="615" y="1099"/>
      <point x="520" y="1004"/>
      <point x="520" y="893" type="curve" smooth="yes"/>
      <point x="520" y="812"/>
      <point x="580" y="752"/>
      <point x="667" y="752" type="curve" smooth="yes"/>
      <point x="785" y="752"/>
      <point x="881" y="850"/>
    </contour>
  </outline>
</glyph>
<glyph name="LtnCapThorn" format="2">
  <advance width="1255"/>
  <unicode hex="00DE"/>
  <anchor x="615" y="-100" name="L"/>
  <anchor x="992" y="1530" name="U"/>
  <outline>
    <contour>
      <point x="405" y="0" type="line"/>
      <point x="410" y="77"/>
      <point x="419" y="119"/>
      <point x="468" y="315" type="curve"/>
      <point x="531" y="308"/>
      <point x="601" y="305"/>
      <point x="674" y="305" type="curve" smooth="yes"/>
      <point x="1052" y="305"/>
      <point x="1337" y="493"/>
      <point x="1337" y="862" type="curve" smooth="yes"/>
      <point x="1337" y="1095"/>
      <point x="1164" y="1252"/>
      <point x="890" y="1252" type="curve" smooth="yes"/>
      <point x="824" y="1252"/>
      <point x="771" y="1250"/>
      <point x="701" y="1250" type="curve"/>
      <point x="749" y="1440" type="line"/>
      <point x="449" y="1440" type="line"/>
      <point x="444" y="1361"/>
      <point x="400" y="1184"/>
      <point x="351" y="990" type="curve" smooth="yes"/>
      <point x="212" y="431" type="line" smooth="yes"/>
      <point x="163" y="236"/>
      <point x="123" y="79"/>
      <point x="90" y="0" type="curve"/>
    </contour>
    <contour>
      <point x="645" y="1025" type="line"/>
      <point x="702" y="1028"/>
      <point x="720" y="1030"/>
      <point x="798" y="1030" type="curve" smooth="yes"/>
      <point x="974" y="1030"/>
      <point x="1051" y="932"/>
      <point x="1051" y="816" type="curve" smooth="yes"/>
      <point x="1051" y="607"/>
      <point x="906" y="520"/>
      <point x="687" y="520" type="curve" smooth="yes"/>
      <point x="625" y="520"/>
      <point x="563" y="523"/>
      <point x="522" y="530" type="curve"/>
    </contour>
  </outline>
</glyph>
<glyph name="LtnSmEth" format="2">
  <advance width="1171"/>
  <unicode hex="00F0"/>
  <anchor x="545" y="-100" name="L"/>
  <anchor x="900" y="1635" name="U"/>
  <outline>
    <contour>
      <point x="574" y="1517" type="line"/>
      <point x="766" y="1413"/>
      <point x="930" y="1127"/>
      <point x="943" y="859" type="curve"/>
      <point x="895" y="944"/>
      <point x="810" y="990"/>
      <point x="689" y="990" type="curve" smooth="yes"/>
      <point x="497" y="990"/>
      <point x="242" y="850"/>
      <point x="162" y="529" type="curve" smooth="yes"/>
      <point x="147" y="470"/>
      <point x="140" y="414"/>
      <point x="140" y="362" type="curve" smooth="yes"/>
      <point x="140" y="125"/>
      <point x="289" y="-25"/>
      <point x="520" y="-25" type="curve" smooth="yes"/>
      <point x="813" y="-25"/>
      <point x="1042" y="137"/>
      <point x="1146" y="554" type="curve" smooth="yes"/>
      <point x="1167" y="637"/>
      <point x="1176" y="723"/>
      <point x="1176" y="807" type="curve" smooth="yes"/>
      <point x="1176" y="1147"/>
      <point x="1021" y="1470"/>
      <point x="829" y="1604" type="curve"/>
    </contour>
    <contour>
      <point x="426" y="506" type="curve" smooth="yes"/>
      <point x="470" y="683"/>
      <point x="568" y="774"/>
      <point x="699" y="774" type="curve" smooth="yes"/>
      <point x="796" y="774"/>
      <point x="856" y="694"/>
      <point x="856" y="571" type="curve" smooth="yes"/>
      <point x="856" y="536"/>
      <point x="851" y="498"/>
      <point x="841" y="457" type="curve" smooth="yes"/>
      <point x="797" y="280"/>
      <point x="696" y="193"/>
      <point x="564" y="193" type="curve" smooth="yes"/>
      <point x="469" y="193"/>
      <point x="410" y="269"/>
      <point x="410" y="389" type="curve" smooth="yes"/>
      <point x="410" y="424"/>
      <point x="415" y="464"/>
    </contour>
    <contour>
      <point x="1301" y="1433" type="line"/>
      <point x="1219" y="1583" type="line"/>
      <point x="539" y="1222" type="line"/>
      <point x="612" y="1065" type="line"/>
    </contour>
  </outline>
</glyph>
<glyph name="LtnSmOStrk" format="2">
  <advance width="1139"/>
  <unicode hex="00F8"/>
  <anchor x="520" y="0" name="H"/>
  <anchor x="495" y="-100" name="L"/>
  <anchor x="770" y="0" name="O"/>
  <anchor x="1370" y="1000" name="R"/>
  <anchor x="795" y="1100" name="U"/>
  <outline>
    <contour>
      <point x="140" y="370" type="curve" smooth="yes"/>
      <point x="140" y="128"/>
      <point x="289" y="-25"/>
      <point x="520" y="-25" type="curve" smooth="yes"/>
      <point x="906" y="-25"/>
      <point x="1144" y="295"/>
      <point x="1144" y="641" type="curve" smooth="yes"/>
      <point x="1144" y="880"/>
      <point x="1003" y="1030"/>
      <point x="773" y="1030" type="curve" smooth="yes"/>
      <point x="390" y="1030"/>
      <point x="140" y="718"/>
    </contour>
    <contour>
      <point x="718" y="807" type="curve" smooth="yes"/>
      <point x="826" y="807"/>
      <point x="879" y="737"/>
      <point x="879" y="612" type="curve" smooth="yes"/>
      <point x="879" y="413"/>
      <point x="764" y="198"/>
      <point x="566" y="198" type="curve" smooth="yes"/>
      <point x="464" y="198"/>
      <point x="404" y="264"/>
      <point x="404" y="385" type="curve" smooth="yes"/>
      <point x="404" y="570"/>
      <point x="512" y="807"/>
    </contour>
    <contour>
      <point x="1005" y="1096" type="line"/>
      <point x="75" y="-75" type="line"/>
      <point x="300" y="-75" type="line"/>
      <point x="1230" y="1096" type="line"/>
    </contour>
  </outline>
</glyph>
<glyph name="LtnSmEOgonek" format="2">
  <advance width="1090"/>
  <unicode hex="0119"/>
  <anchor x="425" y="-500" name="L"/>
  <anchor x="790" y="1100" name="U"/>
  <outline>
    <contour>
      <point x="556" y="-25" type="curve" smooth="yes"/>
      <point x="712" y="-25"/>
      <point x="835" y="2"/>
      <point x="997" y="74" type="curve"/>
      <point x="1013" y="303" type="line"/>
      <point x="871" y="230"/>
      <point x="739" y="198"/>
      <point x="608" y="198" type="curve" smooth="yes"/>
      <point x="459" y="198"/>
      <point x="401" y="297"/>
      <point x="401" y="428" type="curve" smooth="yes"/>
      <point x="401" y="683"/>
      <point x="552" y="822"/>
      <point x="713" y="822" type="curve" smooth="yes"/>
      <point x="811" y="822"/>
      <point x="869" y="782"/>
      <point x="869" y="720" type="curve" smooth="yes"/>
      <point x="869" y="635"/>
      <point x="777" y="580"/>
      <point x="533" y="580" type="curve" smooth="yes"/>
      <point x="461" y="580"/>
      <point x="385" y="589"/>
      <point x="283" y="610" type="curve"/>
      <point x="283" y="437" type="line"/>
      <point x="353" y="422"/>
      <point x="487" y="413"/>
      <point x="569" y="413" type="curve" smooth="yes"/>
      <point x="935" y="413"/>
      <point x="1125" y="583"/>
      <point x="1125" y="774" type="curve" smooth="yes"/>
      <point x="1125" y="922"/>
      <point x="993" y="1030"/>
      <point x="769" y="1030" type="curve" smooth="yes"/>
      <point x="435" y="1030"/>
      <point x="148" y="775"/>
      <point x="148" y="388" type="curve" smooth="yes"/>
      <point x="148" y="135"/>
      <point x="332" y="-25"/>
    </contour>
    <contour>
      <point x="675" y="-436" type="curve" smooth="yes"/>
      <point x="749" y="-436"/>
      <point x="830" y="-414"/>
      <point x="902" y="-357" type="curve"/>
      <point x="907" y="-208" type="line"/>
      <point x="859" y="-251"/>
      <point x="766" y="-282"/>
      <point x="723" y="-282" type="curve" smooth="yes"/>
      <point x="669" y="-282"/>
      <point x="634" y="-243"/>
      <point x="634" y="-192" type="curve" smooth="yes"/>
      <point x="634" y="-143"/>
      <point x="666" y="-102"/>
      <point x="719" y="-64" type="curve" smooth="yes"/>
      <point x="786" y="-16"/>
      <point x="942" y="49"/>
      <point x="997" y="74" type="curve"/>
      <point x="654" y="0" type="line"/>
      <point x="550" y="-51"/>
      <point x="449" y="-123"/>
      <point x="449" y="-242" type="curve" smooth="yes"/>
      <point x="449" y="-346"/>
      <point x="549" y="-436"/>
    </contour>
  </outline>
</glyph>
<glyph name="LtnCapHStrk" format="2">
  <advance width="1555"/>
  <unicode hex="0126"/>
  <anchor x="705" y="-100" name="L"/>
  <anchor x="1112" y="1530" name="U"/>
  <outline>
    <contour>
      <point x="246" y="1049" type="line"/>
      <point x="1731" y="1049" type="line"/>
      <point x="1782" y="1252" type="line"/>
      <point x="297" y="1252" type="line"/>
    </contour>
    <contour>
      <point x="1325" y="0" type="line"/>
      <point x="1329" y="79"/>
      <point x="1367" y="231"/>
      <point x="1416" y="426" type="curve" smooth="yes"/>
      <point x="1564" y="1020" type="line" smooth="yes"/>
      <point x="1613" y="1215"/>
      <point x="1651" y="1366"/>
      <point x="1685" y="1445" type="curve"/>
      <point x="1385" y="1445" type="line"/>
      <point x="1237" y="851" type="line"/>
      <point x="647" y="851" type="line"/>
      <point x="795" y="1445" type="line"/>
      <point x="495" y="1445" type="line"/>
      <point x="490" y="1366"/>
      <point x="453" y="1215"/>
      <point x="404" y="1020" type="curve" smooth="yes"/>
      <point x="256" y="426" type="line" smooth="yes"/>
      <point x="207" y="231"/>
      <point x="168" y="79"/>
      <point x="135" y="0" type="curve"/>
      <point x="435" y="0" type="line"/>
      <point x="591" y="629" type="line"/>
      <point x="1181" y="629" type="line"/>
      <point x="1025" y="0" type="line"/>
    </contour>
  </outline>
</glyph>
<glyph name="LtnSmHStrk" format="2">
  <advance width="1273"/>
  <unicode hex="0127"/>
  <anchor x="585" y="-100" name="L"/>
  <anchor x="980" y="1635" name="U"/>
  <outline>
    <contour>
      <point x="105" y="0" type="line"/>
      <point x="385" y="0" type="line"/>
      <point x="485" y="400" type="line"/>
      <point x="580" y="596"/>
      <point x="745" y="787"/>
      <point x="850" y="787" type="curve" smooth="yes"/>
      <point x="937" y="787"/>
      <point x="953" y="722"/>
      <point x="953" y="625" type="curve" smooth="yes"/>
      <point x="953" y="529"/>
      <point x="889" y="374"/>
      <point x="863" y="213" type="curve" smooth="yes"/>
      <point x="857" y="174"/>
      <point x="853" y="134"/>
      <point x="853" y="95" type="curve" smooth="yes"/>
      <point x="853" y="63"/>
      <point x="854" y="31"/>
      <point x="860" y="0" type="curve"/>
      <point x="1140" y="0" type="line"/>
      <point x="1135" y="29"/>
      <point x="1129" y="60"/>
      <point x="1129" y="90" type="curve" smooth="yes"/>
      <point x="1129" y="135"/>
      <point x="1134" y="170"/>
      <point x="1141" y="215" type="curve" smooth="yes"/>
      <point x="1171" y="400"/>
      <point x="1253" y="590"/>
      <point x="1253" y="725" type="curve" smooth="yes"/>
      <point x="1253" y="900"/>
      <point x="1183" y="1030"/>
      <point x="990" y="1030" type="curve" smooth="yes"/>
      <point x="849" y="1030"/>
      <point x="694" y="902"/>
      <point x="566" y="740" type="curve"/>
      <point x="656" y="1095" type="line" smooth="yes"/>
      <point x="696" y="1255"/>
      <point x="735" y="1474"/>
      <point x="735" y="1585" type="curve"/>
      <point x="455" y="1585" type="line"/>
      <point x="455" y="1439"/>
      <point x="413" y="1242"/>
      <point x="377" y="1095" type="curve" smooth="yes"/>
    </contour>
    <contour>
      <point x="198" y="1157" type="line"/>
      <point x="1006" y="1157" type="line"/>
      <point x="1055" y="1355" type="line"/>
      <point x="247" y="1355" type="line"/>
    </contour>
  </outline>
</glyph>
<glyph name="LtnSmLigIj" format="2">
  <advance width="1295"/>
  <unicode hex="0133"/>
  <anchor x="255" y="0" name="H"/>
  <anchor x="522" y="-500" name="L"/>
  <anchor x="520" y="0" name="O"/>
  <anchor x="920" y="1600" name="U"/>
  <outline>
    <contour>
      <point x="521" y="-465" type="curve" smooth="yes"/>
      <point x="770" y="-465"/>
      <point x="988" y="-295"/>
      <point x="1081" y="75" type="curve" smooth="yes"/>
      <point x="1101" y="157"/>
      <point x="1246" y="882"/>
      <point x="1246" y="1010" type="curve"/>
      <point x="961" y="1010" type="line"/>
      <point x="961" y="866"/>
      <point x="884" y="395"/>
      <point x="805" y="87" type="curve" smooth="yes"/>
      <point x="748" y="-136"/>
      <point x="654" y="-221"/>
      <point x="544" y="-221" type="curve" smooth="yes"/>
      <point x="463" y="-221"/>
      <point x="383" y="-187"/>
      <point x="348" y="-150" type="curve"/>
      <point x="245" y="-385" type="line"/>
      <point x="279" y="-417"/>
      <point x="428" y="-465"/>
    </contour>
    <contour>
      <point x="172" y="0" type="curve"/>
      <point x="467" y="0" type="line"/>
      <point x="458" y="39"/>
      <point x="454" y="82"/>
      <point x="454" y="126" type="curve" smooth="yes"/>
      <point x="454" y="217"/>
      <point x="470" y="310"/>
      <point x="481" y="358" type="curve" smooth="yes"/>
      <point x="526" y="546" type="line" smooth="yes"/>
      <point x="567" y="719"/>
      <point x="616" y="875"/>
      <point x="620" y="1010" type="curve"/>
      <point x="336" y="1010" type="line"/>
      <point x="336" y="877"/>
      <point x="285" y="698"/>
      <point x="247" y="547" type="curve" smooth="yes"/>
      <point x="208" y="390" type="line" smooth="yes"/>
      <point x="188" y="309"/>
      <point x="165" y="191"/>
      <point x="165" y="88" type="curve" smooth="yes"/>
      <point x="165" y="57"/>
      <point x="167" y="27"/>
    </contour>
    <contour>
      <point x="543" y="1197" type="curve" smooth="yes"/>
      <point x="663" y="1197"/>
      <point x="754" y="1292"/>
      <point x="754" y="1403" type="curve" smooth="yes"/>
      <point x="754" y="1483"/>
      <point x="696" y="1544"/>
      <point x="609" y="1544" type="curve" smooth="yes"/>
      <point x="491" y="1544"/>
      <point x="399" y="1451"/>
      <point x="399" y="1341" type="curve" smooth="yes"/>
      <point x="399" y="1259"/>
      <point x="457" y="1197"/>
    </contour>
    <contour>
      <point x="1139" y="1197" type="curve" smooth="yes"/>
      <point x="1259" y="1197"/>
      <point x="1350" y="1292"/>
      <point x="1350" y="1403" type="curve" smooth="yes"/>
      <point x="1350" y="1483"/>
      <point x="1292" y="1544"/>
      <point x="1205" y="1544" type="curve" smooth="yes"/>
      <point x="1087" y="1544"/>
      <point x="995" y="1451"/>
      <point x="995" y="1341" type="curve" smooth="yes"/>
      <point x="995" y="1259"/>
      <point x="1053" y="1197"/>
    </contour>
  </outline>
</glyph>
<glyph name="LtnCapLCaron" format="2">
  <advance width="1110"/>
  <unicode hex="013D"/>
  <anchor x="592" y="0" name="H"/>
  <anchor x="592" y="-100" name="L"/>
  <anchor x="810" y="885" name="R_"/>
  <anchor x="850" y="1530" name="U"/>
  <outline>
    <component base="LtnCapL"/>
    <contour>
      <point x="834" y="1095" type="curve"/>
      <point x="1014" y="1095" type="line"/>
      <point x="1100" y="1257"/>
      <point x="1182" y="1421"/>
      <point x="1246" y="1585" type="curve"/>
      <point x="991" y="1585" type="line"/>
      <point x="952" y="1424"/>
      <point x="898" y="1259"/>
    </contour>
  </outline>
</glyph>
<glyph name="LtnSmLMiddleDot" format="2">
  <advance width="1011"/>
  <unicode hex="0140"/>
  <anchor x="315" y="0" name="H"/>
  <anchor x="315" y="-100" name="L"/>
  <anchor x="620" y="1635" name="U"/>
  <outline>
    <contour>
      <point x="461" y="1585" type="line"/>
      <point x="461" y="1439"/>
      <point x="420" y="1242"/>
      <point x="383" y="1095" type="curve" smooth="yes"/>
      <point x="232" y="488" type="line" smooth="yes"/>
      <point x="208" y="394"/>
      <point x="175" y="269"/>
      <point x="175" y="116" type="curve" smooth="yes"/>
      <point x="175" y="89"/>
      <point x="178" y="30"/>
      <point x="180" y="0" type="curve"/>
      <point x="470" y="0" type="line"/>
      <point x="464" y="39"/>
      <point x="461" y="80"/>
      <point x="461" y="121" type="curve" smooth="yes"/>
      <point x="461" y="277"/>
      <point x="498" y="434"/>
      <point x="518" y="515" type="curve" smooth="yes"/>
      <point x="662" y="1095" type="line" smooth="yes"/>
      <point x="702" y="1255"/>
      <point x="741" y="1474"/>
      <point x="741" y="1585" type="curve"/>
    </contour>
    <contour>
      <point x="762" y="705" type="curve" smooth="yes"/>
      <point x="762" y="620"/>
      <point x="817" y="541"/>
      <point x="910" y="541" type="curve" smooth="yes"/>
      <point x="1020" y="541"/>
      <point x="1104" y="624"/>
      <point x="1104" y="727" type="curve" smooth="yes"/>
      <point x="1104" y="808"/>
      <point x="1063" y="884"/>
      <point x="953" y="884" type="curve" smooth="yes"/>
      <point x="850" y="884"/>
      <point x="762" y="805"/>
    </contour>
  </outline>
</glyph>
<glyph name="LtnCapLStrk" format="2">
  <advance width="1160"/>
  <unicode hex="0141"/>
  <anchor x="612" y="-100" name="L"/>
  <anchor x="1019" y="1530" name="U"/>
  <outline>
    <contour>
      <point x="496" y="228" type="line"/>
      <point x="800" y="1445" type="line"/>
      <point x="500" y="1445" type="line"/>
      <point x="495" y="1366"/>
      <point x="457" y="1210"/>
      <point x="408" y="1015" type="curve" smooth="yes"/>
      <point x="262" y="431" type="line" smooth="yes"/>
      <point x="213" y="236"/>
      <point x="173" y="79"/>
      <point x="140" y="0" type="curve"/>
      <point x="1075" y="0" type="line"/>
      <point x="1135" y="243" type="line"/>
      <point x="1055" y="229"/>
      <point x="901" y="228"/>
      <point x="712" y="228" type="curve" smooth="yes"/>
    </contour>
    <contour>
      <point x="1032" y="940" type="line"/>
      <point x="972" y="1115" type="line"/>
      <point x="103" y="607" type="line"/>
      <point x="158" y="436" type="line"/>
    </contour>
  </outline>
</glyph>
<glyph name="LtnSmLStrk" format="2">
  <advance width="931"/>
  <unicode hex="0142"/>
  <anchor x="480" y="-100" name="L"/>
  <anchor x="780" y="1635" name="U"/>
  <outline>
    <contour>
      <point x="331" y="0" type="curve"/>
      <point x="621" y="0" type="line"/>
      <point x="615" y="39"/>
      <point x="612" y="80"/>
      <point x="612" y="121" type="curve" smooth="yes"/>
      <point x="612" y="277"/>
      <point x="649" y="434"/>
      <point x="669" y="515" type="curve" smooth="yes"/>
      <point x="813" y="1095" type="line" smooth="yes"/>
      <point x="853" y="1255"/>
      <point x="892" y="1474"/>
      <point x="892" y="1585" type="curve"/>
      <point x="612" y="1585" type="line"/>
      <point x="612" y="1439"/>
      <point x="571" y="1242"/>
      <point x="534" y="1095" type="curve" smooth="yes"/>
      <point x="383" y="488" type="line" smooth="yes"/>
      <point x="359" y="394"/>
      <point x="326" y="269"/>
      <point x="326" y="116" type="curve" smooth="yes"/>
      <point x="326" y="89"/>
      <point x="329" y="30"/>
    </contour>
    <contour>
      <point x="190" y="461" type="line"/>
      <point x="1081" y="999" type="line"/>
      <point x="1031" y="1204" type="line"/>
      <point x="140" y="666" type="line"/>
    </contour>
  </outline>
</glyph>
<glyph name="LtnCapEng" format="2">
  <advance width="1491"/>
  <unicode hex="014A"/>
  <anchor x="566" y="-500" name="L"/>
  <anchor x="1073" y="1530" name="U"/>
  <outline>
    <contour>
      <point x="787" y="-465" type="curve" smooth="yes"/>
      <point x="889" y="-465"/>
      <point x="992" y="-429"/>
      <point x="1079" y="-362" type="curve" smooth="yes"/>
      <point x="1212" y="-258"/>
      <point x="1279" y="-86"/>
      <point x="1379" y="319" type="curve" smooth="yes"/>
      <point x="1437" y="556"/>
      <point x="1533" y="911"/>
      <point x="1533" y="1118" type="curve" smooth="yes"/>
      <point x="1533" y="1318"/>
      <point x="1433" y="1470"/>
      <point x="1208" y="1470" type="curve" smooth="yes"/>
      <point x="1028" y="1470"/>
      <point x="796" y="1297"/>
      <point x="648" y="1112" type="curve"/>
      <point x="666" y="1184"/>
      <point x="675" y="1301"/>
      <point x="675" y="1383" type="curve" smooth="yes"/>
      <point x="675" y="1410"/>
      <point x="674" y="1433"/>
      <point x="672" y="1450" type="curve"/>
      <point x="387" y="1450" type="line"/>
      <point x="389" y="1429"/>
      <point x="390" y="1404"/>
      <point x="390" y="1375" type="curve" smooth="yes"/>
      <point x="390" y="1253"/>
      <point x="371" y="1067"/>
      <point x="327" y="891" type="curve" smooth="yes"/>
      <point x="232" y="511" type="line" smooth="yes"/>
      <point x="174" y="277"/>
      <point x="128" y="95"/>
      <point x="87" y="0" type="curve"/>
      <point x="385" y="0" type="line"/>
      <point x="567" y="731" type="line"/>
      <point x="660" y="898"/>
      <point x="902" y="1178"/>
      <point x="1061" y="1178" type="curve" smooth="yes"/>
      <point x="1189" y="1178"/>
      <point x="1234" y="1112"/>
      <point x="1234" y="1013" type="curve" smooth="yes"/>
      <point x="1234" y="825"/>
      <point x="1151" y="515"/>
      <point x="1102" y="311" type="curve" smooth="yes"/>
      <point x="1001" y="-108"/>
      <point x="917" y="-221"/>
      <point x="801" y="-221" type="curve" smooth="yes"/>
      <point x="736" y="-221"/>
      <point x="698" y="-206"/>
      <point x="663" y="-173" type="curve"/>
      <point x="509" y="-395" type="line"/>
      <point x="575" y="-443"/>
      <point x="666" y="-465"/>
    </contour>
  </outline>
</glyph>
<glyph name="LtnCapLigOe" format="2">
  <advance width="1959"/>
  <unicode hex="0152"/>
  <anchor x="926" y="-100" name="L"/>
  <anchor x="1333" y="1530" name="U"/>
  <outline>
    <contour>
      <point x="2139" y="1445" type="line"/>
      <point x="1317" y="1445" type="line"/>
      <point x="1287" y="1319" type="line"/>
      <point x="1248" y="1386"/>
      <point x="1115" y="1470"/>
      <point x="962" y="1470" type="curve" smooth="yes"/>
      <point x="566" y="1470"/>
      <point x="191" y="1074"/>
      <point x="191" y="535" type="curve" smooth="yes"/>
      <point x="191" y="198"/>
      <point x="383" y="-25"/>
      <point x="647" y="-25" type="curve" smooth="yes"/>
      <point x="779" y="-25"/>
      <point x="943" y="72"/>
      <point x="994" y="148" type="curve"/>
      <point x="957" y="0" type="line"/>
      <point x="1809" y="0" type="line"/>
      <point x="1869" y="243" type="line"/>
      <point x="1788" y="229"/>
      <point x="1652" y="228"/>
      <point x="1461" y="228" type="curve" smooth="yes"/>
      <point x="1303" y="228" type="line"/>
      <point x="1407" y="643" type="line"/>
      <point x="1864" y="643" type="line"/>
      <point x="1919" y="866" type="line"/>
      <point x="1462" y="866" type="line"/>
      <point x="1550" y="1218" type="line"/>
      <point x="2082" y="1218" type="line"/>
    </contour>
    <contour>
      <point x="708" y="218" type="curve" smooth="yes"/>
      <point x="562" y="218"/>
      <point x="477" y="351"/>
      <point x="477" y="553" type="curve" smooth="yes"/>
      <point x="477" y="825"/>
      <point x="622" y="1228"/>
      <point x="940" y="1228" type="curve" smooth="yes"/>
      <point x="1082" y="1228"/>
      <point x="1166" y="1097"/>
      <point x="1166" y="896" type="curve" smooth="yes"/>
      <point x="1166" y="628"/>
      <point x="1023" y="218"/>
    </contour>
  </outline>
</glyph>
<glyph name="LtnCapBHook" format="2">
  <advance width="1779"/>
  <unicode hex="0181"/>
  <anchor x="982" y="-100" name="L"/>
  <anchor x="1317" y="1530" name="U"/>
  <outline>
    <contour>
      <point x="965" y="651" type="line"/>
      <point x="1158" y="651" type="line" smooth="yes"/>
      <point x="1340" y="651"/>
      <point x="1434" y="577"/>
      <point x="1434" y="469" type="curve" smooth="yes"/>
      <point x="1434" y="253"/>
      <point x="1240" y="213"/>
      <point x="1058" y="213" type="curve" smooth="yes"/>
      <point x="958" y="213"/>
      <point x="889" y="216"/>
      <point x="857" y="218" type="curve"/>
    </contour>
    <contour>
      <point x="489" y="840" type="line"/>
      <point x="480" y="870"/>
      <point x="475" y="902"/>
      <point x="475" y="939" type="curve" smooth="yes"/>
      <point x="475" y="970"/>
      <point x="478" y="1003"/>
      <point x="488" y="1042" type="curve" smooth="yes"/>
      <point x="523" y="1183"/>
      <point x="666" y="1241"/>
      <point x="820" y="1241" type="curve" smooth="yes"/>
      <point x="1248" y="1241" type="line" smooth="yes"/>
      <point x="1423" y="1241"/>
      <point x="1518" y="1186"/>
      <point x="1518" y="1090" type="curve" smooth="yes"/>
      <point x="1518" y="924"/>
      <point x="1369" y="866"/>
      <point x="1173" y="866" type="curve" smooth="yes"/>
      <point x="1018" y="866" type="line"/>
      <point x="1121" y="1279" type="line"/>
      <point x="836" y="1279" type="line"/>
      <point x="630" y="450" type="line" smooth="yes"/>
      <point x="581" y="254"/>
      <point x="537" y="79"/>
      <point x="503" y="0" type="curve"/>
      <point x="503" y="0"/>
      <point x="751" y="-10"/>
      <point x="981" y="-10" type="curve" smooth="yes"/>
      <point x="1335" y="-10"/>
      <point x="1705" y="106"/>
      <point x="1705" y="488" type="curve" smooth="yes"/>
      <point x="1705" y="657"/>
      <point x="1600" y="759"/>
      <point x="1485" y="792" type="curve"/>
      <point x="1672" y="858"/>
      <point x="1800" y="948"/>
      <point x="1800" y="1153" type="curve" smooth="yes"/>
      <point x="1800" y="1355"/>
      <point x="1611" y="1455"/>
      <point x="1330" y="1455" type="curve" smooth="yes"/>
      <point x="923" y="1455" type="line" smooth="yes"/>
      <point x="573" y="1455"/>
      <point x="320" y="1353"/>
      <point x="243" y="1052" type="curve" smooth="yes"/>
      <point x="234" y="1016"/>
      <point x="229" y="964"/>
      <point x="229" y="913" type="curve" smooth="yes"/>
      <point x="229" y="865"/>
      <point x="233" y="820"/>
      <point x="241" y="793" type="curve"/>
    </contour>
  </outline>
</glyph>
<glyph name="LtnCapTnSix" format="2">
  <advance width="1485"/>
  <unicode hex="0184"/>
  <anchor x="760" y="-100" name="L"/>
  <anchor x="1140" y="1530" name="U"/>
  <outline>
    <contour>
      <point x="412" y="450" type="line" smooth="yes"/>
      <point x="363" y="254"/>
      <point x="319" y="79"/>
      <point x="285" y="0" type="curve"/>
      <point x="420" y="-4"/>
      <point x="654" y="-10"/>
      <point x="802" y="-10" type="curve" smooth="yes"/>
      <point x="1207" y="-10"/>
      <point x="1488" y="184"/>
      <point x="1488" y="533" type="curve" smooth="yes"/>
      <point x="1488" y="742"/>
      <point x="1329" y="866"/>
      <point x="1005" y="866" type="curve" smooth="yes"/>
      <point x="800" y="866" type="line"/>
      <point x="945" y="1445" type="line"/>
      <point x="667" y="1445" type="line"/>
      <point x="578" y="1330"/>
      <point x="314" y="1036"/>
      <point x="138" y="866" type="curve"/>
      <point x="383" y="866" type="line"/>
      <point x="588" y="1049" type="line"/>
      <point x="566" y="1068" type="line"/>
    </contour>
    <contour>
      <point x="747" y="651" type="line"/>
      <point x="962" y="651" type="line" smooth="yes"/>
      <point x="1121" y="651"/>
      <point x="1216" y="575"/>
      <point x="1216" y="467" type="curve" smooth="yes"/>
      <point x="1216" y="268"/>
      <point x="1041" y="213"/>
      <point x="863" y="213" type="curve" smooth="yes"/>
      <point x="751" y="213"/>
      <point x="675" y="216"/>
      <point x="639" y="218" type="curve"/>
    </contour>
  </outline>
</glyph>
<glyph name="LtnCapOpnO" format="2">
  <advance width="1299"/>
  <unicode hex="0186"/>
  <anchor x="460" y="-100" name="L"/>
  <anchor x="868" y="1530" name="U"/>
  <outline>
    <contour>
      <point x="75" y="181" type="line"/>
      <point x="154" y="84"/>
      <point x="329" y="-25"/>
      <point x="530" y="-25" type="curve" smooth="yes"/>
      <point x="1040" y="-25"/>
      <point x="1328" y="416"/>
      <point x="1328" y="864" type="curve" smooth="yes"/>
      <point x="1328" y="1235"/>
      <point x="1091" y="1470"/>
      <point x="783" y="1470" type="curve" smooth="yes"/>
      <point x="599" y="1470"/>
      <point x="471" y="1420"/>
      <point x="302" y="1307" type="curve"/>
      <point x="287" y="1044" type="line"/>
      <point x="409" y="1153"/>
      <point x="598" y="1233"/>
      <point x="729" y="1233" type="curve" smooth="yes"/>
      <point x="922" y="1233"/>
      <point x="1043" y="1074"/>
      <point x="1043" y="841" type="curve" smooth="yes"/>
      <point x="1043" y="553"/>
      <point x="887" y="218"/>
      <point x="566" y="218" type="curve" smooth="yes"/>
      <point x="436" y="218"/>
      <point x="309" y="290"/>
      <point x="226" y="401" type="curve"/>
    </contour>
  </outline>
</glyph>
<glyph name="LtnSmCHook" format="2">
  <advance width="1161"/>
  <unicode hex="0188"/>
  <anchor x="540" y="-100" name="L"/>
  <anchor x="770" y="1100" name="U"/>
  <outline>
    <contour>
      <point x="569" y="-25" type="curve" smooth="yes"/>
      <point x="718" y="-25"/>
      <point x="835" y="11"/>
      <point x="927" y="69" type="curve"/>
      <point x="937" y="311" type="line"/>
      <point x="840" y="238"/>
      <point x="755" y="203"/>
      <point x="625" y="203" type="curve" smooth="yes"/>
      <point x="494" y="203"/>
      <point x="417" y="302"/>
      <point x="417" y="416" type="curve" smooth="yes"/>
      <point x="417" y="661"/>
      <point x="588" y="802"/>
      <point x="754" y="802" type="curve" smooth="yes"/>
      <point x="857" y="802"/>
      <point x="958" y="775"/>
      <point x="1023" y="714" type="curve"/>
      <point x="1073" y="959" type="line"/>
      <point x="1009" y="997"/>
      <point x="918" y="1030"/>
      <point x="796" y="1030" type="curve" smooth="yes"/>
      <point x="446" y="1030"/>
      <point x="150" y="774"/>
      <point x="150" y="386" type="curve" smooth="yes"/>
      <point x="150" y="137"/>
      <point x="341" y="-25"/>
    </contour>
    <contour>
      <point x="1053" y="866" type="line"/>
      <point x="1063" y="920"/>
      <point x="1072" y="955"/>
      <point x="1083" y="1001" type="curve" smooth="yes"/>
      <point x="1131" y="1200"/>
      <point x="1188" y="1230"/>
      <point x="1254" y="1230" type="curve" smooth="yes"/>
      <point x="1302" y="1230"/>
      <point x="1360" y="1210"/>
      <point x="1405" y="1170" type="curve"/>
      <point x="1518" y="1392" type="line"/>
      <point x="1438" y="1443"/>
      <point x="1362" y="1470"/>
      <point x="1278" y="1470" type="curve" smooth="yes"/>
      <point x="1114" y="1470"/>
      <point x="974" y="1367"/>
      <point x="901" y="1040" type="curve" smooth="yes"/>
      <point x="877" y="931" type="line"/>
    </contour>
  </outline>
</glyph>
<glyph name="LtnCapDHook" format="2">
  <advance width="1878"/>
  <unicode hex="018A"/>
  <anchor x="1037" y="-100" name="L"/>
  <anchor x="1392" y="1530" name="U"/>
  <outline>
    <contour>
      <point x="489" y="840" type="line"/>
      <point x="480" y="870"/>
      <point x="474" y="902"/>
      <point x="474" y="939" type="curve" smooth="yes"/>
      <point x="474" y="968"/>
      <point x="478" y="1001"/>
      <point x="487" y="1038" type="curve" smooth="yes"/>
      <point x="522" y="1179"/>
      <point x="664" y="1234"/>
      <point x="818" y="1234" type="curve" smooth="yes"/>
      <point x="1277" y="1234" type="line" smooth="yes"/>
      <point x="1483" y="1234"/>
      <point x="1624" y="1112"/>
      <point x="1624" y="865" type="curve" smooth="yes"/>
      <point x="1624" y="801"/>
      <point x="1614" y="728"/>
      <point x="1594" y="647" type="curve" smooth="yes"/>
      <point x="1504" y="287"/>
      <point x="1263" y="219"/>
      <point x="1040" y="219" type="curve" smooth="yes"/>
      <point x="961" y="219"/>
      <point x="898" y="225"/>
      <point x="860" y="229" type="curve"/>
      <point x="1133" y="1325" type="line"/>
      <point x="837" y="1295" type="line"/>
      <point x="630" y="450" type="line" smooth="yes"/>
      <point x="582" y="254"/>
      <point x="537" y="79"/>
      <point x="503" y="0" type="curve"/>
      <point x="503" y="0"/>
      <point x="834" y="-10"/>
      <point x="969" y="-10" type="curve" smooth="yes"/>
      <point x="1269" y="-10"/>
      <point x="1739" y="59"/>
      <point x="1886" y="648" type="curve" smooth="yes"/>
      <point x="1909" y="740"/>
      <point x="1919" y="822"/>
      <point x="1919" y="896" type="curve" smooth="yes"/>
      <point x="1919" y="1324"/>
      <point x="1570" y="1455"/>
      <point x="1335" y="1455" type="curve" smooth="yes"/>
      <point x="923" y="1455" type="line" smooth="yes"/>
      <point x="573" y="1455"/>
      <point x="321" y="1358"/>
      <point x="244" y="1057" type="curve" smooth="yes"/>
      <point x="234" y="1020"/>
      <point x="230" y="964"/>
      <point x="230" y="911" type="curve" smooth="yes"/>
      <point x="230" y="864"/>
      <point x="233" y="819"/>
      <point x="241" y="793" type="curve"/>
    </contour>
  </outline>
</glyph>
<glyph name="LtnCapDTopbar" format="2">
  <advance width="1345"/>
  <unicode hex="018B"/>
  <anchor x="625" y="-100" name="L"/>
  <anchor x="992" y="1530" name="U"/>
  <outline>
    <contour>
      <point x="672" y="-10" type="curve" smooth="yes"/>
      <point x="902" y="-10"/>
      <point x="1155" y="0"/>
      <point x="1155" y="0" type="curve"/>
      <point x="1159" y="79"/>
      <point x="1203" y="254"/>
      <point x="1252" y="450" type="curve" smooth="yes"/>
      <point x="1386" y="990" type="line" smooth="yes"/>
      <point x="1434" y="1184"/>
      <point x="1481" y="1366"/>
      <point x="1515" y="1445" type="curve"/>
      <point x="555" y="1445" type="line"/>
      <point x="493" y="1198" type="line"/>
      <point x="569" y="1215"/>
      <point x="648" y="1218"/>
      <point x="729" y="1218" type="curve" smooth="yes"/>
      <point x="1158" y="1218" type="line"/>
      <point x="1070" y="866" type="line"/>
      <point x="905" y="866" type="line" smooth="yes"/>
      <point x="498" y="866"/>
      <point x="178" y="730"/>
      <point x="178" y="329" type="curve" smooth="yes"/>
      <point x="178" y="147"/>
      <point x="318" y="-10"/>
    </contour>
    <contour>
      <point x="743" y="213" type="curve" smooth="yes"/>
      <point x="567" y="213"/>
      <point x="456" y="268"/>
      <point x="456" y="392" type="curve" smooth="yes"/>
      <point x="456" y="622"/>
      <point x="686" y="651"/>
      <point x="862" y="651" type="curve" smooth="yes"/>
      <point x="1017" y="651" type="line"/>
      <point x="909" y="218" type="line"/>
      <point x="875" y="216"/>
      <point x="843" y="213"/>
    </contour>
  </outline>
</glyph>
<glyph name="LtnSmDTopbar" format="2">
  <advance width="1240"/>
  <unicode hex="018C"/>
  <anchor x="585" y="-100" name="L"/>
  <anchor x="1015" y="1635" name="U"/>
  <outline>
    <contour>
      <point x="448" y="-25" type="curve" smooth="yes"/>
      <point x="597" y="-25"/>
      <point x="785" y="145"/>
      <point x="867" y="267" type="curve"/>
      <point x="855" y="181"/>
      <point x="855" y="72"/>
      <point x="855" y="0" type="curve"/>
      <point x="1130" y="0" type="line"/>
      <point x="1126" y="23"/>
      <point x="1125" y="63"/>
      <point x="1125" y="100" type="curve" smooth="yes"/>
      <point x="1125" y="200"/>
      <point x="1140" y="341"/>
      <point x="1185" y="520" type="curve" smooth="yes"/>
      <point x="1454" y="1585" type="line"/>
      <point x="1174" y="1585" type="line"/>
      <point x="1020" y="935" type="line"/>
      <point x="949" y="989"/>
      <point x="845" y="1030"/>
      <point x="756" y="1030" type="curve" smooth="yes"/>
      <point x="630" y="1030"/>
      <point x="518" y="987"/>
      <point x="426" y="917" type="curve" smooth="yes"/>
      <point x="250" y="784"/>
      <point x="145" y="553"/>
      <point x="145" y="341" type="curve" smooth="yes"/>
      <point x="145" y="130"/>
      <point x="258" y="-25"/>
    </contour>
    <contour>
      <point x="560" y="200" type="curve" smooth="yes"/>
      <point x="470" y="200"/>
      <point x="427" y="263"/>
      <point x="427" y="367" type="curve" smooth="yes"/>
      <point x="427" y="480"/>
      <point x="469" y="626"/>
      <point x="554" y="714" type="curve" smooth="yes"/>
      <point x="599" y="761"/>
      <point x="657" y="792"/>
      <point x="727" y="792" type="curve" smooth="yes"/>
      <point x="820" y="792"/>
      <point x="876" y="775"/>
      <point x="957" y="731" type="curve"/>
      <point x="913" y="558" type="line"/>
      <point x="861" y="438"/>
      <point x="666" y="200"/>
    </contour>
    <contour>
      <point x="551" y="1351" type="line"/>
      <point x="628" y="1368"/>
      <point x="706" y="1371"/>
      <point x="787" y="1371" type="curve" smooth="yes"/>
      <point x="1261" y="1371" type="line"/>
      <point x="1314" y="1584" type="line"/>
      <point x="609" y="1584" type="line"/>
    </contour>
  </outline>
</glyph>
<glyph name="LtnSmTrndDelta" format="2">
  <advance width="1151"/>
  <unicode hex="018D"/>
  <anchor x="350" y="-500" name="L"/>
  <anchor x="805" y="1100" name="U"/>
  <outline>
    <contour>
      <point x="0" y="-426" type="line"/>
      <point x="75" y="-452"/>
      <point x="240" y="-485"/>
      <point x="359" y="-485" type="curve" smooth="yes"/>
      <point x="661" y="-485"/>
      <point x="894" y="-368"/>
      <point x="894" y="-137" type="curve" smooth="yes"/>
      <point x="894" y="17"/>
      <point x="717" y="91"/>
      <point x="585" y="196" type="curve" smooth="yes"/>
      <point x="507" y="258"/>
      <point x="436" y="346"/>
      <point x="436" y="468" type="curve" smooth="yes"/>
      <point x="436" y="635"/>
      <point x="546" y="807"/>
      <point x="721" y="807" type="curve" smooth="yes"/>
      <point x="828" y="807"/>
      <point x="880" y="724"/>
      <point x="880" y="606" type="curve" smooth="yes"/>
      <point x="880" y="375"/>
      <point x="743" y="242"/>
      <point x="500" y="151" type="curve"/>
      <point x="574" y="0" type="line"/>
      <point x="921" y="117"/>
      <point x="1166" y="305"/>
      <point x="1166" y="650" type="curve" smooth="yes"/>
      <point x="1166" y="869"/>
      <point x="1012" y="1030"/>
      <point x="766" y="1030" type="curve" smooth="yes"/>
      <point x="471" y="1030"/>
      <point x="155" y="842"/>
      <point x="155" y="452" type="curve" smooth="yes"/>
      <point x="155" y="261"/>
      <point x="279" y="108"/>
      <point x="384" y="23" type="curve" smooth="yes"/>
      <point x="500" y="-71"/>
      <point x="626" y="-113"/>
      <point x="626" y="-176" type="curve" smooth="yes"/>
      <point x="626" y="-228"/>
      <point x="530" y="-262"/>
      <point x="436" y="-262" type="curve" smooth="yes"/>
      <point x="328" y="-262"/>
      <point x="209" y="-238"/>
      <point x="125" y="-197" type="curve"/>
    </contour>
  </outline>
</glyph>
<glyph name="LtnCapRevE" format="2">
  <advance width="1192"/>
  <unicode hex="018E"/>
  <anchor x="495" y="-100" name="L"/>
  <anchor x="902" y="1530" name="U"/>
  <outline>
    <contour>
      <point x="370" y="866" type="line"/>
      <point x="315" y="643" type="line"/>
      <point x="862" y="643" type="line"/>
      <point x="758" y="228" type="line"/>
      <point x="500" y="228" type="line" smooth="yes"/>
      <point x="309" y="228"/>
      <point x="185" y="229"/>
      <point x="110" y="243" type="curve"/>
      <point x="50" y="0" type="line"/>
      <point x="1002" y="0" type="line"/>
      <point x="1006" y="79"/>
      <point x="1045" y="236"/>
      <point x="1094" y="431" type="curve" smooth="yes"/>
      <point x="1240" y="1015" type="line" smooth="yes"/>
      <point x="1288" y="1210"/>
      <point x="1327" y="1366"/>
      <point x="1362" y="1445" type="curve"/>
      <point x="440" y="1445" type="line"/>
      <point x="383" y="1218" type="line"/>
      <point x="1005" y="1218" type="line"/>
      <point x="917" y="866" type="line"/>
    </contour>
  </outline>
</glyph>
<glyph name="LtnCapSchwa" format="2">
  <advance width="1417"/>
  <unicode hex="018F"/>
  <anchor x="598" y="-100" name="L"/>
  <anchor x="925" y="1530" name="U"/>
  <outline>
    <contour>
      <point x="289" y="1045" type="line"/>
      <point x="480" y="1169"/>
      <point x="633" y="1230"/>
      <point x="819" y="1230" type="curve" smooth="yes"/>
      <point x="1060" y="1230"/>
      <point x="1162" y="1024"/>
      <point x="1162" y="818" type="curve" smooth="yes"/>
      <point x="1162" y="387"/>
      <point x="892" y="218"/>
      <point x="678" y="218" type="curve" smooth="yes"/>
      <point x="509" y="218"/>
      <point x="423" y="296"/>
      <point x="423" y="384" type="curve" smooth="yes"/>
      <point x="423" y="525"/>
      <point x="593" y="661"/>
      <point x="919" y="661" type="curve" smooth="yes"/>
      <point x="1021" y="661"/>
      <point x="1169" y="648"/>
      <point x="1303" y="609" type="curve"/>
      <point x="1303" y="834" type="line"/>
      <point x="1194" y="865"/>
      <point x="994" y="878"/>
      <point x="878" y="878" type="curve" smooth="yes"/>
      <point x="410" y="878"/>
      <point x="140" y="628"/>
      <point x="140" y="348" type="curve" smooth="yes"/>
      <point x="140" y="138"/>
      <point x="322" y="-25"/>
      <point x="639" y="-25" type="curve" smooth="yes"/>
      <point x="1112" y="-25"/>
      <point x="1446" y="312"/>
      <point x="1446" y="861" type="curve" smooth="yes"/>
      <point x="1446" y="1219"/>
      <point x="1220" y="1470"/>
      <point x="882" y="1470" type="curve" smooth="yes"/>
      <point x="681" y="1470"/>
      <point x="501" y="1432"/>
      <point x="312" y="1330" type="curve"/>
    </contour>
  </outline>
</glyph>
<glyph name="LtnCapOpnE" format="2">
  <advance width="1160"/>
  <unicode hex="0190"/>
  <anchor x="530" y="-100" name="L"/>
  <anchor x="917" y="1530" name="U"/>
  <outline>
    <contour>
      <point x="1269" y="1371" type="line"/>
      <point x="1169" y="1431"/>
      <point x="1069" y="1470"/>
      <point x="897" y="1470" type="curve" smooth="yes"/>
      <point x="574" y="1470"/>
      <point x="414" y="1294"/>
      <point x="373" y="1130" type="curve" smooth="yes"/>
      <point x="366" y="1103"/>
      <point x="363" y="1077"/>
      <point x="363" y="1051" type="curve" smooth="yes"/>
      <point x="363" y="933"/>
      <point x="429" y="831"/>
      <point x="527" y="782" type="curve"/>
      <point x="311" y="736"/>
      <point x="125" y="565"/>
      <point x="125" y="348" type="curve" smooth="yes"/>
      <point x="125" y="171"/>
      <point x="260" y="-25"/>
      <point x="544" y="-25" type="curve" smooth="yes"/>
      <point x="700" y="-25"/>
      <point x="887" y="12"/>
      <point x="1035" y="119" type="curve"/>
      <point x="1060" y="380" type="line"/>
      <point x="926" y="269"/>
      <point x="774" y="217"/>
      <point x="634" y="217" type="curve" smooth="yes"/>
      <point x="505" y="217"/>
      <point x="422" y="297"/>
      <point x="422" y="408" type="curve" smooth="yes"/>
      <point x="422" y="529"/>
      <point x="543" y="649"/>
      <point x="862" y="649" type="curve"/>
      <point x="913" y="855" type="line"/>
      <point x="765" y="855"/>
      <point x="639" y="926"/>
      <point x="639" y="1048" type="curve" smooth="yes"/>
      <point x="639" y="1064"/>
      <point x="641" y="1080"/>
      <point x="645" y="1097" type="curve" smooth="yes"/>
      <point x="670" y="1197"/>
      <point x="771" y="1230"/>
      <point x="867" y="1230" type="curve" smooth="yes"/>
      <point x="983" y="1230"/>
      <point x="1056" y="1204"/>
      <point x="1165" y="1112" type="curve"/>
    </contour>
  </outline>
</glyph>
<glyph name="LtnSmFHook" format="2">
  <advance width="799"/>
  <unicode hex="0192"/>
  <anchor x="122" y="-500" name="L"/>
  <anchor x="948" y="1635" name="U"/>
  <outline>
    <contour>
      <point x="148" y="797" type="line"/>
      <point x="883" y="797" type="line"/>
      <point x="933" y="995" type="line"/>
      <point x="198" y="995" type="line"/>
    </contour>
    <contour>
      <point x="1147" y="1534" type="line"/>
      <point x="1097" y="1572"/>
      <point x="998" y="1604"/>
      <point x="924" y="1604" type="curve" smooth="yes"/>
      <point x="677" y="1604"/>
      <point x="492" y="1455"/>
      <point x="418" y="1158" type="curve" smooth="yes"/>
      <point x="393" y="1056"/>
      <point x="211" y="148"/>
      <point x="172" y="7" type="curve" smooth="yes"/>
      <point x="136" y="-125"/>
      <point x="62" y="-224"/>
      <point x="-38" y="-224" type="curve" smooth="yes"/>
      <point x="-109" y="-224"/>
      <point x="-160" y="-184"/>
      <point x="-196" y="-154" type="curve"/>
      <point x="-315" y="-385" type="line"/>
      <point x="-281" y="-417"/>
      <point x="-172" y="-465"/>
      <point x="-79" y="-465" type="curve" smooth="yes"/>
      <point x="210" y="-465"/>
      <point x="371" y="-311"/>
      <point x="453" y="15" type="curve" smooth="yes"/>
      <point x="585" y="538"/>
      <point x="646" y="948"/>
      <point x="695" y="1147" type="curve" smooth="yes"/>
      <point x="736" y="1309"/>
      <point x="794" y="1373"/>
      <point x="890" y="1373" type="curve" smooth="yes"/>
      <point x="939" y="1373"/>
      <point x="1001" y="1348"/>
      <point x="1034" y="1309" type="curve"/>
    </contour>
  </outline>
</glyph>
<glyph name="LtnCapGHook" format="2">
  <advance width="1452"/>
  <unicode hex="0193"/>
  <anchor x="760" y="-100" name="L"/>
  <anchor x="1052" y="1530" name="U"/>
  <outline>
    <contour>
      <point x="768" y="-25" type="curve" smooth="yes"/>
      <point x="940" y="-25"/>
      <point x="1105" y="10"/>
      <point x="1325" y="133" type="curve"/>
      <point x="1480" y="767" type="line"/>
      <point x="910" y="767" type="line"/>
      <point x="855" y="544" type="line"/>
      <point x="1170" y="544" type="line"/>
      <point x="1104" y="271" type="line"/>
      <point x="1015" y="231"/>
      <point x="916" y="218"/>
      <point x="805" y="218" type="curve" smooth="yes"/>
      <point x="593" y="218"/>
      <point x="475" y="352"/>
      <point x="475" y="567" type="curve" smooth="yes"/>
      <point x="475" y="633"/>
      <point x="484" y="708"/>
      <point x="505" y="789" type="curve" smooth="yes"/>
      <point x="581" y="1079"/>
      <point x="802" y="1230"/>
      <point x="1067" y="1230" type="curve" smooth="yes"/>
      <point x="1198" y="1230"/>
      <point x="1345" y="1186"/>
      <point x="1419" y="1117" type="curve"/>
      <point x="1481" y="1370" type="line"/>
      <point x="1374" y="1437"/>
      <point x="1268" y="1470"/>
      <point x="1094" y="1470" type="curve" smooth="yes"/>
      <point x="709" y="1470"/>
      <point x="345" y="1257"/>
      <point x="227" y="783" type="curve" smooth="yes"/>
      <point x="205" y="694"/>
      <point x="194" y="611"/>
      <point x="194" y="534" type="curve" smooth="yes"/>
      <point x="194" y="176"/>
      <point x="419" y="-25"/>
    </contour>
    <contour>
      <point x="1459" y="1277" type="line"/>
      <point x="1513" y="1494" type="line" smooth="yes"/>
      <point x="1537" y="1589"/>
      <point x="1601" y="1640"/>
      <point x="1667" y="1640" type="curve" smooth="yes"/>
      <point x="1716" y="1640"/>
      <point x="1768" y="1616"/>
      <point x="1802" y="1576" type="curve"/>
      <point x="1877" y="1772" type="line"/>
      <point x="1838" y="1810"/>
      <point x="1756" y="1831"/>
      <point x="1682" y="1831" type="curve" smooth="yes"/>
      <point x="1515" y="1831"/>
      <point x="1369" y="1721"/>
      <point x="1317" y="1511" type="curve" smooth="yes"/>
      <point x="1275" y="1341" type="line"/>
    </contour>
  </outline>
</glyph>
<glyph name="LtnCapGamma" format="2">
  <advance width="1405"/>
  <unicode hex="0194"/>
  <anchor x="645" y="-100" name="L"/>
  <anchor x="1022" y="1530" name="U"/>
  <outline>
    <contour>
      <point x="1345" y="1445" type="line"/>
      <point x="1227" y="1297"/>
      <point x="875" y="931"/>
      <point x="732" y="789" type="curve" smooth="yes"/>
      <point x="518" y="577"/>
      <point x="345" y="463"/>
      <point x="345" y="277" type="curve" smooth="yes"/>
      <point x="345" y="113"/>
      <point x="485" y="-25"/>
      <point x="663" y="-25" type="curve" smooth="yes"/>
      <point x="883" y="-25"/>
      <point x="1090" y="117"/>
      <point x="1090" y="338" type="curve" smooth="yes"/>
      <point x="1090" y="467"/>
      <point x="1008" y="609"/>
      <point x="918" y="792" type="curve" smooth="yes"/>
      <point x="851" y="928"/>
      <point x="697" y="1259"/>
      <point x="645" y="1445" type="curve"/>
      <point x="325" y="1445" type="line"/>
      <point x="425" y="1180"/>
      <point x="606" y="773"/>
      <point x="679" y="643" type="curve" smooth="yes"/>
      <point x="768" y="484"/>
      <point x="814" y="394"/>
      <point x="814" y="319" type="curve" smooth="yes"/>
      <point x="814" y="241"/>
      <point x="761" y="208"/>
      <point x="701" y="208" type="curve" smooth="yes"/>
      <point x="650" y="208"/>
      <point x="620" y="249"/>
      <point x="620" y="303" type="curve" smooth="yes"/>
      <point x="620" y="393"/>
      <point x="722" y="460"/>
      <point x="918" y="641" type="curve" smooth="yes"/>
      <point x="1046" y="760"/>
      <point x="1426" y="1156"/>
      <point x="1680" y="1445" type="curve"/>
    </contour>
  </outline>
</glyph>
<glyph name="LtnCapIota" format="2">
  <advance width="855"/>
  <unicode hex="0196"/>
  <anchor x="355" y="-100" name="L"/>
  <anchor x="622" y="1530" name="U"/>
  <outline>
    <contour>
      <point x="756" y="1450" type="line"/>
      <point x="456" y="1450" type="line"/>
      <point x="443" y="1346"/>
      <point x="398" y="1158"/>
      <point x="350" y="965" type="curve" smooth="yes"/>
      <point x="224" y="459" type="line" smooth="yes"/>
      <point x="210" y="404"/>
      <point x="203" y="351"/>
      <point x="203" y="302" type="curve" smooth="yes"/>
      <point x="203" y="111"/>
      <point x="317" y="-25"/>
      <point x="522" y="-25" type="curve" smooth="yes"/>
      <point x="637" y="-25"/>
      <point x="765" y="16"/>
      <point x="823" y="55" type="curve"/>
      <point x="864" y="327" type="line"/>
      <point x="809" y="282"/>
      <point x="701" y="222"/>
      <point x="630" y="222" type="curve" smooth="yes"/>
      <point x="542" y="222"/>
      <point x="496" y="272"/>
      <point x="496" y="355" type="curve" smooth="yes"/>
      <point x="496" y="393"/>
      <point x="503" y="439"/>
      <point x="517" y="493" type="curve" smooth="yes"/>
    </contour>
  </outline>
</glyph>
<glyph name="LtnCapIStrk" format="2">
  <advance width="1015"/>
  <unicode hex="0197"/>
  <anchor x="422" y="-100" name="L"/>
  <anchor x="829" y="1530" name="U"/>
  <outline>
    <contour>
      <point x="430" y="1445" type="line"/>
      <point x="379" y="1242" type="line"/>
      <point x="619" y="1242" type="line"/>
      <point x="360" y="203" type="line"/>
      <point x="120" y="203" type="line"/>
      <point x="70" y="0" type="line"/>
      <point x="835" y="0" type="line"/>
      <point x="885" y="203" type="line"/>
      <point x="645" y="203" type="line"/>
      <point x="904" y="1242" type="line"/>
      <point x="1144" y="1242" type="line"/>
      <point x="1195" y="1445" type="line"/>
    </contour>
    <contour>
      <point x="274" y="843" type="line"/>
      <point x="223" y="641" type="line"/>
      <point x="998" y="641" type="line"/>
      <point x="1049" y="843" type="line"/>
    </contour>
  </outline>
</glyph>
<glyph name="LtnSmKHook" format="2">
  <advance width="1209"/>
  <unicode hex="0199"/>
  <anchor x="600" y="-100" name="L"/>
  <anchor x="943" y="1635" name="U"/>
  <outline>
    <contour>
      <point x="115" y="0" type="line"/>
      <point x="394" y="0" type="line"/>
      <point x="658" y="1059" type="line" smooth="yes"/>
      <point x="702" y="1235"/>
      <point x="778" y="1371"/>
      <point x="950" y="1371" type="curve" smooth="yes"/>
      <point x="1035" y="1371"/>
      <point x="1096" y="1352"/>
      <point x="1168" y="1312" type="curve"/>
      <point x="1314" y="1528" type="line"/>
      <point x="1216" y="1583"/>
      <point x="1118" y="1604"/>
      <point x="1023" y="1604" type="curve" smooth="yes"/>
      <point x="671" y="1604"/>
      <point x="461" y="1393"/>
      <point x="373" y="1039" type="curve" smooth="yes"/>
    </contour>
    <contour>
      <point x="964" y="1010" type="line"/>
      <point x="920" y="864"/>
      <point x="682" y="702"/>
      <point x="483" y="576" type="curve"/>
      <point x="674" y="518" type="line"/>
      <point x="988" y="700"/>
      <point x="1289" y="883"/>
      <point x="1289" y="1010" type="curve"/>
    </contour>
    <contour>
      <point x="1168" y="0" type="line"/>
      <point x="1141" y="47"/>
      <point x="1114" y="95"/>
      <point x="1088" y="142" type="curve" smooth="yes"/>
      <point x="948" y="394"/>
      <point x="821" y="620"/>
      <point x="633" y="620" type="curve"/>
      <point x="442" y="529" type="line"/>
      <point x="602" y="529"/>
      <point x="722" y="252"/>
      <point x="831" y="0" type="curve"/>
    </contour>
  </outline>
</glyph>
<glyph name="LtnSmLBar" format="2">
  <advance width="828"/>
  <unicode hex="019A"/>
  <anchor x="430" y="-100" name="L"/>
  <anchor x="725" y="1635" name="U"/>
  <outline>
    <contour>
      <point x="277" y="0" type="curve"/>
      <point x="567" y="0" type="line"/>
      <point x="561" y="39"/>
      <point x="558" y="80"/>
      <point x="558" y="121" type="curve" smooth="yes"/>
      <point x="558" y="277"/>
      <point x="595" y="434"/>
      <point x="615" y="515" type="curve" smooth="yes"/>
      <point x="759" y="1095" type="line" smooth="yes"/>
      <point x="799" y="1255"/>
      <point x="838" y="1474"/>
      <point x="838" y="1585" type="curve"/>
      <point x="558" y="1585" type="line"/>
      <point x="558" y="1439"/>
      <point x="517" y="1242"/>
      <point x="480" y="1095" type="curve" smooth="yes"/>
      <point x="329" y="488" type="line" smooth="yes"/>
      <point x="305" y="394"/>
      <point x="272" y="269"/>
      <point x="272" y="116" type="curve" smooth="yes"/>
      <point x="272" y="89"/>
      <point x="275" y="30"/>
    </contour>
    <contour>
      <point x="158" y="728" type="line"/>
      <point x="903" y="728" type="line"/>
      <point x="954" y="931" type="line"/>
      <point x="209" y="931" type="line"/>
    </contour>
  </outline>
</glyph>
<glyph name="LtnSmLambdaStrk" format="2">
  <advance width="1243"/>
  <unicode hex="019B"/>
  <anchor x="555" y="-100" name="L"/>
  <anchor x="900" y="1635" name="U"/>
  <outline>
    <contour>
      <point x="1112" y="-15" type="curve"/>
      <point x="1207" y="217" type="line"/>
      <point x="1091" y="217"/>
      <point x="1044" y="230"/>
      <point x="1025" y="483" type="curve" smooth="yes"/>
      <point x="1014" y="628"/>
      <point x="988" y="1004"/>
      <point x="977" y="1143" type="curve" smooth="yes"/>
      <point x="951" y="1466"/>
      <point x="824" y="1525"/>
      <point x="649" y="1525" type="curve" smooth="yes"/>
      <point x="556" y="1525"/>
      <point x="492" y="1504"/>
      <point x="426" y="1468" type="curve"/>
      <point x="452" y="1241" type="line"/>
      <point x="512" y="1275"/>
      <point x="550" y="1292"/>
      <point x="599" y="1292" type="curve" smooth="yes"/>
      <point x="681" y="1292"/>
      <point x="739" y="1245"/>
      <point x="748" y="1035" type="curve" smooth="yes"/>
      <point x="756" y="857"/>
      <point x="785" y="496"/>
      <point x="798" y="315" type="curve" smooth="yes"/>
      <point x="819" y="14"/>
      <point x="962" y="-15"/>
    </contour>
    <contour>
      <point x="-30" y="0" type="curve"/>
      <point x="270" y="0" type="line"/>
      <point x="899" y="802" type="line"/>
      <point x="798" y="1015" type="line"/>
      <point x="272" y="351" type="line" smooth="yes"/>
      <point x="198" y="257"/>
      <point x="25" y="52"/>
    </contour>
    <contour>
      <point x="554" y="900" type="line"/>
      <point x="1249" y="1304" type="line"/>
      <point x="1178" y="1464" type="line"/>
      <point x="481" y="1061" type="line"/>
    </contour>
  </outline>
</glyph>
<glyph name="LtnCapTrndM" format="2">
  <advance width="2166"/>
  <unicode hex="019C"/>
  <anchor x="965" y="-100" name="L"/>
  <anchor x="1372" y="1530" name="U"/>
  <outline>
    <contour>
      <point x="386" y="1445" type="line"/>
      <point x="391" y="1403"/>
      <point x="394" y="1359"/>
      <point x="394" y="1316" type="curve" smooth="yes"/>
      <point x="394" y="1250"/>
      <point x="389" y="1186"/>
      <point x="381" y="1118" type="curve" smooth="yes"/>
      <point x="364" y="968"/>
      <point x="208" y="459"/>
      <point x="208" y="242" type="curve" smooth="yes"/>
      <point x="208" y="77"/>
      <point x="314" y="-25"/>
      <point x="466" y="-25" type="curve" smooth="yes"/>
      <point x="634" y="-25"/>
      <point x="866" y="162"/>
      <point x="998" y="366" type="curve"/>
      <point x="992" y="319"/>
      <point x="990" y="298"/>
      <point x="990" y="256" type="curve" smooth="yes"/>
      <point x="990" y="57"/>
      <point x="1109" y="-25"/>
      <point x="1252" y="-25" type="curve" smooth="yes"/>
      <point x="1386" y="-25"/>
      <point x="1593" y="122"/>
      <point x="1718" y="362" type="curve"/>
      <point x="1700" y="183"/>
      <point x="1696" y="142"/>
      <point x="1696" y="79" type="curve" smooth="yes"/>
      <point x="1696" y="42"/>
      <point x="1698" y="17"/>
      <point x="1702" y="0" type="curve"/>
      <point x="1998" y="0" type="line"/>
      <point x="1996" y="16"/>
      <point x="1995" y="50"/>
      <point x="1995" y="97" type="curve" smooth="yes"/>
      <point x="1995" y="222"/>
      <point x="2010" y="390"/>
      <point x="2042" y="534" type="curve" smooth="yes"/>
      <point x="2245" y="1445" type="line"/>
      <point x="1962" y="1445" type="line"/>
      <point x="1841" y="915" type="line"/>
      <point x="1746" y="596"/>
      <point x="1474" y="242"/>
      <point x="1373" y="242" type="curve" smooth="yes"/>
      <point x="1304" y="242"/>
      <point x="1281" y="325"/>
      <point x="1281" y="401" type="curve" smooth="yes"/>
      <point x="1281" y="511"/>
      <point x="1324" y="670"/>
      <point x="1344" y="754" type="curve" smooth="yes"/>
      <point x="1506" y="1445" type="line"/>
      <point x="1218" y="1445" type="line"/>
      <point x="1094" y="915" type="line"/>
      <point x="990" y="561"/>
      <point x="701" y="242"/>
      <point x="589" y="242" type="curve" smooth="yes"/>
      <point x="528" y="242"/>
      <point x="507" y="295"/>
      <point x="507" y="375" type="curve" smooth="yes"/>
      <point x="507" y="538"/>
      <point x="648" y="971"/>
      <point x="671" y="1151" type="curve" smooth="yes"/>
      <point x="678" y="1204"/>
      <point x="681" y="1256"/>
      <point x="681" y="1309" type="curve" smooth="yes"/>
      <point x="681" y="1354"/>
      <point x="679" y="1400"/>
      <point x="672" y="1445" type="curve"/>
    </contour>
  </outline>
</glyph>
<glyph name="LtnCapNLftHook" format="2">
  <advance width="1525"/>
  <unicode hex="019D"/>
  <anchor x="528" y="-500" name="L"/>
  <anchor x="1082" y="1530" name="U"/>
  <outline>
    <contour>
      <point x="-150" y="-465" type="curve" smooth="yes"/>
      <point x="109" y="-465"/>
      <point x="291" y="-293"/>
      <point x="387" y="89" type="curve" smooth="yes"/>
      <point x="725" y="1445" type="line"/>
      <point x="440" y="1445" type="line"/>
      <point x="434" y="1366"/>
      <point x="396" y="1210"/>
      <point x="348" y="1015" type="curve" smooth="yes"/>
      <point x="318" y="894"/>
      <point x="159" y="250"/>
      <point x="113" y="78" type="curve" smooth="yes"/>
      <point x="52" y="-149"/>
      <point x="-31" y="-216"/>
      <point x="-114" y="-216" type="curve" smooth="yes"/>
      <point x="-174" y="-216"/>
      <point x="-225" y="-184"/>
      <point x="-260" y="-153" type="curve"/>
      <point x="-376" y="-373" type="line"/>
      <point x="-322" y="-429"/>
      <point x="-235" y="-465"/>
    </contour>
    <contour>
      <point x="1035" y="0" type="line"/>
      <point x="1253" y="148" type="line"/>
      <point x="725" y="1445" type="line"/>
      <point x="506" y="1297" type="line"/>
    </contour>
    <contour>
      <point x="1035" y="0" type="line"/>
      <point x="1305" y="0" type="line"/>
      <point x="1558" y="1015" type="line" smooth="yes"/>
      <point x="1606" y="1210"/>
      <point x="1646" y="1366"/>
      <point x="1680" y="1445" type="curve"/>
      <point x="1395" y="1445" type="line"/>
    </contour>
  </outline>
</glyph>
<glyph name="LtnCapOi" format="2">
  <advance width="2010"/>
  <unicode hex="01A2"/>
  <anchor x="837" y="-100" name="L"/>
  <anchor x="1244" y="1530" name="U"/>
  <outline>
    <contour>
      <point x="693" y="-25" type="curve" smooth="yes"/>
      <point x="1121" y="-25"/>
      <point x="1519" y="337"/>
      <point x="1519" y="911" type="curve" smooth="yes"/>
      <point x="1519" y="1249"/>
      <point x="1350" y="1470"/>
      <point x="1026" y="1470" type="curve" smooth="yes"/>
      <point x="510" y="1470"/>
      <point x="191" y="1010"/>
      <point x="191" y="539" type="curve" smooth="yes"/>
      <point x="191" y="199"/>
      <point x="401" y="-25"/>
    </contour>
    <contour>
      <point x="754" y="218" type="curve" smooth="yes"/>
      <point x="580" y="218"/>
      <point x="471" y="345"/>
      <point x="471" y="568" type="curve" smooth="yes"/>
      <point x="471" y="922"/>
      <point x="664" y="1228"/>
      <point x="966" y="1228" type="curve" smooth="yes"/>
      <point x="1134" y="1228"/>
      <point x="1237" y="1106"/>
      <point x="1237" y="891" type="curve" smooth="yes"/>
      <point x="1237" y="540"/>
      <point x="1060" y="218"/>
    </contour>
    <contour>
      <point x="1374" y="-485" type="line"/>
      <point x="1679" y="-485" type="line"/>
      <point x="1694" y="-371"/>
      <point x="1738" y="-168"/>
      <point x="1786" y="25" type="curve" smooth="yes"/>
      <point x="2045" y="1064" type="line" smooth="yes"/>
      <point x="2055" y="1105"/>
      <point x="2060" y="1143"/>
      <point x="2060" y="1179" type="curve" smooth="yes"/>
      <point x="2060" y="1359"/>
      <point x="1937" y="1470"/>
      <point x="1761" y="1470" type="curve" smooth="yes"/>
      <point x="1624" y="1470"/>
      <point x="1486" y="1400"/>
      <point x="1367" y="1292" type="curve"/>
      <point x="1441" y="1089" type="line"/>
      <point x="1515" y="1179"/>
      <point x="1604" y="1237"/>
      <point x="1673" y="1237" type="curve" smooth="yes"/>
      <point x="1729" y="1237"/>
      <point x="1762" y="1191"/>
      <point x="1762" y="1114" type="curve" smooth="yes"/>
      <point x="1762" y="1087"/>
      <point x="1758" y="1056"/>
      <point x="1749" y="1021" type="curve" smooth="yes"/>
    </contour>
  </outline>
</glyph>
<glyph name="LtnCapPHook" format="2">
  <advance width="1686"/>
  <unicode hex="01A4"/>
  <anchor x="807" y="-100" name="L"/>
  <anchor x="1214" y="1530" name="U"/>
  <outline>
    <contour>
      <point x="502" y="0" type="curve"/>
      <point x="817" y="0" type="line"/>
      <point x="822" y="77"/>
      <point x="859" y="235"/>
      <point x="909" y="431" type="curve" smooth="yes"/>
      <point x="931" y="518" type="line"/>
      <point x="994" y="511"/>
      <point x="1073" y="508"/>
      <point x="1146" y="508" type="curve" smooth="yes"/>
      <point x="1530" y="508"/>
      <point x="1805" y="718"/>
      <point x="1805" y="1076" type="curve" smooth="yes"/>
      <point x="1805" y="1306"/>
      <point x="1627" y="1455"/>
      <point x="1352" y="1455" type="curve" smooth="yes"/>
      <point x="1197" y="1455"/>
      <point x="981" y="1449"/>
      <point x="862" y="1445" type="curve"/>
      <point x="857" y="1370"/>
      <point x="811" y="1184"/>
      <point x="763" y="990" type="curve" smooth="yes"/>
      <point x="624" y="431" type="line" smooth="yes"/>
      <point x="576" y="237"/>
      <point x="536" y="79"/>
    </contour>
    <contour>
      <point x="239" y="783" type="curve"/>
      <point x="486" y="830" type="line"/>
      <point x="479" y="856"/>
      <point x="474" y="887"/>
      <point x="474" y="922" type="curve" smooth="yes"/>
      <point x="474" y="1137"/>
      <point x="588" y="1223"/>
      <point x="825" y="1223" type="curve" smooth="yes"/>
      <point x="850" y="1223"/>
      <point x="899" y="1219"/>
      <point x="927" y="1215" type="curve"/>
      <point x="1068" y="1445" type="line"/>
      <point x="891" y="1445" type="line" smooth="yes"/>
      <point x="500" y="1445"/>
      <point x="227" y="1285"/>
      <point x="227" y="907" type="curve" smooth="yes"/>
      <point x="227" y="859"/>
      <point x="231" y="811"/>
    </contour>
    <contour>
      <point x="1170" y="723" type="curve" smooth="yes"/>
      <point x="1108" y="723"/>
      <point x="1026" y="726"/>
      <point x="984" y="733" type="curve"/>
      <point x="1108" y="1228" type="line"/>
      <point x="1159" y="1231"/>
      <point x="1193" y="1233"/>
      <point x="1261" y="1233" type="curve" smooth="yes"/>
      <point x="1432" y="1233"/>
      <point x="1515" y="1135"/>
      <point x="1515" y="1020" type="curve" smooth="yes"/>
      <point x="1515" y="827"/>
      <point x="1377" y="723"/>
    </contour>
  </outline>
</glyph>
<glyph name="LtnSmPHook" format="2">
  <advance width="1215"/>
  <unicode hex="01A5"/>
  <anchor x="705" y="-100" name="L"/>
  <anchor x="963" y="1635" name="U"/>
  <outline>
    <contour>
      <point x="-10" y="-485" type="curve"/>
      <point x="279" y="-485" type="line"/>
      <point x="279" y="-393"/>
      <point x="293" y="-287"/>
      <point x="327" y="-149" type="curve" smooth="yes"/>
      <point x="380" y="64" type="line"/>
      <point x="460" y="10"/>
      <point x="527" y="-25"/>
      <point x="632" y="-25" type="curve" smooth="yes"/>
      <point x="715" y="-25"/>
      <point x="798" y="-2"/>
      <point x="874" y="40" type="curve" smooth="yes"/>
      <point x="1077" y="152"/>
      <point x="1232" y="398"/>
      <point x="1232" y="685" type="curve" smooth="yes"/>
      <point x="1232" y="884"/>
      <point x="1141" y="1030"/>
      <point x="969" y="1030" type="curve" smooth="yes"/>
      <point x="814" y="1030"/>
      <point x="683" y="931"/>
      <point x="561" y="792" type="curve"/>
      <point x="647" y="1111" type="line" smooth="yes"/>
      <point x="693" y="1283"/>
      <point x="788" y="1314"/>
      <point x="854" y="1314" type="curve" smooth="yes"/>
      <point x="902" y="1314"/>
      <point x="970" y="1294"/>
      <point x="1015" y="1254" type="curve"/>
      <point x="1128" y="1476" type="line"/>
      <point x="1048" y="1527"/>
      <point x="962" y="1554"/>
      <point x="878" y="1554" type="curve" smooth="yes"/>
      <point x="684" y="1554"/>
      <point x="444" y="1438"/>
      <point x="357" y="1089" type="curve" smooth="yes"/>
      <point x="40" y="-180" type="line" smooth="yes"/>
      <point x="13" y="-286"/>
      <point x="-10" y="-403"/>
    </contour>
    <contour>
      <point x="623" y="204" type="curve" smooth="yes"/>
      <point x="554" y="204"/>
      <point x="482" y="243"/>
      <point x="438" y="297" type="curve"/>
      <point x="488" y="500" type="line"/>
      <point x="570" y="650"/>
      <point x="730" y="794"/>
      <point x="819" y="794" type="curve" smooth="yes"/>
      <point x="897" y="794"/>
      <point x="940" y="719"/>
      <point x="940" y="609" type="curve" smooth="yes"/>
      <point x="940" y="478"/>
      <point x="889" y="334"/>
      <point x="788" y="258" type="curve" smooth="yes"/>
      <point x="743" y="224"/>
      <point x="688" y="204"/>
    </contour>
  </outline>
</glyph>
<glyph name="LtnCapTnTwo" format="2">
  <advance width="1170"/>
  <unicode hex="01A7"/>
  <anchor x="525" y="-100" name="L"/>
  <anchor x="900" y="1530" name="U"/>
  <outline>
    <contour>
      <point x="1089" y="381" type="line"/>
      <point x="929" y="267"/>
      <point x="797" y="218"/>
      <point x="639" y="218" type="curve" smooth="yes"/>
      <point x="527" y="218"/>
      <point x="403" y="271"/>
      <point x="403" y="375" type="curve" smooth="yes"/>
      <point x="403" y="528"/>
      <point x="598" y="576"/>
      <point x="778" y="645" type="curve" smooth="yes"/>
      <point x="1047" y="748"/>
      <point x="1283" y="857"/>
      <point x="1283" y="1138" type="curve" smooth="yes"/>
      <point x="1283" y="1299"/>
      <point x="1141" y="1470"/>
      <point x="846" y="1470" type="curve" smooth="yes"/>
      <point x="692" y="1470"/>
      <point x="579" y="1443"/>
      <point x="434" y="1381" type="curve"/>
      <point x="443" y="1119" type="line"/>
      <point x="596" y="1197"/>
      <point x="668" y="1228"/>
      <point x="796" y="1228" type="curve" smooth="yes"/>
      <point x="901" y="1228"/>
      <point x="994" y="1168"/>
      <point x="994" y="1087" type="curve" smooth="yes"/>
      <point x="994" y="938"/>
      <point x="780" y="881"/>
      <point x="611" y="818" type="curve" smooth="yes"/>
      <point x="365" y="726"/>
      <point x="116" y="614"/>
      <point x="116" y="333" type="curve" smooth="yes"/>
      <point x="116" y="114"/>
      <point x="315" y="-25"/>
      <point x="573" y="-25" type="curve" smooth="yes"/>
      <point x="788" y="-25"/>
      <point x="975" y="31"/>
      <point x="1097" y="109" type="curve"/>
    </contour>
  </outline>
</glyph>
<glyph name="LtnSmTnTwo" format="2">
  <advance width="1005"/>
  <unicode hex="01A8"/>
  <anchor x="440" y="-100" name="L"/>
  <anchor x="740" y="1100" name="U"/>
  <outline>
    <contour>
      <point x="339" y="738" type="line"/>
      <point x="466" y="792"/>
      <point x="526" y="812"/>
      <point x="627" y="812" type="curve" smooth="yes"/>
      <point x="728" y="812"/>
      <point x="773" y="781"/>
      <point x="773" y="740" type="curve" smooth="yes"/>
      <point x="773" y="675"/>
      <point x="713" y="657"/>
      <point x="541" y="609" type="curve" smooth="yes"/>
      <point x="339" y="553"/>
      <point x="113" y="476"/>
      <point x="113" y="247" type="curve" smooth="yes"/>
      <point x="113" y="84"/>
      <point x="253" y="-25"/>
      <point x="493" y="-25" type="curve" smooth="yes"/>
      <point x="647" y="-25"/>
      <point x="819" y="25"/>
      <point x="914" y="79" type="curve"/>
      <point x="904" y="317" type="line"/>
      <point x="779" y="237"/>
      <point x="667" y="198"/>
      <point x="549" y="198" type="curve" smooth="yes"/>
      <point x="469" y="198"/>
      <point x="385" y="233"/>
      <point x="385" y="283" type="curve" smooth="yes"/>
      <point x="385" y="344"/>
      <point x="449" y="382"/>
      <point x="667" y="443" type="curve" smooth="yes"/>
      <point x="843" y="492"/>
      <point x="1046" y="573"/>
      <point x="1046" y="773" type="curve" smooth="yes"/>
      <point x="1046" y="902"/>
      <point x="950" y="1030"/>
      <point x="681" y="1030" type="curve" smooth="yes"/>
      <point x="559" y="1030"/>
      <point x="454" y="1009"/>
      <point x="340" y="965" type="curve"/>
    </contour>
  </outline>
</glyph>
<glyph name="LtnCapEsh" format="2">
  <advance width="1230"/>
  <unicode hex="01A9"/>
  <anchor x="505" y="-100" name="L"/>
  <anchor x="912" y="1530" name="U"/>
  <outline>
    <contour>
      <point x="891" y="739" type="line"/>
      <point x="670" y="1218" type="line"/>
      <point x="913" y="1218" type="line" smooth="yes"/>
      <point x="1130" y="1218"/>
      <point x="1259" y="1215"/>
      <point x="1343" y="1198" type="curve"/>
      <point x="1405" y="1445" type="line"/>
      <point x="395" y="1445" type="line"/>
      <point x="352" y="1272" type="line"/>
      <point x="587" y="738" type="line"/>
      <point x="44" y="158" type="line"/>
      <point x="5" y="0" type="line"/>
      <point x="1105" y="0" type="line"/>
      <point x="1166" y="247" type="line"/>
      <point x="1083" y="234"/>
      <point x="922" y="228"/>
      <point x="726" y="228" type="curve" smooth="yes"/>
      <point x="401" y="228" type="line"/>
    </contour>
  </outline>
</glyph>
<glyph name="LtnRevEshLoop" format="2">
  <advance width="981"/>
  <unicode hex="01AA"/>
  <anchor x="320" y="-500" name="L"/>
  <anchor x="736" y="1635" name="U"/>
  <outline>
    <contour>
      <point x="940" y="-135" type="line"/>
      <point x="888" y="-172"/>
      <point x="813" y="-224"/>
      <point x="737" y="-224" type="curve" smooth="yes"/>
      <point x="662" y="-224"/>
      <point x="636" y="-159"/>
      <point x="636" y="-84" type="curve" smooth="yes"/>
      <point x="636" y="-49"/>
      <point x="641" y="-12"/>
      <point x="650" y="22" type="curve" smooth="yes"/>
      <point x="687" y="170"/>
      <point x="969" y="953"/>
      <point x="998" y="1160" type="curve" smooth="yes"/>
      <point x="1002" y="1187"/>
      <point x="1004" y="1254"/>
      <point x="1004" y="1280" type="curve" smooth="yes"/>
      <point x="1004" y="1457"/>
      <point x="894" y="1604"/>
      <point x="690" y="1604" type="curve" smooth="yes"/>
      <point x="408" y="1604"/>
      <point x="218" y="1386"/>
      <point x="218" y="1128" type="curve" smooth="yes"/>
      <point x="218" y="943"/>
      <point x="339" y="813"/>
      <point x="508" y="813" type="curve" smooth="yes"/>
      <point x="545" y="813"/>
      <point x="614" y="844"/>
      <point x="636" y="858" type="curve"/>
      <point x="545" y="533"/>
      <point x="420" y="192"/>
      <point x="380" y="47" type="curve" smooth="yes"/>
      <point x="367" y="0"/>
      <point x="360" y="-52"/>
      <point x="360" y="-103" type="curve" smooth="yes"/>
      <point x="360" y="-284"/>
      <point x="448" y="-465"/>
      <point x="689" y="-465" type="curve" smooth="yes"/>
      <point x="786" y="-465"/>
      <point x="895" y="-411"/>
      <point x="948" y="-375" type="curve"/>
    </contour>
    <contour>
      <point x="574" y="1038" type="curve" smooth="yes"/>
      <point x="505" y="1038"/>
      <point x="464" y="1101"/>
      <point x="464" y="1178" type="curve" smooth="yes"/>
      <point x="464" y="1284"/>
      <point x="532" y="1378"/>
      <point x="639" y="1378" type="curve" smooth="yes"/>
      <point x="706" y="1378"/>
      <point x="756" y="1324"/>
      <point x="756" y="1245" type="curve" smooth="yes"/>
      <point x="756" y="1143"/>
      <point x="678" y="1038"/>
    </contour>
  </outline>
</glyph>
<glyph name="LtnSmTPalHook" format="2">
  <advance width="865"/>
  <unicode hex="01AB"/>
  <anchor x="315" y="-500" name="L"/>
  <anchor x="640" y="1360" name="U"/>
  <outline>
    <contour>
      <point x="518" y="-25" type="curve" smooth="yes"/>
      <point x="590" y="-25"/>
      <point x="692" y="-3"/>
      <point x="769" y="34" type="curve"/>
      <point x="831" y="278" type="line"/>
      <point x="740" y="230"/>
      <point x="670" y="204"/>
      <point x="619" y="204" type="curve" smooth="yes"/>
      <point x="556" y="204"/>
      <point x="536" y="250"/>
      <point x="536" y="318" type="curve" smooth="yes"/>
      <point x="536" y="347"/>
      <point x="539" y="380"/>
      <point x="545" y="415" type="curve" smooth="yes"/>
      <point x="567" y="549"/>
      <point x="696" y="1039"/>
      <point x="767" y="1307" type="curve"/>
      <point x="487" y="1307" type="line"/>
      <point x="415" y="1038"/>
      <point x="265" y="471"/>
      <point x="243" y="328" type="curve" smooth="yes"/>
      <point x="239" y="302"/>
      <point x="237" y="277"/>
      <point x="237" y="253" type="curve" smooth="yes"/>
      <point x="237" y="73"/>
      <point x="351" y="-25"/>
    </contour>
    <contour>
      <point x="170" y="797" type="line"/>
      <point x="945" y="797" type="line"/>
      <point x="995" y="995" type="line"/>
      <point x="220" y="995" type="line"/>
    </contour>
    <contour>
      <point x="205" y="-400" type="line"/>
      <point x="241" y="-427"/>
      <point x="325" y="-465"/>
      <point x="394" y="-465" type="curve" smooth="yes"/>
      <point x="544" y="-465"/>
      <point x="660" y="-390"/>
      <point x="701" y="-229" type="curve" smooth="yes"/>
      <point x="831" y="278" type="line"/>
      <point x="572" y="50" type="line"/>
      <point x="512" y="-188" type="line" smooth="yes"/>
      <point x="493" y="-263"/>
      <point x="449" y="-292"/>
      <point x="392" y="-292" type="curve" smooth="yes"/>
      <point x="336" y="-292"/>
      <point x="308" y="-268"/>
      <point x="273" y="-237" type="curve"/>
    </contour>
  </outline>
</glyph>
<glyph name="LtnCapTHook" format="2">
  <advance width="1432"/>
  <unicode hex="01AC"/>
  <anchor x="728" y="-100" name="L"/>
  <anchor x="1135" y="1530" name="U"/>
  <outline>
    <contour>
      <point x="595" y="0" type="curve"/>
      <point x="920" y="0" type="line"/>
      <point x="921" y="75"/>
      <point x="955" y="224"/>
      <point x="1001" y="409" type="curve" smooth="yes"/>
      <point x="1203" y="1218" type="line"/>
      <point x="1419" y="1218" type="line" smooth="yes"/>
      <point x="1500" y="1218"/>
      <point x="1577" y="1215"/>
      <point x="1645" y="1198" type="curve"/>
      <point x="1707" y="1445" type="line"/>
      <point x="733" y="1445" type="line" smooth="yes"/>
      <point x="472" y="1445"/>
      <point x="252" y="1293"/>
      <point x="252" y="1037" type="curve" smooth="yes"/>
      <point x="252" y="965"/>
      <point x="269" y="889"/>
      <point x="293" y="846" type="curve"/>
      <point x="525" y="931" type="line"/>
      <point x="502" y="963"/>
      <point x="492" y="1000"/>
      <point x="492" y="1041" type="curve" smooth="yes"/>
      <point x="492" y="1171"/>
      <point x="576" y="1218"/>
      <point x="696" y="1218" type="curve" smooth="yes"/>
      <point x="918" y="1218" type="line"/>
      <point x="716" y="409" type="line" smooth="yes"/>
      <point x="670" y="224"/>
      <point x="630" y="75"/>
    </contour>
  </outline>
</glyph>
<glyph name="LtnSmTHook" format="2">
  <advance width="900"/>
  <unicode hex="01AD"/>
  <anchor x="445" y="-100" name="L"/>
  <anchor x="878" y="1635" name="U"/>
  <outline>
    <contour>
      <point x="518" y="-25" type="curve" smooth="yes"/>
      <point x="590" y="-25"/>
      <point x="703" y="-4"/>
      <point x="812" y="55" type="curve"/>
      <point x="831" y="278" type="line"/>
      <point x="740" y="230"/>
      <point x="670" y="204"/>
      <point x="619" y="204" type="curve" smooth="yes"/>
      <point x="556" y="204"/>
      <point x="536" y="250"/>
      <point x="536" y="318" type="curve" smooth="yes"/>
      <point x="536" y="347"/>
      <point x="539" y="380"/>
      <point x="545" y="415" type="curve" smooth="yes"/>
      <point x="567" y="549"/>
      <point x="652" y="844"/>
      <point x="718" y="1111" type="curve" smooth="yes"/>
      <point x="760" y="1284"/>
      <point x="819" y="1314"/>
      <point x="885" y="1314" type="curve" smooth="yes"/>
      <point x="933" y="1314"/>
      <point x="991" y="1294"/>
      <point x="1036" y="1254" type="curve"/>
      <point x="1149" y="1476" type="line"/>
      <point x="1069" y="1527"/>
      <point x="993" y="1554"/>
      <point x="909" y="1554" type="curve" smooth="yes"/>
      <point x="715" y="1554"/>
      <point x="523" y="1475"/>
      <point x="439" y="1125" type="curve" smooth="yes"/>
      <point x="374" y="855"/>
      <point x="265" y="471"/>
      <point x="243" y="328" type="curve" smooth="yes"/>
      <point x="239" y="302"/>
      <point x="237" y="277"/>
      <point x="237" y="253" type="curve" smooth="yes"/>
      <point x="237" y="73"/>
      <point x="351" y="-25"/>
    </contour>
    <contour>
      <point x="170" y="797" type="line"/>
      <point x="945" y="797" type="line"/>
      <point x="995" y="995" type="line"/>
      <point x="220" y="995" type="line"/>
    </contour>
  </outline>
</glyph>
<glyph name="LtnSmUHorn" format="2">
  <advance width="1557"/>
  <unicode hex="01B0"/>
  <anchor x="517" y="-100" name="L"/>
  <anchor x="815" y="1100" name="U"/>
  <outline>
    <contour>
      <point x="381" y="-25" type="curve" smooth="yes"/>
      <point x="545" y="-25"/>
      <point x="779" y="160"/>
      <point x="870" y="295" type="curve"/>
      <point x="853" y="207"/>
      <point x="842" y="43"/>
      <point x="842" y="0" type="curve"/>
      <point x="1117" y="0" type="line"/>
      <point x="1113" y="29"/>
      <point x="1112" y="62"/>
      <point x="1112" y="100" type="curve" smooth="yes"/>
      <point x="1112" y="206"/>
      <point x="1131" y="341"/>
      <point x="1157" y="455" type="curve" smooth="yes"/>
      <point x="1212" y="689"/>
      <point x="1274" y="905"/>
      <point x="1282" y="1010" type="curve"/>
      <point x="993" y="1010" type="line"/>
      <point x="981" y="889"/>
      <point x="992" y="918"/>
      <point x="910" y="595" type="curve"/>
      <point x="835" y="427"/>
      <point x="618" y="205"/>
      <point x="537" y="205" type="curve" smooth="yes"/>
      <point x="491" y="205"/>
      <point x="462" y="236"/>
      <point x="462" y="308" type="curve" smooth="yes"/>
      <point x="462" y="405"/>
      <point x="536" y="663"/>
      <point x="549" y="712" type="curve" smooth="yes"/>
      <point x="583" y="847"/>
      <point x="605" y="935"/>
      <point x="610" y="1010" type="curve"/>
      <point x="323" y="1010" type="line"/>
      <point x="312" y="891"/>
      <point x="296" y="819"/>
      <point x="264" y="693" type="curve" smooth="yes"/>
      <point x="191" y="401" type="line" smooth="yes"/>
      <point x="173" y="330"/>
      <point x="165" y="267"/>
      <point x="165" y="214" type="curve" smooth="yes"/>
      <point x="165" y="55"/>
      <point x="252" y="-25"/>
    </contour>
    <contour>
      <point x="1186" y="620" type="line"/>
      <point x="1490" y="702"/>
      <point x="1752" y="925"/>
      <point x="1752" y="1158" type="curve" smooth="yes"/>
      <point x="1752" y="1256"/>
      <point x="1704" y="1336"/>
      <point x="1590" y="1336" type="curve" smooth="yes"/>
      <point x="1467" y="1336"/>
      <point x="1409" y="1252"/>
      <point x="1390" y="1177" type="curve"/>
      <point x="1360" y="1059" type="line"/>
      <point x="1530" y="1059" type="line"/>
      <point x="1504" y="952"/>
      <point x="1392" y="821"/>
      <point x="1225" y="766" type="curve"/>
    </contour>
  </outline>
</glyph>
<glyph name="LtnCapUpsilon" format="2">
  <advance width="1551"/>
  <unicode hex="01B1"/>
  <anchor x="736" y="-100" name="L"/>
  <anchor x="1093" y="1530" name="U"/>
  <outline>
    <contour>
      <point x="727" y="-25" type="curve" smooth="yes"/>
      <point x="1069" y="-25"/>
      <point x="1423" y="180"/>
      <point x="1539" y="643" type="curve" smooth="yes"/>
      <point x="1556" y="711"/>
      <point x="1564" y="778"/>
      <point x="1564" y="842" type="curve" smooth="yes"/>
      <point x="1564" y="1050"/>
      <point x="1483" y="1231"/>
      <point x="1377" y="1332" type="curve"/>
      <point x="1240" y="1216" type="line"/>
      <point x="1277" y="1147"/>
      <point x="1293" y="1053"/>
      <point x="1293" y="949" type="curve" smooth="yes"/>
      <point x="1293" y="850"/>
      <point x="1278" y="743"/>
      <point x="1253" y="641" type="curve" smooth="yes"/>
      <point x="1184" y="363"/>
      <point x="1015" y="218"/>
      <point x="788" y="218" type="curve" smooth="yes"/>
      <point x="616" y="218"/>
      <point x="494" y="358"/>
      <point x="494" y="580" type="curve" smooth="yes"/>
      <point x="494" y="634"/>
      <point x="501" y="694"/>
      <point x="517" y="757" type="curve" smooth="yes"/>
      <point x="566" y="953"/>
      <point x="659" y="1087"/>
      <point x="790" y="1215" type="curve"/>
      <point x="715" y="1327" type="line"/>
      <point x="510" y="1198"/>
      <point x="302" y="1040"/>
      <point x="229" y="746" type="curve" smooth="yes"/>
      <point x="211" y="672"/>
      <point x="202" y="602"/>
      <point x="202" y="537" type="curve" smooth="yes"/>
      <point x="202" y="194"/>
      <point x="438" y="-25"/>
    </contour>
    <contour>
      <point x="324" y="1203" type="line"/>
      <point x="405" y="1217"/>
      <point x="605" y="1218"/>
      <point x="791" y="1218" type="curve"/>
      <point x="848" y="1445" type="line"/>
      <point x="385" y="1445" type="line"/>
    </contour>
    <contour>
      <point x="1679" y="1203" type="curve"/>
      <point x="1740" y="1445" type="line"/>
      <point x="1297" y="1445" type="line"/>
      <point x="1240" y="1218" type="line"/>
      <point x="1426" y="1218"/>
      <point x="1606" y="1217"/>
    </contour>
  </outline>
</glyph>
<glyph name="LtnSmYHook.RtHook" format="2">
  <advance width="1200"/>
  <unicode hex="01B4"/>
  <anchor x="825" y="-100" name="L"/>
  <anchor x="402" y="-410" name="O"/>
  <anchor x="662" y="1100" name="U"/>
  <outline>
    <contour>
      <point x="78" y="-465" type="curve" smooth="yes"/>
      <point x="260" y="-465"/>
      <point x="422" y="-378"/>
      <point x="630" y="-60" type="curve" smooth="yes"/>
      <point x="827" y="241"/>
      <point x="981" y="605"/>
      <point x="1089" y="886" type="curve" smooth="yes"/>
      <point x="1168" y="1092"/>
      <point x="1227" y="1140"/>
      <point x="1293" y="1140" type="curve" smooth="yes"/>
      <point x="1341" y="1140"/>
      <point x="1389" y="1125"/>
      <point x="1434" y="1090" type="curve"/>
      <point x="1547" y="1312" type="line"/>
      <point x="1467" y="1359"/>
      <point x="1401" y="1380"/>
      <point x="1317" y="1380" type="curve" smooth="yes"/>
      <point x="1151" y="1380"/>
      <point x="1034" y="1305"/>
      <point x="893" y="936" type="curve" smooth="yes"/>
      <point x="788" y="662"/>
      <point x="643" y="305"/>
      <point x="448" y="14" type="curve" smooth="yes"/>
      <point x="321" y="-175"/>
      <point x="183" y="-250"/>
      <point x="114" y="-250" type="curve" smooth="yes"/>
      <point x="48" y="-250"/>
      <point x="-33" y="-201"/>
      <point x="-63" y="-166" type="curve"/>
      <point x="-195" y="-381" type="line"/>
      <point x="-136" y="-435"/>
      <point x="-13" y="-465"/>
    </contour>
    <contour>
      <point x="412" y="-104" type="curve"/>
      <point x="599" y="180" type="line"/>
      <point x="606" y="458"/>
      <point x="503" y="877"/>
      <point x="403" y="1010" type="curve"/>
      <point x="120" y="1010" type="line"/>
      <point x="259" y="811"/>
      <point x="412" y="401"/>
    </contour>
  </outline>
</glyph>
<glyph name="LtnCapEzh" format="2">
  <advance width="1285"/>
  <unicode hex="01B7"/>
  <anchor x="480" y="-500" name="L"/>
  <anchor x="968" y="1530" name="U"/>
  <outline>
    <contour>
      <point x="1455" y="1445" type="line"/>
      <point x="445" y="1445" type="line"/>
      <point x="383" y="1198" type="line"/>
      <point x="475" y="1215"/>
      <point x="606" y="1218"/>
      <point x="823" y="1218" type="curve" smooth="yes"/>
      <point x="1046" y="1218" type="line"/>
      <point x="416" y="667" type="line"/>
      <point x="361" y="446" type="line"/>
      <point x="438" y="456"/>
      <point x="541" y="461"/>
      <point x="619" y="461" type="curve" smooth="yes"/>
      <point x="796" y="461"/>
      <point x="911" y="355"/>
      <point x="911" y="202" type="curve" smooth="yes"/>
      <point x="911" y="-43"/>
      <point x="729" y="-223"/>
      <point x="494" y="-223" type="curve" smooth="yes"/>
      <point x="307" y="-223"/>
      <point x="183" y="-132"/>
      <point x="65" y="-37" type="curve"/>
      <point x="-5" y="-317" type="line"/>
      <point x="88" y="-403"/>
      <point x="256" y="-465"/>
      <point x="444" y="-465" type="curve" smooth="yes"/>
      <point x="857" y="-465"/>
      <point x="1190" y="-161"/>
      <point x="1190" y="241" type="curve" smooth="yes"/>
      <point x="1190" y="517"/>
      <point x="1006" y="690"/>
      <point x="753" y="690" type="curve"/>
      <point x="1412" y="1272" type="line"/>
    </contour>
  </outline>
</glyph>
<glyph name="LtnSmEzhTail" format="2">
  <advance width="1060"/>
  <unicode hex="01BA"/>
  <anchor x="380" y="-500" name="L"/>
  <anchor x="715" y="1100" name="U"/>
  <outline>
    <contour>
      <point x="288" y="1010" type="line"/>
      <point x="231" y="789" type="line"/>
      <point x="272" y="804"/>
      <point x="482" y="804"/>
      <point x="541" y="804" type="curve" smooth="yes"/>
      <point x="717" y="804" type="line"/>
      <point x="366" y="549" type="line"/>
      <point x="313" y="335" type="line"/>
      <point x="1073" y="876" type="line"/>
      <point x="1106" y="1010" type="line"/>
    </contour>
    <contour>
      <point x="842" y="-124" type="line"/>
      <point x="707" y="-211"/>
      <point x="552" y="-248"/>
      <point x="435" y="-248" type="curve" smooth="yes"/>
      <point x="333" y="-248"/>
      <point x="282" y="-206"/>
      <point x="282" y="-157" type="curve" smooth="yes"/>
      <point x="282" y="-96"/>
      <point x="375" y="-67"/>
      <point x="537" y="-18" type="curve" smooth="yes"/>
      <point x="729" y="40"/>
      <point x="981" y="111"/>
      <point x="981" y="323" type="curve" smooth="yes"/>
      <point x="981" y="458"/>
      <point x="847" y="577"/>
      <point x="638" y="577" type="curve" smooth="yes"/>
      <point x="557" y="577"/>
      <point x="458" y="560"/>
      <point x="386" y="534" type="curve"/>
      <point x="313" y="335" type="line"/>
      <point x="378" y="357"/>
      <point x="455" y="366"/>
      <point x="529" y="366" type="curve" smooth="yes"/>
      <point x="638" y="366"/>
      <point x="697" y="334"/>
      <point x="697" y="304" type="curve" smooth="yes"/>
      <point x="697" y="239"/>
      <point x="619" y="232"/>
      <point x="399" y="162" type="curve" smooth="yes"/>
      <point x="207" y="101"/>
      <point x="11" y="11"/>
      <point x="11" y="-187" type="curve" smooth="yes"/>
      <point x="11" y="-350"/>
      <point x="176" y="-465"/>
      <point x="389" y="-465" type="curve" smooth="yes"/>
      <point x="534" y="-465"/>
      <point x="736" y="-417"/>
      <point x="832" y="-351" type="curve"/>
    </contour>
  </outline>
</glyph>
<glyph name="LtnTwoStrk" format="2">
  <advance width="1280"/>
  <unicode hex="01BB"/>
  <anchor x="540" y="-100" name="L"/>
  <anchor x="910" y="1530" name="U"/>
  <outline>
    <contour>
      <point x="1117" y="257" type="line"/>
      <point x="1033" y="244"/>
      <point x="965" y="243"/>
      <point x="768" y="243" type="curve" smooth="yes"/>
      <point x="503" y="243" type="line"/>
      <point x="783" y="421"/>
      <point x="1275" y="745"/>
      <point x="1275" y="1121" type="curve" smooth="yes"/>
      <point x="1275" y="1324"/>
      <point x="1117" y="1470"/>
      <point x="869" y="1470" type="curve" smooth="yes"/>
      <point x="700" y="1470"/>
      <point x="495" y="1388"/>
      <point x="376" y="1277" type="curve"/>
      <point x="392" y="1039" type="line"/>
      <point x="507" y="1146"/>
      <point x="669" y="1223"/>
      <point x="792" y="1223" type="curve" smooth="yes"/>
      <point x="917" y="1223"/>
      <point x="970" y="1138"/>
      <point x="970" y="1043" type="curve" smooth="yes"/>
      <point x="970" y="754"/>
      <point x="449" y="414"/>
      <point x="127" y="218" type="curve"/>
      <point x="73" y="0" type="line"/>
      <point x="1053" y="0" type="line"/>
    </contour>
    <contour>
      <point x="348" y="865" type="line"/>
      <point x="298" y="662" type="line"/>
      <point x="1278" y="662" type="line"/>
      <point x="1328" y="865" type="line"/>
    </contour>
  </outline>
</glyph>
<glyph name="LtnCapTnFive" format="2">
  <advance width="1200"/>
  <unicode hex="01BC"/>
  <anchor x="535" y="-100" name="L"/>
  <anchor x="917" y="1530" name="U"/>
  <outline>
    <contour>
      <point x="503" y="-25" type="curve" smooth="yes"/>
      <point x="861" y="-25"/>
      <point x="1174" y="210"/>
      <point x="1174" y="562" type="curve" smooth="yes"/>
      <point x="1174" y="841"/>
      <point x="906" y="969"/>
      <point x="645" y="1005" type="curve"/>
      <point x="694" y="1203" type="line"/>
      <point x="1024" y="1203" type="line" smooth="yes"/>
      <point x="1108" y="1203"/>
      <point x="1213" y="1199"/>
      <point x="1284" y="1183" type="curve"/>
      <point x="1350" y="1445" type="line"/>
      <point x="495" y="1445" type="line"/>
      <point x="328" y="777" type="line"/>
      <point x="717" y="777"/>
      <point x="885" y="675"/>
      <point x="885" y="503" type="curve" smooth="yes"/>
      <point x="885" y="319"/>
      <point x="719" y="213"/>
      <point x="553" y="213" type="curve" smooth="yes"/>
      <point x="423" y="213"/>
      <point x="303" y="279"/>
      <point x="221" y="366" type="curve"/>
      <point x="84" y="99" type="line"/>
      <point x="197" y="12"/>
      <point x="348" y="-25"/>
    </contour>
  </outline>
</glyph>
<glyph name="LtnSmTnFive" format="2">
  <advance width="930"/>
  <unicode hex="01BD"/>
  <anchor x="400" y="-100" name="L"/>
  <anchor x="700" y="1100" name="U"/>
  <outline>
    <contour>
      <point x="1016" y="1010" type="line"/>
      <point x="356" y="1010" type="line"/>
      <point x="230" y="505" type="line"/>
      <point x="527" y="505"/>
      <point x="617" y="431"/>
      <point x="617" y="350" type="curve" smooth="yes"/>
      <point x="617" y="253"/>
      <point x="535" y="198"/>
      <point x="424" y="198" type="curve" smooth="yes"/>
      <point x="334" y="198"/>
      <point x="251" y="240"/>
      <point x="176" y="307" type="curve"/>
      <point x="55" y="64" type="line"/>
      <point x="128" y="15"/>
      <point x="256" y="-25"/>
      <point x="373" y="-25" type="curve" smooth="yes"/>
      <point x="647" y="-25"/>
      <point x="898" y="122"/>
      <point x="898" y="400" type="curve" smooth="yes"/>
      <point x="898" y="570"/>
      <point x="764" y="658"/>
      <point x="559" y="698" type="curve"/>
      <point x="587" y="812" type="line"/>
      <point x="757" y="812" type="line" smooth="yes"/>
      <point x="831" y="812"/>
      <point x="891" y="810"/>
      <point x="963" y="797" type="curve"/>
    </contour>
  </outline>
</glyph>
<glyph name="LtnInvGlottalStopStrk" format="2">
  <advance width="998"/>
  <unicode hex="01BE"/>
  <anchor x="465" y="-100" name="L"/>
  <anchor x="785" y="1430" name="U"/>
  <outline>
    <contour>
      <point x="475" y="-25" type="curve" smooth="yes"/>
      <point x="693" y="-25"/>
      <point x="939" y="83"/>
      <point x="939" y="338" type="curve" smooth="yes"/>
      <point x="939" y="459"/>
      <point x="872" y="552"/>
      <point x="827" y="645" type="curve" smooth="yes"/>
      <point x="790" y="722"/>
      <point x="767" y="772"/>
      <point x="767" y="849" type="curve" smooth="yes"/>
      <point x="767" y="896"/>
      <point x="776" y="953"/>
      <point x="796" y="1032" type="curve" smooth="yes"/>
      <point x="840" y="1208"/>
      <point x="864" y="1305"/>
      <point x="896" y="1376" type="curve"/>
      <point x="616" y="1376" type="line"/>
      <point x="610" y="1301"/>
      <point x="585" y="1199"/>
      <point x="539" y="1013" type="curve" smooth="yes"/>
      <point x="521" y="942"/>
      <point x="514" y="882"/>
      <point x="514" y="829" type="curve" smooth="yes"/>
      <point x="514" y="736"/>
      <point x="537" y="665"/>
      <point x="568" y="595" type="curve" smooth="yes"/>
      <point x="616" y="489"/>
      <point x="671" y="422"/>
      <point x="671" y="343" type="curve" smooth="yes"/>
      <point x="671" y="245"/>
      <point x="592" y="206"/>
      <point x="495" y="206" type="curve" smooth="yes"/>
      <point x="391" y="206"/>
      <point x="284" y="257"/>
      <point x="218" y="334" type="curve"/>
      <point x="110" y="113" type="line"/>
      <point x="178" y="38"/>
      <point x="310" y="-25"/>
    </contour>
    <contour>
      <point x="291" y="827" type="line"/>
      <point x="1016" y="827" type="line"/>
      <point x="1066" y="1030" type="line"/>
      <point x="341" y="1030" type="line"/>
    </contour>
  </outline>
</glyph>
<glyph name="LtnWynn" format="2">
  <advance width="1215"/>
  <unicode hex="01BF"/>
  <anchor x="455" y="-500" name="L"/>
  <anchor x="855" y="1100" name="U"/>
  <outline>
    <contour>
      <point x="11" y="-485" type="curve"/>
      <point x="300" y="-485" type="line"/>
      <point x="300" y="-406"/>
      <point x="312" y="-310"/>
      <point x="337" y="-197" type="curve" smooth="yes"/>
      <point x="350" y="-139" type="line"/>
      <point x="568" y="-50"/>
      <point x="1255" y="279"/>
      <point x="1255" y="740" type="curve" smooth="yes"/>
      <point x="1255" y="927"/>
      <point x="1119" y="1030"/>
      <point x="949" y="1030" type="curve" smooth="yes"/>
      <point x="824" y="1030"/>
      <point x="705" y="972"/>
      <point x="560" y="841" type="curve"/>
      <point x="564" y="865"/>
      <point x="566" y="905"/>
      <point x="566" y="933" type="curve" smooth="yes"/>
      <point x="566" y="962"/>
      <point x="564" y="988"/>
      <point x="561" y="1010" type="curve"/>
      <point x="286" y="1010" type="line"/>
      <point x="286" y="962" type="line" smooth="yes"/>
      <point x="286" y="859"/>
      <point x="276" y="685"/>
      <point x="257" y="609" type="curve" smooth="yes"/>
      <point x="61" y="-180" type="line" smooth="yes"/>
      <point x="35" y="-286"/>
      <point x="11" y="-403"/>
    </contour>
    <contour>
      <point x="413" y="110" type="curve"/>
      <point x="529" y="579" type="line"/>
      <point x="636" y="709"/>
      <point x="741" y="794"/>
      <point x="839" y="794" type="curve" smooth="yes"/>
      <point x="914" y="794"/>
      <point x="961" y="738"/>
      <point x="961" y="658" type="curve" smooth="yes"/>
      <point x="961" y="398"/>
      <point x="613" y="200"/>
    </contour>
  </outline>
</glyph>
<glyph name="LtnLateralClick" format="2">
  <advance width="870"/>
  <unicode hex="01C1"/>
  <anchor x="270" y="-500" name="L"/>
  <anchor x="773" y="1635" name="U"/>
  <outline>
    <contour>
      <point x="569" y="-485" type="line"/>
      <point x="1084" y="1584" type="line"/>
      <point x="874" y="1584" type="line"/>
      <point x="359" y="-485" type="line"/>
    </contour>
    <contour>
      <point x="169" y="-485" type="line"/>
      <point x="684" y="1584" type="line"/>
      <point x="474" y="1584" type="line"/>
      <point x="-41" y="-485" type="line"/>
    </contour>
  </outline>
</glyph>
<glyph name="LtnRetrClick" format="2">
  <advance width="650"/>
  <unicode hex="01C3"/>
  <anchor x="250" y="-100" name="L"/>
  <anchor x="663" y="1555" name="U"/>
  <outline>
    <contour>
      <point x="523" y="495" type="line"/>
      <point x="605" y="810"/>
      <point x="700" y="1173"/>
      <point x="812" y="1495" type="curve"/>
      <point x="477" y="1495" type="line"/>
      <point x="414" y="1104"/>
      <point x="337" y="782"/>
      <point x="268" y="495" type="curve"/>
    </contour>
    <contour>
      <point x="131" y="116" type="curve" smooth="yes"/>
      <point x="131" y="35"/>
      <point x="192" y="-25"/>
      <point x="278" y="-25" type="curve" smooth="yes"/>
      <point x="396" y="-25"/>
      <point x="491" y="71"/>
      <point x="491" y="181" type="curve" smooth="yes"/>
      <point x="491" y="261"/>
      <point x="432" y="322"/>
      <point x="345" y="322" type="curve" smooth="yes"/>
      <point x="228" y="322"/>
      <point x="131" y="226"/>
    </contour>
  </outline>
</glyph>
<glyph name="LtnSmOOgonek" format="2">
  <advance width="1141"/>
  <unicode hex="01EB"/>
  <anchor x="510" y="0" name="H"/>
  <anchor x="448" y="-500" name="L"/>
  <anchor x="1350" y="1000" name="R"/>
  <anchor x="785" y="1100" name="U"/>
  <outline>
    <contour>
      <point x="813" y="-208" type="line"/>
      <point x="765" y="-251"/>
      <point x="672" y="-282"/>
      <point x="629" y="-282" type="curve" smooth="yes"/>
      <point x="565" y="-282"/>
      <point x="526" y="-237"/>
      <point x="542" y="-172" type="curve" smooth="yes"/>
      <point x="567" y="-73"/>
      <point x="687" y="-31"/>
      <point x="815" y="48" type="curve" smooth="yes"/>
      <point x="1025" y="161"/>
      <point x="1144" y="394"/>
      <point x="1144" y="641" type="curve" smooth="yes"/>
      <point x="1144" y="880"/>
      <point x="1003" y="1030"/>
      <point x="773" y="1030" type="curve" smooth="yes"/>
      <point x="390" y="1030"/>
      <point x="140" y="718"/>
      <point x="140" y="370" type="curve" smooth="yes"/>
      <point x="140" y="131"/>
      <point x="286" y="-21"/>
      <point x="512" y="-25" type="curve" smooth="yes"/>
      <point x="432" y="-72"/>
      <point x="380" y="-121"/>
      <point x="358" y="-208" type="curve" smooth="yes"/>
      <point x="328" y="-327"/>
      <point x="439" y="-436"/>
      <point x="581" y="-436" type="curve" smooth="yes"/>
      <point x="655" y="-436"/>
      <point x="746" y="-404"/>
      <point x="818" y="-347" type="curve"/>
    </contour>
    <contour>
      <point x="718" y="807" type="curve" smooth="yes"/>
      <point x="826" y="807"/>
      <point x="879" y="737"/>
      <point x="879" y="612" type="curve" smooth="yes"/>
      <point x="879" y="413"/>
      <point x="764" y="198"/>
      <point x="566" y="198" type="curve" smooth="yes"/>
      <point x="464" y="198"/>
      <point x="404" y="264"/>
      <point x="404" y="385" type="curve" smooth="yes"/>
      <point x="404" y="570"/>
      <point x="512" y="807"/>
    </contour>
  </outline>
</glyph>
<glyph name="LtnCapYogh" format="2">
  <advance width="1180"/>
  <unicode hex="021C"/>
  <anchor x="462" y="-300" name="L"/>
  <anchor x="832" y="1530" name="U"/>
  <outline>
    <contour>
      <point x="50" y="-257" type="line"/>
      <point x="395" y="-224"/>
      <point x="1108" y="-89"/>
      <point x="1108" y="425" type="curve" smooth="yes"/>
      <point x="1108" y="639"/>
      <point x="930" y="730"/>
      <point x="755" y="742" type="curve"/>
      <point x="556" y="569" type="line"/>
      <point x="735" y="569"/>
      <point x="824" y="507"/>
      <point x="824" y="403" type="curve" smooth="yes"/>
      <point x="824" y="110"/>
      <point x="373" y="4"/>
      <point x="37" y="-50" type="curve"/>
    </contour>
    <contour>
      <point x="393" y="1119" type="line"/>
      <point x="529" y="1196"/>
      <point x="623" y="1229"/>
      <point x="728" y="1229" type="curve" smooth="yes"/>
      <point x="835" y="1229"/>
      <point x="912" y="1178"/>
      <point x="912" y="1075" type="curve" smooth="yes"/>
      <point x="912" y="875"/>
      <point x="721" y="803"/>
      <point x="380" y="708" type="curve"/>
      <point x="388" y="475" type="line"/>
      <point x="819" y="589"/>
      <point x="1211" y="752"/>
      <point x="1211" y="1143" type="curve" smooth="yes"/>
      <point x="1211" y="1341"/>
      <point x="1044" y="1470"/>
      <point x="796" y="1470" type="curve" smooth="yes"/>
      <point x="662" y="1470"/>
      <point x="553" y="1446"/>
      <point x="399" y="1361" type="curve"/>
    </contour>
  </outline>
</glyph>
<glyph name="LtnCapNLngRtLeg" format="2">
  <advance width="1526"/>
  <unicode hex="0220"/>
  <anchor x="575" y="-100" name="L"/>
  <anchor x="1062" y="1530" name="U"/>
  <outline>
    <contour>
      <point x="567" y="731" type="line"/>
      <point x="660" y="898"/>
      <point x="902" y="1178"/>
      <point x="1061" y="1178" type="curve" smooth="yes"/>
      <point x="1189" y="1178"/>
      <point x="1234" y="1112"/>
      <point x="1234" y="1013" type="curve" smooth="yes"/>
      <point x="1234" y="975"/>
      <point x="1227" y="932"/>
      <point x="1216" y="886" type="curve" smooth="yes"/>
      <point x="999" y="13" type="line" smooth="yes"/>
      <point x="948" y="-192"/>
      <point x="914" y="-333"/>
      <point x="914" y="-485" type="curve"/>
      <point x="1202" y="-485" type="line"/>
      <point x="1200" y="-467"/>
      <point x="1200" y="-448"/>
      <point x="1200" y="-429" type="curve" smooth="yes"/>
      <point x="1200" y="-308"/>
      <point x="1232" y="-176"/>
      <point x="1282" y="26" type="curve" smooth="yes"/>
      <point x="1510" y="940" type="line" smooth="yes"/>
      <point x="1525" y="1002"/>
      <point x="1533" y="1062"/>
      <point x="1533" y="1118" type="curve" smooth="yes"/>
      <point x="1533" y="1318"/>
      <point x="1433" y="1470"/>
      <point x="1208" y="1470" type="curve" smooth="yes"/>
      <point x="1028" y="1470"/>
      <point x="796" y="1297"/>
      <point x="648" y="1112" type="curve"/>
      <point x="666" y="1184"/>
      <point x="675" y="1301"/>
      <point x="675" y="1383" type="curve" smooth="yes"/>
      <point x="675" y="1410"/>
      <point x="674" y="1433"/>
      <point x="672" y="1450" type="curve"/>
      <point x="387" y="1450" type="line"/>
      <point x="389" y="1429"/>
      <point x="390" y="1404"/>
      <point x="390" y="1375" type="curve" smooth="yes"/>
      <point x="390" y="1253"/>
      <point x="371" y="1067"/>
      <point x="327" y="891" type="curve"/>
      <point x="232" y="511" type="line" smooth="yes"/>
      <point x="174" y="277"/>
      <point x="128" y="95"/>
      <point x="87" y="0" type="curve"/>
      <point x="385" y="0" type="line"/>
    </contour>
  </outline>
</glyph>
<glyph name="LtnSmOu" format="2">
  <advance width="1140"/>
  <unicode hex="0223"/>
  <anchor x="505" y="-100" name="L"/>
  <anchor x="923" y="1635" name="U"/>
  <outline>
    <contour>
      <point x="544" y="881" type="line"/>
      <point x="330" y="814"/>
      <point x="133" y="623"/>
      <point x="133" y="350" type="curve" smooth="yes"/>
      <point x="133" y="132"/>
      <point x="290" y="-25"/>
      <point x="533" y="-25" type="curve" smooth="yes"/>
      <point x="886" y="-25"/>
      <point x="1132" y="229"/>
      <point x="1132" y="559" type="curve" smooth="yes"/>
      <point x="1132" y="750"/>
      <point x="1016" y="864"/>
      <point x="863" y="936" type="curve" smooth="yes"/>
      <point x="727" y="1000"/>
      <point x="666" y="1076"/>
      <point x="666" y="1169" type="curve" smooth="yes"/>
      <point x="666" y="1286"/>
      <point x="734" y="1381"/>
      <point x="854" y="1381" type="curve" smooth="yes"/>
      <point x="937" y="1381"/>
      <point x="986" y="1315"/>
      <point x="986" y="1234" type="curve" smooth="yes"/>
      <point x="986" y="1076"/>
      <point x="857" y="985"/>
      <point x="731" y="927" type="curve"/>
      <point x="919" y="841" type="line"/>
      <point x="1109" y="930"/>
      <point x="1272" y="1060"/>
      <point x="1272" y="1272" type="curve" smooth="yes"/>
      <point x="1272" y="1478"/>
      <point x="1081" y="1604"/>
      <point x="899" y="1604" type="curve" smooth="yes"/>
      <point x="626" y="1604"/>
      <point x="379" y="1407"/>
      <point x="379" y="1138" type="curve" smooth="yes"/>
      <point x="379" y="962"/>
      <point x="503" y="825"/>
      <point x="653" y="757" type="curve" smooth="yes"/>
      <point x="797" y="692"/>
      <point x="848" y="611"/>
      <point x="848" y="513" type="curve" smooth="yes"/>
      <point x="848" y="358"/>
      <point x="753" y="198"/>
      <point x="589" y="198" type="curve" smooth="yes"/>
      <point x="481" y="198"/>
      <point x="419" y="280"/>
      <point x="419" y="393" type="curve" smooth="yes"/>
      <point x="419" y="594"/>
      <point x="543" y="713"/>
      <point x="721" y="787" type="curve"/>
    </contour>
  </outline>
</glyph>
<glyph name="LtnSmLCurl" format="2">
  <advance width="891"/>
  <unicode hex="0234"/>
  <anchor x="455" y="-100" name="L"/>
  <anchor x="655" y="1635" name="U"/>
  <outline>
    <contour>
      <point x="25" y="-215" type="line"/>
      <point x="109" y="88"/>
      <point x="319" y="366"/>
      <point x="613" y="366" type="curve" smooth="yes"/>
      <point x="692" y="366"/>
      <point x="752" y="326"/>
      <point x="752" y="258" type="curve" smooth="yes"/>
      <point x="752" y="197"/>
      <point x="702" y="137"/>
      <point x="642" y="137" type="curve" smooth="yes"/>
      <point x="564" y="137"/>
      <point x="512" y="174"/>
      <point x="512" y="285" type="curve" smooth="yes"/>
      <point x="512" y="342"/>
      <point x="531" y="419"/>
      <point x="556" y="520" type="curve" smooth="yes"/>
      <point x="699" y="1095" type="line" smooth="yes"/>
      <point x="739" y="1255"/>
      <point x="778" y="1474"/>
      <point x="778" y="1585" type="curve"/>
      <point x="498" y="1585" type="line"/>
      <point x="498" y="1439"/>
      <point x="457" y="1242"/>
      <point x="420" y="1095" type="curve" smooth="yes"/>
      <point x="269" y="488" type="line" smooth="yes"/>
      <point x="244" y="389"/>
      <point x="227" y="316"/>
      <point x="227" y="241" type="curve" smooth="yes"/>
      <point x="227" y="69"/>
      <point x="388" y="-48"/>
      <point x="583" y="-48" type="curve" smooth="yes"/>
      <point x="774" y="-48"/>
      <point x="931" y="83"/>
      <point x="931" y="273" type="curve" smooth="yes"/>
      <point x="931" y="422"/>
      <point x="805" y="535"/>
      <point x="644" y="535" type="curve" smooth="yes"/>
      <point x="282" y="535"/>
      <point x="-31" y="164"/>
      <point x="-117" y="-183" type="curve"/>
    </contour>
  </outline>
</glyph>
<glyph name="LtnSmNCurl" format="2">
  <advance width="1494"/>
  <unicode hex="0235"/>
  <anchor x="620" y="-250" name="L"/>
  <anchor x="900" y="1100" name="U"/>
  <outline>
    <contour>
      <point x="110" y="0" type="line"/>
      <point x="388" y="0" type="line"/>
      <point x="490" y="405" type="line"/>
      <point x="569" y="569"/>
      <point x="740" y="787"/>
      <point x="835" y="787" type="curve" smooth="yes"/>
      <point x="922" y="787"/>
      <point x="958" y="732"/>
      <point x="958" y="625" type="curve" smooth="yes"/>
      <point x="958" y="501"/>
      <point x="902" y="370"/>
      <point x="902" y="241" type="curve" smooth="yes"/>
      <point x="902" y="69"/>
      <point x="1053" y="-48"/>
      <point x="1248" y="-48" type="curve" smooth="yes"/>
      <point x="1439" y="-48"/>
      <point x="1596" y="83"/>
      <point x="1596" y="273" type="curve" smooth="yes"/>
      <point x="1596" y="422"/>
      <point x="1470" y="535"/>
      <point x="1309" y="535" type="curve" smooth="yes"/>
      <point x="1220" y="535"/>
      <point x="1136" y="516"/>
      <point x="1003" y="437" type="curve" smooth="yes"/>
      <point x="823" y="329"/>
      <point x="631" y="71"/>
      <point x="568" y="-183" type="curve"/>
      <point x="710" y="-215" type="line"/>
      <point x="788" y="24"/>
      <point x="857" y="135"/>
      <point x="978" y="237" type="curve" smooth="yes"/>
      <point x="1094" y="335"/>
      <point x="1199" y="366"/>
      <point x="1278" y="366" type="curve" smooth="yes"/>
      <point x="1357" y="366"/>
      <point x="1417" y="326"/>
      <point x="1417" y="258" type="curve" smooth="yes"/>
      <point x="1417" y="197"/>
      <point x="1367" y="137"/>
      <point x="1307" y="137" type="curve" smooth="yes"/>
      <point x="1229" y="137"/>
      <point x="1177" y="174"/>
      <point x="1177" y="285" type="curve" smooth="yes"/>
      <point x="1177" y="408"/>
      <point x="1258" y="596"/>
      <point x="1258" y="725" type="curve" smooth="yes"/>
      <point x="1258" y="890"/>
      <point x="1188" y="1030"/>
      <point x="995" y="1030" type="curve" smooth="yes"/>
      <point x="844" y="1030"/>
      <point x="685" y="903"/>
      <point x="546" y="715" type="curve"/>
      <point x="555" y="771"/>
      <point x="569" y="875"/>
      <point x="569" y="933" type="curve" smooth="yes"/>
      <point x="569" y="962"/>
      <point x="568" y="988"/>
      <point x="565" y="1010" type="curve"/>
      <point x="290" y="1010" type="line"/>
      <point x="290" y="962" type="line" smooth="yes"/>
      <point x="290" y="859"/>
      <point x="280" y="685"/>
      <point x="261" y="609" type="curve" smooth="yes"/>
    </contour>
  </outline>
</glyph>
<glyph name="LtnSmDBDigraph" format="2">
  <advance width="1921"/>
  <unicode hex="0238"/>
  <anchor x="871" y="-100" name="L"/>
  <anchor x="1275" y="1635" name="U"/>
  <outline>
    <contour>
      <point x="448" y="-25" type="curve" smooth="yes"/>
      <point x="597" y="-25"/>
      <point x="770" y="138"/>
      <point x="845" y="236" type="curve"/>
      <point x="802" y="64" type="line"/>
      <point x="944" y="16"/>
      <point x="1092" y="-25"/>
      <point x="1285" y="-25" type="curve" smooth="yes"/>
      <point x="1419" y="-25"/>
      <point x="1537" y="19"/>
      <point x="1634" y="91" type="curve" smooth="yes"/>
      <point x="1814" y="224"/>
      <point x="1921" y="453"/>
      <point x="1921" y="672" type="curve" smooth="yes"/>
      <point x="1921" y="906"/>
      <point x="1830" y="1030"/>
      <point x="1677" y="1030" type="curve" smooth="yes"/>
      <point x="1514" y="1030"/>
      <point x="1376" y="906"/>
      <point x="1254" y="756" type="curve"/>
      <point x="1338" y="1095" type="line" smooth="yes"/>
      <point x="1378" y="1255"/>
      <point x="1417" y="1474"/>
      <point x="1417" y="1585" type="curve"/>
      <point x="1137" y="1585" type="line"/>
      <point x="1137" y="1439"/>
      <point x="1096" y="1242"/>
      <point x="1059" y="1095" type="curve" smooth="yes"/>
      <point x="1020" y="935" type="line"/>
      <point x="949" y="989"/>
      <point x="845" y="1030"/>
      <point x="756" y="1030" type="curve" smooth="yes"/>
      <point x="630" y="1030"/>
      <point x="518" y="987"/>
      <point x="426" y="917" type="curve" smooth="yes"/>
      <point x="250" y="784"/>
      <point x="145" y="553"/>
      <point x="145" y="341" type="curve" smooth="yes"/>
      <point x="145" y="130"/>
      <point x="258" y="-25"/>
    </contour>
    <contour>
      <point x="560" y="200" type="curve" smooth="yes"/>
      <point x="470" y="200"/>
      <point x="427" y="263"/>
      <point x="427" y="367" type="curve" smooth="yes"/>
      <point x="427" y="480"/>
      <point x="469" y="626"/>
      <point x="554" y="714" type="curve" smooth="yes"/>
      <point x="599" y="761"/>
      <point x="657" y="792"/>
      <point x="727" y="792" type="curve" smooth="yes"/>
      <point x="820" y="792"/>
      <point x="876" y="775"/>
      <point x="957" y="731" type="curve"/>
      <point x="913" y="558" type="line"/>
      <point x="861" y="438"/>
      <point x="666" y="200"/>
    </contour>
    <contour>
      <point x="1323" y="188" type="curve" smooth="yes"/>
      <point x="1256" y="188"/>
      <point x="1194" y="202"/>
      <point x="1126" y="238" type="curve"/>
      <point x="1174" y="432" type="line"/>
      <point x="1268" y="610"/>
      <point x="1418" y="787"/>
      <point x="1521" y="787" type="curve" smooth="yes"/>
      <point x="1603" y="787"/>
      <point x="1638" y="705"/>
      <point x="1638" y="590" type="curve" smooth="yes"/>
      <point x="1638" y="465"/>
      <point x="1589" y="350"/>
      <point x="1515" y="275" type="curve" smooth="yes"/>
      <point x="1461" y="221"/>
      <point x="1395" y="188"/>
    </contour>
  </outline>
</glyph>
<glyph name="LtnCapAStrk" format="2">
  <advance width="1465"/>
  <unicode hex="023A"/>
  <anchor x="670" y="0" name="H"/>
  <anchor x="685" y="-180" name="L"/>
  <anchor x="1420" y="0" name="O"/>
  <anchor x="1035" y="1530" name="U"/>
  <outline>
    <contour>
      <point x="1577" y="1584" type="line"/>
      <point x="1377" y="1584" type="line"/>
      <point x="1209" y="1323" type="line"/>
      <point x="1198" y="1445" type="line"/>
      <point x="842" y="1445" type="line"/>
      <point x="199" y="351" type="line" smooth="yes"/>
      <point x="89" y="164"/>
      <point x="37" y="80"/>
      <point x="-18" y="0" type="curve"/>
      <point x="290" y="0" type="line"/>
      <point x="487" y="351" type="line"/>
      <point x="583" y="351" type="line"/>
      <point x="284" y="-114" type="line"/>
      <point x="484" y="-114" type="line"/>
      <point x="783" y="351" type="line"/>
      <point x="1031" y="351" type="line"/>
      <point x="1055" y="0" type="line"/>
      <point x="1338" y="0" type="line"/>
      <point x="1322" y="79"/>
      <point x="1312" y="166"/>
      <point x="1295" y="351" type="curve" smooth="yes"/>
      <point x="1233" y="1050" type="line"/>
    </contour>
    <contour>
      <point x="973" y="1216" type="line"/>
      <point x="989" y="981" type="line"/>
      <point x="720" y="564" type="line"/>
      <point x="606" y="564" type="line"/>
    </contour>
    <contour>
      <point x="1007" y="699" type="line"/>
      <point x="1016" y="564" type="line"/>
      <point x="920" y="564" type="line"/>
    </contour>
  </outline>
</glyph>
<glyph name="LtnCapLBar" format="2">
  <advance width="1145"/>
  <unicode hex="023D"/>
  <anchor x="565" y="-100" name="L"/>
  <anchor x="1004" y="1530" name="U"/>
  <outline>
    <contour>
      <point x="481" y="228" type="line"/>
      <point x="785" y="1445" type="line"/>
      <point x="485" y="1445" type="line"/>
      <point x="480" y="1366"/>
      <point x="442" y="1210"/>
      <point x="393" y="1015" type="curve" smooth="yes"/>
      <point x="247" y="431" type="line" smooth="yes"/>
      <point x="198" y="236"/>
      <point x="158" y="79"/>
      <point x="125" y="0" type="curve"/>
      <point x="1060" y="0" type="line"/>
      <point x="1120" y="243" type="line"/>
      <point x="1040" y="229"/>
      <point x="886" y="228"/>
      <point x="697" y="228" type="curve" smooth="yes"/>
    </contour>
    <contour>
      <point x="180" y="845" type="line"/>
      <point x="130" y="643" type="line"/>
      <point x="885" y="643" type="line"/>
      <point x="935" y="845" type="line"/>
    </contour>
  </outline>
</glyph>
<glyph name="LtnSmSSwashTail" format="2">
  <advance width="1045"/>
  <unicode hex="023F"/>
  <anchor x="399" y="-500" name="L"/>
  <anchor x="760" y="1100" name="U"/>
  <outline>
    <contour>
      <point x="1058" y="952" type="line"/>
      <point x="990" y="990"/>
      <point x="854" y="1030"/>
      <point x="691" y="1030" type="curve" smooth="yes"/>
      <point x="457" y="1030"/>
      <point x="217" y="936"/>
      <point x="217" y="722" type="curve" smooth="yes"/>
      <point x="217" y="593"/>
      <point x="306" y="517"/>
      <point x="501" y="430" type="curve" smooth="yes"/>
      <point x="648" y="364"/>
      <point x="710" y="345"/>
      <point x="710" y="288" type="curve" smooth="yes"/>
      <point x="710" y="224"/>
      <point x="649" y="197"/>
      <point x="549" y="197" type="curve" smooth="yes"/>
      <point x="392" y="197"/>
      <point x="276" y="280"/>
      <point x="197" y="371" type="curve"/>
      <point x="72" y="129" type="line"/>
      <point x="143" y="68"/>
      <point x="319" y="-25"/>
      <point x="498" y="-25" type="curve" smooth="yes"/>
      <point x="767" y="-25"/>
      <point x="979" y="104"/>
      <point x="979" y="315" type="curve" smooth="yes"/>
      <point x="979" y="440"/>
      <point x="884" y="513"/>
      <point x="695" y="600" type="curve" smooth="yes"/>
      <point x="581" y="652"/>
      <point x="477" y="688"/>
      <point x="477" y="743" type="curve" smooth="yes"/>
      <point x="477" y="785"/>
      <point x="548" y="808"/>
      <point x="646" y="808" type="curve" smooth="yes"/>
      <point x="785" y="808"/>
      <point x="895" y="764"/>
      <point x="961" y="716" type="curve"/>
    </contour>
    <contour>
      <point x="910" y="-233" type="line"/>
      <point x="868" y="-258"/>
      <point x="821" y="-267"/>
      <point x="768" y="-267" type="curve" smooth="yes"/>
      <point x="700" y="-267"/>
      <point x="653" y="-236"/>
      <point x="586" y="-123" type="curve" smooth="yes"/>
      <point x="533" y="-34"/>
      <point x="414" y="171"/>
      <point x="245" y="265" type="curve"/>
      <point x="98" y="110" type="line"/>
      <point x="172" y="86"/>
      <point x="294" y="-117"/>
      <point x="382" y="-273" type="curve" smooth="yes"/>
      <point x="468" y="-425"/>
      <point x="581" y="-485"/>
      <point x="705" y="-485" type="curve" smooth="yes"/>
      <point x="776" y="-485"/>
      <point x="854" y="-462"/>
      <point x="906" y="-436" type="curve"/>
    </contour>
  </outline>
</glyph>
<glyph name="LtnCapGlottalStop" format="2">
  <advance width="1188"/>
  <unicode hex="0241"/>
  <anchor x="379" y="-100" name="L"/>
  <anchor x="786" y="1530" name="U"/>
  <outline>
    <contour>
      <point x="391" y="1106" type="line"/>
      <point x="496" y="1191"/>
      <point x="640" y="1240"/>
      <point x="784" y="1240" type="curve" smooth="yes"/>
      <point x="921" y="1240"/>
      <point x="1001" y="1196"/>
      <point x="1001" y="1125" type="curve" smooth="yes"/>
      <point x="1001" y="1042"/>
      <point x="924" y="987"/>
      <point x="823" y="919" type="curve" smooth="yes"/>
      <point x="678" y="822"/>
      <point x="486" y="685"/>
      <point x="412" y="385" type="curve" smooth="yes"/>
      <point x="363" y="188"/>
      <point x="336" y="80"/>
      <point x="301" y="0" type="curve"/>
      <point x="611" y="0" type="line"/>
      <point x="616" y="76"/>
      <point x="640" y="178"/>
      <point x="692" y="385" type="curve" smooth="yes"/>
      <point x="738" y="568"/>
      <point x="875" y="667"/>
      <point x="1008" y="755" type="curve" smooth="yes"/>
      <point x="1158" y="854"/>
      <point x="1298" y="957"/>
      <point x="1298" y="1168" type="curve" smooth="yes"/>
      <point x="1298" y="1334"/>
      <point x="1102" y="1485"/>
      <point x="845" y="1485" type="curve" smooth="yes"/>
      <point x="647" y="1485"/>
      <point x="510" y="1434"/>
      <point x="403" y="1354" type="curve"/>
    </contour>
  </outline>
</glyph>
<glyph name="LtnSmGlottalStop" format="2">
  <advance width="790"/>
  <unicode hex="0242"/>
  <anchor x="310" y="-100" name="L"/>
  <anchor x="580" y="1100" name="U"/>
  <outline>
    <contour>
      <point x="231" y="723" type="line"/>
      <point x="310" y="785"/>
      <point x="405" y="812"/>
      <point x="472" y="812" type="curve" smooth="yes"/>
      <point x="537" y="812"/>
      <point x="583" y="775"/>
      <point x="583" y="733" type="curve" smooth="yes"/>
      <point x="583" y="689"/>
      <point x="538" y="640"/>
      <point x="481" y="601" type="curve" smooth="yes"/>
      <point x="400" y="546"/>
      <point x="302" y="469"/>
      <point x="259" y="298" type="curve" smooth="yes"/>
      <point x="208" y="96"/>
      <point x="197" y="63"/>
      <point x="170" y="0" type="curve"/>
      <point x="440" y="0" type="line"/>
      <point x="442" y="60"/>
      <point x="446" y="92"/>
      <point x="492" y="270" type="curve" smooth="yes"/>
      <point x="526" y="401"/>
      <point x="610" y="467"/>
      <point x="687" y="526" type="curve" smooth="yes"/>
      <point x="770" y="590"/>
      <point x="846" y="663"/>
      <point x="846" y="786" type="curve" smooth="yes"/>
      <point x="846" y="903"/>
      <point x="739" y="1030"/>
      <point x="576" y="1030" type="curve" smooth="yes"/>
      <point x="432" y="1030"/>
      <point x="316" y="990"/>
      <point x="249" y="940" type="curve"/>
    </contour>
  </outline>
</glyph>
<glyph name="LtnCapBBarredLowStem" format="2">
  <advance width="1417"/>
  <unicode hex="0243"/>
  <anchor x="610" y="-100" name="L"/>
  <anchor x="944" y="1530" name="U"/>
  <outline>
    <contour>
      <point x="748" y="1236" type="line"/>
      <point x="785" y="1238"/>
      <point x="841" y="1240"/>
      <point x="910" y="1240" type="curve" smooth="yes"/>
      <point x="1071" y="1240"/>
      <point x="1151" y="1179"/>
      <point x="1151" y="1087" type="curve" smooth="yes"/>
      <point x="1151" y="932"/>
      <point x="1012" y="866"/>
      <point x="820" y="866" type="curve" smooth="yes"/>
      <point x="655" y="866" type="line"/>
    </contour>
    <contour>
      <point x="267" y="450" type="line" smooth="yes"/>
      <point x="218" y="254"/>
      <point x="174" y="79"/>
      <point x="140" y="0" type="curve"/>
      <point x="211" y="-3"/>
      <point x="418" y="-10"/>
      <point x="648" y="-10" type="curve" smooth="yes"/>
      <point x="1105" y="-10"/>
      <point x="1348" y="206"/>
      <point x="1348" y="508" type="curve" smooth="yes"/>
      <point x="1348" y="673"/>
      <point x="1238" y="759"/>
      <point x="1122" y="792" type="curve"/>
      <point x="1304" y="848"/>
      <point x="1438" y="956"/>
      <point x="1438" y="1155" type="curve" smooth="yes"/>
      <point x="1438" y="1359"/>
      <point x="1231" y="1455"/>
      <point x="947" y="1455" type="curve" smooth="yes"/>
      <point x="754" y="1455"/>
      <point x="599" y="1451"/>
      <point x="500" y="1445" type="curve"/>
      <point x="495" y="1366"/>
      <point x="449" y="1182"/>
      <point x="401" y="990" type="curve" smooth="yes"/>
    </contour>
    <contour>
      <point x="602" y="651" type="line"/>
      <point x="795" y="651" type="line" smooth="yes"/>
      <point x="977" y="651"/>
      <point x="1069" y="577"/>
      <point x="1069" y="468" type="curve" smooth="yes"/>
      <point x="1069" y="295"/>
      <point x="929" y="213"/>
      <point x="725" y="213" type="curve" smooth="yes"/>
      <point x="625" y="213"/>
      <point x="526" y="216"/>
      <point x="494" y="218" type="curve"/>
    </contour>
    <contour>
      <point x="45" y="342" type="line"/>
      <point x="750" y="342" type="line"/>
      <point x="799" y="540" type="line"/>
      <point x="94" y="540" type="line"/>
    </contour>
  </outline>
</glyph>
<glyph name="LtnCapTurnedV" format="2">
  <advance width="1445"/>
  <unicode hex="0245"/>
  <anchor x="637" y="-100" name="L"/>
  <anchor x="1044" y="1530" name="U"/>
  <outline>
    <contour>
      <point x="1055" y="0" type="line"/>
      <point x="1360" y="0" type="line"/>
      <point x="1344" y="81"/>
      <point x="1331" y="169"/>
      <point x="1310" y="361" type="curve" smooth="yes"/>
      <point x="1190" y="1445" type="line"/>
      <point x="855" y="1445" type="line"/>
      <point x="195" y="361" type="line" smooth="yes"/>
      <point x="78" y="170"/>
      <point x="18" y="81"/>
      <point x="-35" y="0" type="curve"/>
      <point x="270" y="0" type="line"/>
      <point x="968" y="1188" type="line"/>
    </contour>
  </outline>
</glyph>
<glyph name="LtnCapEStrk" format="2">
  <advance width="1192"/>
  <unicode hex="0246"/>
  <anchor x="560" y="-180" name="L"/>
  <anchor x="892" y="1550" name="U"/>
  <outline>
    <contour>
      <point x="585" y="866" type="line"/>
      <point x="673" y="1218" type="line"/>
      <point x="1315" y="1218" type="line"/>
      <point x="1372" y="1445" type="line"/>
      <point x="450" y="1445" type="line"/>
      <point x="444" y="1366"/>
      <point x="406" y="1210"/>
      <point x="358" y="1015" type="curve" smooth="yes"/>
      <point x="212" y="431" type="line" smooth="yes"/>
      <point x="163" y="236"/>
      <point x="123" y="79"/>
      <point x="90" y="0" type="curve"/>
      <point x="1042" y="0" type="line"/>
      <point x="1102" y="243" type="line"/>
      <point x="1021" y="229"/>
      <point x="895" y="228"/>
      <point x="704" y="228" type="curve" smooth="yes"/>
      <point x="426" y="228" type="line"/>
      <point x="530" y="643" type="line"/>
      <point x="1097" y="643" type="line"/>
      <point x="1152" y="866" type="line"/>
    </contour>
    <contour>
      <point x="1235" y="1584" type="line"/>
      <point x="102" y="-114" type="line"/>
      <point x="302" y="-114" type="line"/>
      <point x="1435" y="1584" type="line"/>
    </contour>
  </outline>
</glyph>
<glyph name="LtnSmJStrk" format="2">
  <advance width="802"/>
  <unicode hex="0249"/>
  <anchor x="50" y="-500" name="L"/>
  <anchor x="605" y="1100" name="U"/>
  <outline>
    <contour>
      <point x="431" y="1010" type="line"/>
      <point x="431" y="866"/>
      <point x="354" y="395"/>
      <point x="275" y="87" type="curve" smooth="yes"/>
      <point x="218" y="-136"/>
      <point x="124" y="-221"/>
      <point x="14" y="-221" type="curve" smooth="yes"/>
      <point x="-67" y="-221"/>
      <point x="-147" y="-187"/>
      <point x="-182" y="-150" type="curve"/>
      <point x="-285" y="-385" type="line"/>
      <point x="-251" y="-417"/>
      <point x="-102" y="-465"/>
      <point x="-9" y="-465" type="curve" smooth="yes"/>
      <point x="240" y="-465"/>
      <point x="459" y="-295"/>
      <point x="551" y="75" type="curve" smooth="yes"/>
      <point x="571" y="157"/>
      <point x="716" y="882"/>
      <point x="716" y="1010" type="curve"/>
    </contour>
    <contour>
      <point x="465" y="1341" type="curve" smooth="yes"/>
      <point x="465" y="1259"/>
      <point x="523" y="1197"/>
      <point x="609" y="1197" type="curve" smooth="yes"/>
      <point x="729" y="1197"/>
      <point x="820" y="1292"/>
      <point x="820" y="1403" type="curve" smooth="yes"/>
      <point x="820" y="1483"/>
      <point x="762" y="1544"/>
      <point x="675" y="1544" type="curve" smooth="yes"/>
      <point x="557" y="1544"/>
      <point x="465" y="1451"/>
    </contour>
    <contour>
      <point x="62" y="464" type="line"/>
      <point x="827" y="464" type="line"/>
      <point x="877" y="662" type="line"/>
      <point x="112" y="662" type="line"/>
    </contour>
  </outline>
</glyph>
<glyph name="LtnCapSmQHookTail" format="2">
  <advance width="1549"/>
  <unicode hex="024A"/>
  <anchor x="565" y="-100" name="L"/>
  <anchor x="1072" y="1530" name="U"/>
  <outline>
    <contour>
      <point x="1564" y="-135" type="line"/>
      <point x="1505" y="-176"/>
      <point x="1436" y="-206"/>
      <point x="1388" y="-206" type="curve" smooth="yes"/>
      <point x="1312" y="-206"/>
      <point x="1286" y="-149"/>
      <point x="1286" y="-60" type="curve" smooth="yes"/>
      <point x="1286" y="96"/>
      <point x="1390" y="394"/>
      <point x="1629" y="1386" type="curve"/>
      <point x="1466" y="1437"/>
      <point x="1323" y="1470"/>
      <point x="1128" y="1470" type="curve" smooth="yes"/>
      <point x="624" y="1470"/>
      <point x="330" y="1149"/>
      <point x="222" y="716" type="curve" smooth="yes"/>
      <point x="201" y="631"/>
      <point x="191" y="549"/>
      <point x="191" y="472" type="curve" smooth="yes"/>
      <point x="191" y="187"/>
      <point x="329" y="-25"/>
      <point x="542" y="-25" type="curve" smooth="yes"/>
      <point x="678" y="-25"/>
      <point x="928" y="151"/>
      <point x="1101" y="414" type="curve"/>
      <point x="1026" y="134"/>
      <point x="993" y="13"/>
      <point x="993" y="-129" type="curve" smooth="yes"/>
      <point x="993" y="-316"/>
      <point x="1116" y="-465"/>
      <point x="1298" y="-465" type="curve" smooth="yes"/>
      <point x="1409" y="-465"/>
      <point x="1481" y="-442"/>
      <point x="1542" y="-396" type="curve"/>
    </contour>
    <contour>
      <point x="1221" y="910" type="line" smooth="yes"/>
      <point x="1167" y="684"/>
      <point x="750" y="226"/>
      <point x="630" y="226" type="curve" smooth="yes"/>
      <point x="519" y="226"/>
      <point x="487" y="328"/>
      <point x="487" y="509" type="curve" smooth="yes"/>
      <point x="487" y="578"/>
      <point x="497" y="658"/>
      <point x="520" y="749" type="curve" smooth="yes"/>
      <point x="584" y="1007"/>
      <point x="788" y="1220"/>
      <point x="1046" y="1220" type="curve" smooth="yes"/>
      <point x="1125" y="1220"/>
      <point x="1214" y="1207"/>
      <point x="1287" y="1187" type="curve"/>
    </contour>
  </outline>
</glyph>
<glyph name="LtnCapRBarredStem" format="2">
  <advance width="1425"/>
  <unicode hex="024C"/>
  <anchor x="665" y="-100" name="L"/>
  <anchor x="1022" y="1530" name="U"/>
  <outline>
    <contour>
      <point x="599" y="579" type="line"/>
      <point x="814" y="579" type="line" smooth="yes"/>
      <point x="1136" y="579"/>
      <point x="1443" y="761"/>
      <point x="1443" y="1117" type="curve" smooth="yes"/>
      <point x="1443" y="1332"/>
      <point x="1264" y="1455"/>
      <point x="997" y="1455" type="curve" smooth="yes"/>
      <point x="826" y="1455"/>
      <point x="622" y="1449"/>
      <point x="515" y="1445" type="curve"/>
      <point x="509" y="1366"/>
      <point x="464" y="1184"/>
      <point x="416" y="990" type="curve" smooth="yes"/>
      <point x="277" y="431" type="line" smooth="yes"/>
      <point x="229" y="236"/>
      <point x="189" y="79"/>
      <point x="155" y="0" type="curve"/>
      <point x="470" y="0" type="line"/>
      <point x="475" y="77"/>
      <point x="513" y="236"/>
      <point x="562" y="431" type="curve" smooth="yes"/>
    </contour>
    <contour>
      <point x="761" y="1228" type="line"/>
      <point x="803" y="1232"/>
      <point x="829" y="1233"/>
      <point x="907" y="1233" type="curve" smooth="yes"/>
      <point x="1060" y="1233"/>
      <point x="1154" y="1167"/>
      <point x="1154" y="1060" type="curve" smooth="yes"/>
      <point x="1154" y="899"/>
      <point x="1021" y="792"/>
      <point x="847" y="792" type="curve" smooth="yes"/>
      <point x="652" y="792" type="line"/>
    </contour>
    <contour>
      <point x="980" y="0" type="line"/>
      <point x="1335" y="0" type="line"/>
      <point x="1285" y="72"/>
      <point x="1027" y="623"/>
      <point x="1001" y="680" type="curve"/>
      <point x="717" y="629" type="line"/>
    </contour>
    <contour>
      <point x="74" y="579" type="line"/>
      <point x="519" y="579" type="line"/>
      <point x="572" y="792" type="line"/>
      <point x="127" y="792" type="line"/>
    </contour>
  </outline>
</glyph>
<glyph name="LtnCapYStrk" format="2">
  <advance width="1364"/>
  <unicode hex="024E"/>
  <anchor x="607" y="-100" name="L"/>
  <anchor x="1014" y="1530" name="U"/>
  <outline>
    <contour>
      <point x="340" y="1445" type="line"/>
      <point x="415" y="1298"/>
      <point x="453" y="1185"/>
      <point x="497" y="1054" type="curve" smooth="yes"/>
      <point x="668" y="554" type="line"/>
      <point x="883" y="668" type="line"/>
      <point x="652" y="1445" type="line"/>
    </contour>
    <contour>
      <point x="1297" y="1445" type="line"/>
      <point x="683" y="668" type="line"/>
      <point x="863" y="554" type="line"/>
      <point x="1286" y="1054" type="line" smooth="yes"/>
      <point x="1394" y="1183"/>
      <point x="1474" y="1278"/>
      <point x="1634" y="1445" type="curve"/>
    </contour>
    <contour>
      <point x="785" y="0" type="line"/>
      <point x="789" y="79"/>
      <point x="828" y="236"/>
      <point x="877" y="431" type="curve" smooth="yes"/>
      <point x="941" y="688" type="line"/>
      <point x="656" y="688" type="line"/>
      <point x="592" y="431" type="line" smooth="yes"/>
      <point x="543" y="236"/>
      <point x="503" y="79"/>
      <point x="470" y="0" type="curve"/>
    </contour>
    <contour>
      <point x="192" y="1054" type="line"/>
      <point x="1596" y="1054" type="line"/>
      <point x="1646" y="1252" type="line"/>
      <point x="242" y="1252" type="line"/>
    </contour>
  </outline>
</glyph>
<glyph name="LtnSmYStrk" format="2">
  <advance width="1120"/>
  <unicode hex="024F"/>
  <anchor x="825" y="-100" name="L"/>
  <anchor x="818" y="1100" name="U"/>
  <outline>
    <contour>
      <point x="78" y="-465" type="curve" smooth="yes"/>
      <point x="260" y="-465"/>
      <point x="447" y="-385"/>
      <point x="684" y="0" type="curve" smooth="yes"/>
      <point x="919" y="381"/>
      <point x="1116" y="766"/>
      <point x="1116" y="960" type="curve" smooth="yes"/>
      <point x="1116" y="978"/>
      <point x="1114" y="995"/>
      <point x="1110" y="1010" type="curve"/>
      <point x="847" y="1010" type="line"/>
      <point x="851" y="994"/>
      <point x="852" y="977"/>
      <point x="852" y="958" type="curve" smooth="yes"/>
      <point x="852" y="776"/>
      <point x="672" y="386"/>
      <point x="590" y="251" type="curve" smooth="yes"/>
      <point x="401" y="-60"/>
      <point x="253" y="-250"/>
      <point x="124" y="-250" type="curve" smooth="yes"/>
      <point x="48" y="-250"/>
      <point x="-33" y="-201"/>
      <point x="-63" y="-165" type="curve"/>
      <point x="-195" y="-381" type="line"/>
      <point x="-136" y="-435"/>
      <point x="-13" y="-465"/>
    </contour>
    <contour>
      <point x="414" y="-103" type="curve"/>
      <point x="600" y="175" type="line"/>
      <point x="600" y="493"/>
      <point x="503" y="877"/>
      <point x="403" y="1010" type="curve"/>
      <point x="120" y="1010" type="line"/>
      <point x="259" y="811"/>
      <point x="404" y="416"/>
    </contour>
    <contour>
      <point x="86" y="474" type="line"/>
      <point x="1176" y="474" type="line"/>
      <point x="1225" y="667" type="line"/>
      <point x="135" y="667" type="line"/>
    </contour>
  </outline>
</glyph>
<glyph name="LtnSmTurnedA" format="2">
  <advance width="1236"/>
  <unicode hex="0250"/>
  <anchor x="550" y="-100" name="L"/>
  <anchor x="1445" y="1000" name="R"/>
  <anchor x="800" y="1100" name="U"/>
  <outline>
    <contour>
      <point x="522" y="-25" type="curve" smooth="yes"/>
      <point x="1031" y="-25"/>
      <point x="1270" y="438"/>
      <point x="1270" y="747" type="curve" smooth="yes"/>
      <point x="1270" y="925"/>
      <point x="1182" y="1030"/>
      <point x="1052" y="1030" type="curve" smooth="yes"/>
      <point x="843" y="1030"/>
      <point x="646" y="829"/>
      <point x="519" y="659" type="curve"/>
      <point x="531" y="736" type="line" smooth="yes"/>
      <point x="544" y="818"/>
      <point x="550" y="910"/>
      <point x="550" y="972" type="curve" smooth="yes"/>
      <point x="550" y="984"/>
      <point x="550" y="995"/>
      <point x="550" y="1005" type="curve"/>
      <point x="284" y="1005" type="line"/>
      <point x="284" y="991"/>
      <point x="284" y="976"/>
      <point x="284" y="960" type="curve" smooth="yes"/>
      <point x="284" y="884"/>
      <point x="265" y="664"/>
      <point x="219" y="480" type="curve" smooth="yes"/>
      <point x="104" y="20" type="line"/>
      <point x="211" y="-6"/>
      <point x="377" y="-25"/>
    </contour>
    <contour>
      <point x="609" y="197" type="curve" smooth="yes"/>
      <point x="524" y="197"/>
      <point x="465" y="210"/>
      <point x="439" y="217" type="curve"/>
      <point x="455" y="287" type="line" smooth="yes"/>
      <point x="494" y="456"/>
      <point x="754" y="795"/>
      <point x="903" y="795" type="curve" smooth="yes"/>
      <point x="955" y="795"/>
      <point x="979" y="741"/>
      <point x="979" y="666" type="curve" smooth="yes"/>
      <point x="979" y="470"/>
      <point x="835" y="197"/>
    </contour>
  </outline>
</glyph>
<glyph name="LtnSmTurnedAlpha" format="2">
  <advance width="1236"/>
  <unicode hex="0252"/>
  <anchor x="475" y="0" name="H"/>
  <anchor x="550" y="-100" name="L"/>
  <anchor x="695" y="0" name="O"/>
  <anchor x="1446" y="1000" name="R"/>
  <anchor x="800" y="1100" name="U"/>
  <outline>
    <contour>
      <point x="285" y="1005" type="line"/>
      <point x="287" y="983"/>
      <point x="288" y="959"/>
      <point x="288" y="932" type="curve" smooth="yes"/>
      <point x="288" y="825"/>
      <point x="269" y="680"/>
      <point x="219" y="480" type="curve" smooth="yes"/>
      <point x="104" y="20" type="line"/>
      <point x="212" y="-6"/>
      <point x="377" y="-25"/>
      <point x="522" y="-25" type="curve" smooth="yes"/>
      <point x="981" y="-25"/>
      <point x="1270" y="347"/>
      <point x="1270" y="733" type="curve" smooth="yes"/>
      <point x="1270" y="918"/>
      <point x="1174" y="1030"/>
      <point x="1042" y="1030" type="curve" smooth="yes"/>
      <point x="833" y="1030"/>
      <point x="646" y="829"/>
      <point x="520" y="658" type="curve"/>
      <point x="534" y="715" type="line" smooth="yes"/>
      <point x="547" y="766"/>
      <point x="558" y="864"/>
      <point x="558" y="935" type="curve" smooth="yes"/>
      <point x="558" y="965"/>
      <point x="556" y="991"/>
      <point x="551" y="1005" type="curve"/>
    </contour>
    <contour>
      <point x="456" y="282" type="line" smooth="yes"/>
      <point x="484" y="395"/>
      <point x="754" y="794"/>
      <point x="903" y="794" type="curve" smooth="yes"/>
      <point x="948" y="794"/>
      <point x="977" y="733"/>
      <point x="977" y="654" type="curve" smooth="yes"/>
      <point x="977" y="425"/>
      <point x="828" y="197"/>
      <point x="610" y="197" type="curve" smooth="yes"/>
      <point x="525" y="197"/>
      <point x="466" y="210"/>
      <point x="440" y="217" type="curve"/>
    </contour>
  </outline>
</glyph>
<glyph name="LtnSmCCurl" format="2">
  <advance width="1066"/>
  <unicode hex="0255"/>
  <anchor x="482" y="-250" name="L"/>
  <anchor x="835" y="1100" name="U"/>
  <outline>
    <contour>
      <point x="1109" y="959" type="line"/>
      <point x="1045" y="997"/>
      <point x="928" y="1030"/>
      <point x="796" y="1030" type="curve" smooth="yes"/>
      <point x="418" y="1030"/>
      <point x="150" y="732"/>
      <point x="150" y="386" type="curve" smooth="yes"/>
      <point x="150" y="141"/>
      <point x="314" y="-25"/>
      <point x="569" y="-25" type="curve" smooth="yes"/>
      <point x="787" y="-25"/>
      <point x="1003" y="98"/>
      <point x="1003" y="319" type="curve" smooth="yes"/>
      <point x="1003" y="439"/>
      <point x="900" y="546"/>
      <point x="747" y="546" type="curve" smooth="yes"/>
      <point x="612" y="546"/>
      <point x="390" y="495"/>
      <point x="293" y="100" type="curve" smooth="yes"/>
      <point x="270" y="6"/>
      <point x="261" y="-78"/>
      <point x="261" y="-147" type="curve" smooth="yes"/>
      <point x="261" y="-153"/>
      <point x="261" y="-158"/>
      <point x="262" y="-163" type="curve"/>
      <point x="432" y="-193" type="line"/>
      <point x="431" y="-188"/>
      <point x="430" y="-182"/>
      <point x="430" y="-174" type="curve" smooth="yes"/>
      <point x="430" y="-58"/>
      <point x="449" y="32"/>
      <point x="472" y="126" type="curve" smooth="yes"/>
      <point x="521" y="323"/>
      <point x="613" y="381"/>
      <point x="715" y="381" type="curve" smooth="yes"/>
      <point x="770" y="381"/>
      <point x="805" y="346"/>
      <point x="805" y="304" type="curve" smooth="yes"/>
      <point x="805" y="234"/>
      <point x="709" y="194"/>
      <point x="634" y="194" type="curve" smooth="yes"/>
      <point x="512" y="194"/>
      <point x="435" y="289"/>
      <point x="435" y="419" type="curve" smooth="yes"/>
      <point x="435" y="607"/>
      <point x="556" y="802"/>
      <point x="754" y="802" type="curve" smooth="yes"/>
      <point x="857" y="802"/>
      <point x="928" y="771"/>
      <point x="1003" y="710" type="curve"/>
    </contour>
  </outline>
</glyph>
<glyph name="LtnSmRevE" format="2">
  <advance width="1046"/>
  <unicode hex="0258"/>
  <anchor x="430" y="-100" name="L"/>
  <anchor x="1222" y="1000" name="R"/>
  <anchor x="704" y="1100" name="U"/>
  <outline>
    <contour>
      <point x="456" y="-25" type="curve" smooth="yes"/>
      <point x="792" y="-25"/>
      <point x="1051" y="271"/>
      <point x="1051" y="594" type="curve" smooth="yes"/>
      <point x="1051" y="862"/>
      <point x="874" y="1030"/>
      <point x="621" y="1030" type="curve" smooth="yes"/>
      <point x="388" y="1030"/>
      <point x="184" y="922"/>
      <point x="184" y="697" type="curve" smooth="yes"/>
      <point x="184" y="539"/>
      <point x="319" y="404"/>
      <point x="551" y="404" type="curve" smooth="yes"/>
      <point x="633" y="404"/>
      <point x="829" y="429"/>
      <point x="902" y="443" type="curve"/>
      <point x="945" y="623" type="line"/>
      <point x="837" y="602"/>
      <point x="700" y="577"/>
      <point x="628" y="577" type="curve" smooth="yes"/>
      <point x="481" y="577"/>
      <point x="432" y="626"/>
      <point x="432" y="710" type="curve" smooth="yes"/>
      <point x="432" y="774"/>
      <point x="501" y="817"/>
      <point x="596" y="817" type="curve" smooth="yes"/>
      <point x="724" y="817"/>
      <point x="801" y="740"/>
      <point x="801" y="580" type="curve" smooth="yes"/>
      <point x="801" y="356"/>
      <point x="685" y="194"/>
      <point x="499" y="194" type="curve" smooth="yes"/>
      <point x="368" y="194"/>
      <point x="274" y="225"/>
      <point x="150" y="297" type="curve"/>
      <point x="80" y="73" type="line"/>
      <point x="224" y="2"/>
      <point x="300" y="-25"/>
    </contour>
  </outline>
</glyph>
<glyph name="LtnSmSchwaHook" format="2">
  <advance width="1493"/>
  <unicode hex="025A"/>
  <anchor x="536" y="0" name="H"/>
  <anchor x="515" y="-100" name="L"/>
  <anchor x="740" y="0" name="O"/>
  <anchor x="750" y="1100" name="U"/>
  <outline>
    <contour>
      <point x="228" y="702" type="line"/>
      <point x="370" y="775"/>
      <point x="492" y="807"/>
      <point x="623" y="807" type="curve" smooth="yes"/>
      <point x="772" y="807"/>
      <point x="840" y="708"/>
      <point x="840" y="577" type="curve" smooth="yes"/>
      <point x="840" y="322"/>
      <point x="689" y="183"/>
      <point x="538" y="183" type="curve" smooth="yes"/>
      <point x="440" y="183"/>
      <point x="372" y="223"/>
      <point x="372" y="275" type="curve" smooth="yes"/>
      <point x="372" y="330"/>
      <point x="473" y="374"/>
      <point x="697" y="468" type="curve" smooth="yes"/>
      <point x="943" y="571"/>
      <point x="1235" y="695"/>
      <point x="1333" y="733" type="curve"/>
      <point x="1333" y="924" type="line"/>
      <point x="1249" y="887"/>
      <point x="890" y="738"/>
      <point x="658" y="639" type="curve" smooth="yes"/>
      <point x="321" y="495"/>
      <point x="116" y="412"/>
      <point x="116" y="238" type="curve" smooth="yes"/>
      <point x="116" y="83"/>
      <point x="258" y="-25"/>
      <point x="482" y="-25" type="curve" smooth="yes"/>
      <point x="816" y="-25"/>
      <point x="1093" y="220"/>
      <point x="1093" y="607" type="curve" smooth="yes"/>
      <point x="1093" y="860"/>
      <point x="899" y="1030"/>
      <point x="675" y="1030" type="curve" smooth="yes"/>
      <point x="519" y="1030"/>
      <point x="406" y="1003"/>
      <point x="244" y="931" type="curve"/>
    </contour>
    <contour>
      <point x="1565" y="698" type="line"/>
      <point x="1522" y="653"/>
      <point x="1476" y="618"/>
      <point x="1430" y="618" type="curve" smooth="yes"/>
      <point x="1382" y="618"/>
      <point x="1365" y="656"/>
      <point x="1365" y="696" type="curve" smooth="yes"/>
      <point x="1365" y="732"/>
      <point x="1377" y="764"/>
      <point x="1389" y="792" type="curve"/>
      <point x="1333" y="924" type="line"/>
      <point x="951" y="718" type="line"/>
      <point x="998" y="604" type="line"/>
      <point x="1224" y="693" type="line"/>
      <point x="1219" y="673"/>
      <point x="1216" y="652"/>
      <point x="1216" y="634" type="curve" smooth="yes"/>
      <point x="1216" y="537"/>
      <point x="1285" y="470"/>
      <point x="1393" y="470" type="curve" smooth="yes"/>
      <point x="1480" y="470"/>
      <point x="1569" y="521"/>
      <point x="1616" y="579" type="curve"/>
    </contour>
  </outline>
</glyph>
<glyph name="LtnSmOpnE" format="2">
  <advance width="960"/>
  <unicode hex="025B"/>
  <anchor x="465" y="0" name="H"/>
  <anchor x="440" y="-100" name="L"/>
  <anchor x="755" y="0" name="O"/>
  <anchor x="1185" y="1000" name="R"/>
  <anchor x="740" y="1100" name="U"/>
  <outline>
    <contour>
      <point x="488" y="-25" type="curve" smooth="yes"/>
      <point x="620" y="-25"/>
      <point x="726" y="2"/>
      <point x="868" y="74" type="curve"/>
      <point x="903" y="297" type="line"/>
      <point x="779" y="224"/>
      <point x="641" y="188"/>
      <point x="556" y="188" type="curve" smooth="yes"/>
      <point x="466" y="188"/>
      <point x="405" y="226"/>
      <point x="405" y="297" type="curve" smooth="yes"/>
      <point x="405" y="367"/>
      <point x="486" y="432"/>
      <point x="702" y="432" type="curve" smooth="yes"/>
      <point x="712" y="432"/>
      <point x="721" y="432"/>
      <point x="732" y="431" type="curve"/>
      <point x="780" y="623" type="line"/>
      <point x="659" y="623"/>
      <point x="549" y="666"/>
      <point x="549" y="731" type="curve" smooth="yes"/>
      <point x="549" y="790"/>
      <point x="624" y="823"/>
      <point x="695" y="823" type="curve" smooth="yes"/>
      <point x="786" y="823"/>
      <point x="868" y="800"/>
      <point x="923" y="744" type="curve"/>
      <point x="1016" y="950" type="line"/>
      <point x="932" y="1001"/>
      <point x="836" y="1030"/>
      <point x="701" y="1030" type="curve" smooth="yes"/>
      <point x="491" y="1030"/>
      <point x="284" y="929"/>
      <point x="284" y="752" type="curve" smooth="yes"/>
      <point x="284" y="674"/>
      <point x="336" y="587"/>
      <point x="427" y="550" type="curve"/>
      <point x="277" y="517"/>
      <point x="125" y="419"/>
      <point x="125" y="256" type="curve" smooth="yes"/>
      <point x="125" y="126"/>
      <point x="230" y="-25"/>
    </contour>
  </outline>
</glyph>
<glyph name="LtnSmDotlessJStrk" format="2">
  <advance width="802"/>
  <unicode hex="025F"/>
  <anchor x="20" y="-500" name="L"/>
  <anchor x="900" y="1000" name="R"/>
  <anchor x="605" y="1100" name="U"/>
  <outline>
    <contour>
      <point x="421" y="1010" type="line"/>
      <point x="421" y="866"/>
      <point x="344" y="395"/>
      <point x="265" y="87" type="curve" smooth="yes"/>
      <point x="208" y="-136"/>
      <point x="114" y="-221"/>
      <point x="4" y="-221" type="curve" smooth="yes"/>
      <point x="-77" y="-221"/>
      <point x="-157" y="-187"/>
      <point x="-192" y="-150" type="curve"/>
      <point x="-295" y="-385" type="line"/>
      <point x="-261" y="-417"/>
      <point x="-112" y="-465"/>
      <point x="-19" y="-465" type="curve" smooth="yes"/>
      <point x="230" y="-465"/>
      <point x="447" y="-295"/>
      <point x="541" y="75" type="curve" smooth="yes"/>
      <point x="562" y="157"/>
      <point x="706" y="882"/>
      <point x="706" y="1010" type="curve"/>
    </contour>
    <contour>
      <point x="72" y="464" type="line"/>
      <point x="837" y="464" type="line"/>
      <point x="887" y="662" type="line"/>
      <point x="122" y="662" type="line"/>
    </contour>
  </outline>
</glyph>
<glyph name="LtnSmGHook" format="2">
  <advance width="1338"/>
  <unicode hex="0260"/>
  <anchor x="422" y="-500" name="L"/>
  <anchor x="955" y="1635" name="U"/>
  <outline>
    <contour>
      <point x="419" y="-465" type="curve" smooth="yes"/>
      <point x="660" y="-465"/>
      <point x="952" y="-317"/>
      <point x="1031" y="25" type="curve" smooth="yes"/>
      <point x="1261" y="1027" type="line" smooth="yes"/>
      <point x="1301" y="1200"/>
      <point x="1365" y="1230"/>
      <point x="1431" y="1230" type="curve" smooth="yes"/>
      <point x="1479" y="1230"/>
      <point x="1537" y="1210"/>
      <point x="1582" y="1170" type="curve"/>
      <point x="1695" y="1392" type="line"/>
      <point x="1615" y="1443"/>
      <point x="1539" y="1470"/>
      <point x="1455" y="1470" type="curve" smooth="yes"/>
      <point x="1261" y="1470"/>
      <point x="1065" y="1362"/>
      <point x="980" y="1012" type="curve"/>
      <point x="925" y="1023"/>
      <point x="881" y="1030"/>
      <point x="832" y="1030" type="curve" smooth="yes"/>
      <point x="691" y="1030"/>
      <point x="566" y="988"/>
      <point x="462" y="918" type="curve" smooth="yes"/>
      <point x="262" y="783"/>
      <point x="142" y="546"/>
      <point x="142" y="305" type="curve" smooth="yes"/>
      <point x="142" y="105"/>
      <point x="247" y="-5"/>
      <point x="362" y="-5" type="curve" smooth="yes"/>
      <point x="505" y="-5"/>
      <point x="705" y="141"/>
      <point x="820" y="300" type="curve"/>
      <point x="742" y="-10" type="line" smooth="yes"/>
      <point x="704" y="-163"/>
      <point x="540" y="-244"/>
      <point x="434" y="-244" type="curve" smooth="yes"/>
      <point x="335" y="-244"/>
      <point x="249" y="-197"/>
      <point x="172" y="-130" type="curve"/>
      <point x="35" y="-337" type="line"/>
      <point x="132" y="-413"/>
      <point x="281" y="-465"/>
    </contour>
    <contour>
      <point x="507" y="230" type="curve" smooth="yes"/>
      <point x="460" y="230"/>
      <point x="433" y="279"/>
      <point x="433" y="377" type="curve" smooth="yes"/>
      <point x="433" y="501"/>
      <point x="478" y="641"/>
      <point x="568" y="723" type="curve" smooth="yes"/>
      <point x="615" y="766"/>
      <point x="675" y="794"/>
      <point x="747" y="794" type="curve" smooth="yes"/>
      <point x="812" y="794"/>
      <point x="871" y="778"/>
      <point x="912" y="754" type="curve"/>
      <point x="870" y="581" type="line"/>
      <point x="785" y="424"/>
      <point x="590" y="230"/>
    </contour>
  </outline>
</glyph>
<glyph name="LtnSmRamsHorn" format="2">
  <advance width="1320"/>
  <unicode hex="0264"/>
  <anchor x="625" y="-100" name="L"/>
  <anchor x="1530" y="1000" name="R"/>
  <anchor x="890" y="1100" name="U"/>
  <outline>
    <contour>
      <point x="1464" y="940" type="line"/>
      <point x="1430" y="1005"/>
      <point x="1338" y="1030"/>
      <point x="1266" y="1030" type="curve" smooth="yes"/>
      <point x="1081" y="1030"/>
      <point x="878" y="899"/>
      <point x="692" y="743" type="curve" smooth="yes"/>
      <point x="542" y="617"/>
      <point x="350" y="441"/>
      <point x="350" y="260" type="curve" smooth="yes"/>
      <point x="350" y="111"/>
      <point x="462" y="-25"/>
      <point x="633" y="-25" type="curve" smooth="yes"/>
      <point x="836" y="-25"/>
      <point x="1016" y="124"/>
      <point x="1016" y="327" type="curve" smooth="yes"/>
      <point x="1016" y="416"/>
      <point x="984" y="517"/>
      <point x="923" y="635" type="curve" smooth="yes"/>
      <point x="825" y="824"/>
      <point x="636" y="1030"/>
      <point x="426" y="1030" type="curve" smooth="yes"/>
      <point x="361" y="1030"/>
      <point x="260" y="1005"/>
      <point x="204" y="940" type="curve"/>
      <point x="220" y="723" type="line"/>
      <point x="259" y="769"/>
      <point x="314" y="812"/>
      <point x="372" y="812" type="curve" smooth="yes"/>
      <point x="467" y="812"/>
      <point x="582" y="733"/>
      <point x="688" y="554" type="curve" smooth="yes"/>
      <point x="745" y="458"/>
      <point x="769" y="391"/>
      <point x="769" y="336" type="curve" smooth="yes"/>
      <point x="769" y="255"/>
      <point x="730" y="198"/>
      <point x="669" y="198" type="curve" smooth="yes"/>
      <point x="636" y="198"/>
      <point x="598" y="229"/>
      <point x="598" y="276" type="curve" smooth="yes"/>
      <point x="598" y="385"/>
      <point x="753" y="495"/>
      <point x="816" y="554" type="curve" smooth="yes"/>
      <point x="1004" y="733"/>
      <point x="1127" y="812"/>
      <point x="1217" y="812" type="curve" smooth="yes"/>
      <point x="1280" y="812"/>
      <point x="1327" y="769"/>
      <point x="1340" y="723" type="curve"/>
    </contour>
  </outline>
</glyph>
<glyph name="LtnSmTurnedH" format="2">
  <advance width="1210"/>
  <unicode hex="0265"/>
  <anchor x="385" y="-100" name="L"/>
  <anchor x="800" y="1100" name="U"/>
  <outline>
    <contour>
      <point x="256" y="1010" type="line"/>
      <point x="261" y="981"/>
      <point x="267" y="950"/>
      <point x="267" y="920" type="curve" smooth="yes"/>
      <point x="267" y="875"/>
      <point x="262" y="840"/>
      <point x="255" y="795" type="curve" smooth="yes"/>
      <point x="225" y="610"/>
      <point x="143" y="415"/>
      <point x="143" y="280" type="curve" smooth="yes"/>
      <point x="143" y="105"/>
      <point x="213" y="-25"/>
      <point x="406" y="-25" type="curve" smooth="yes"/>
      <point x="547" y="-25"/>
      <point x="702" y="103"/>
      <point x="830" y="265" type="curve"/>
      <point x="764" y="5" type="line" smooth="yes"/>
      <point x="723" y="-155"/>
      <point x="685" y="-374"/>
      <point x="685" y="-485" type="curve"/>
      <point x="965" y="-485" type="line"/>
      <point x="965" y="-339"/>
      <point x="1007" y="-142"/>
      <point x="1043" y="5" type="curve" smooth="yes"/>
      <point x="1291" y="1010" type="line"/>
      <point x="1011" y="1010" type="line"/>
      <point x="911" y="605" type="line"/>
      <point x="816" y="409"/>
      <point x="651" y="218"/>
      <point x="546" y="218" type="curve" smooth="yes"/>
      <point x="459" y="218"/>
      <point x="443" y="283"/>
      <point x="443" y="380" type="curve" smooth="yes"/>
      <point x="443" y="476"/>
      <point x="507" y="636"/>
      <point x="533" y="797" type="curve" smooth="yes"/>
      <point x="539" y="836"/>
      <point x="543" y="876"/>
      <point x="543" y="915" type="curve" smooth="yes"/>
      <point x="543" y="947"/>
      <point x="542" y="979"/>
      <point x="536" y="1010" type="curve"/>
    </contour>
  </outline>
</glyph>
<glyph name="LtnSmHHook" format="2">
  <advance width="1273"/>
  <unicode hex="0266"/>
  <anchor x="635" y="-100" name="L"/>
  <anchor x="1010" y="1635" name="U"/>
  <outline>
    <contour>
      <point x="105" y="0" type="line"/>
      <point x="385" y="0" type="line"/>
      <point x="485" y="400" type="line"/>
      <point x="580" y="596"/>
      <point x="745" y="787"/>
      <point x="850" y="787" type="curve" smooth="yes"/>
      <point x="937" y="787"/>
      <point x="953" y="722"/>
      <point x="953" y="625" type="curve" smooth="yes"/>
      <point x="953" y="529"/>
      <point x="889" y="374"/>
      <point x="863" y="213" type="curve" smooth="yes"/>
      <point x="857" y="174"/>
      <point x="853" y="134"/>
      <point x="853" y="95" type="curve" smooth="yes"/>
      <point x="853" y="63"/>
      <point x="854" y="31"/>
      <point x="860" y="0" type="curve"/>
      <point x="1140" y="0" type="line"/>
      <point x="1135" y="29"/>
      <point x="1129" y="60"/>
      <point x="1129" y="90" type="curve" smooth="yes"/>
      <point x="1129" y="135"/>
      <point x="1134" y="170"/>
      <point x="1141" y="215" type="curve" smooth="yes"/>
      <point x="1171" y="400"/>
      <point x="1253" y="590"/>
      <point x="1253" y="725" type="curve" smooth="yes"/>
      <point x="1253" y="900"/>
      <point x="1183" y="1030"/>
      <point x="990" y="1030" type="curve" smooth="yes"/>
      <point x="849" y="1030"/>
      <point x="694" y="902"/>
      <point x="566" y="740" type="curve"/>
      <point x="660" y="1109" type="line" smooth="yes"/>
      <point x="695" y="1248"/>
      <point x="796" y="1361"/>
      <point x="958" y="1361" type="curve" smooth="yes"/>
      <point x="1043" y="1361"/>
      <point x="1113" y="1342"/>
      <point x="1175" y="1292" type="curve"/>
      <point x="1324" y="1518" type="line"/>
      <point x="1236" y="1583"/>
      <point x="1128" y="1604"/>
      <point x="1033" y="1604" type="curve" smooth="yes"/>
      <point x="671" y="1604"/>
      <point x="452" y="1397"/>
      <point x="377" y="1095" type="curve" smooth="yes"/>
    </contour>
  </outline>
</glyph>
<glyph name="LtnSmHengHook" format="2">
  <advance width="1266"/>
  <unicode hex="0267"/>
  <anchor x="525" y="-500" name="L"/>
  <anchor x="1010" y="1635" name="U"/>
  <outline>
    <contour>
      <point x="1324" y="1518" type="line"/>
      <point x="1236" y="1583"/>
      <point x="1128" y="1604"/>
      <point x="1033" y="1604" type="curve" smooth="yes"/>
      <point x="671" y="1604"/>
      <point x="452" y="1397"/>
      <point x="377" y="1095" type="curve" smooth="yes"/>
      <point x="105" y="0" type="line"/>
      <point x="385" y="0" type="line"/>
      <point x="485" y="400" type="line"/>
      <point x="580" y="596"/>
      <point x="745" y="787"/>
      <point x="850" y="787" type="curve" smooth="yes"/>
      <point x="937" y="787"/>
      <point x="953" y="722"/>
      <point x="953" y="625" type="curve" smooth="yes"/>
      <point x="953" y="540"/>
      <point x="856" y="183"/>
      <point x="833" y="92" type="curve" smooth="yes"/>
      <point x="793" y="-67"/>
      <point x="731" y="-230"/>
      <point x="591" y="-230" type="curve" smooth="yes"/>
      <point x="533" y="-230"/>
      <point x="474" y="-209"/>
      <point x="436" y="-173" type="curve"/>
      <point x="315" y="-385" type="line"/>
      <point x="349" y="-417"/>
      <point x="468" y="-465"/>
      <point x="561" y="-465" type="curve" smooth="yes"/>
      <point x="875" y="-465"/>
      <point x="1015" y="-243"/>
      <point x="1113" y="92" type="curve" smooth="yes"/>
      <point x="1147" y="207"/>
      <point x="1253" y="610"/>
      <point x="1253" y="725" type="curve" smooth="yes"/>
      <point x="1253" y="900"/>
      <point x="1183" y="1030"/>
      <point x="990" y="1030" type="curve" smooth="yes"/>
      <point x="849" y="1030"/>
      <point x="694" y="902"/>
      <point x="566" y="740" type="curve"/>
      <point x="660" y="1109" type="line" smooth="yes"/>
      <point x="695" y="1248"/>
      <point x="796" y="1361"/>
      <point x="958" y="1361" type="curve" smooth="yes"/>
      <point x="1043" y="1361"/>
      <point x="1113" y="1342"/>
      <point x="1175" y="1292" type="curve"/>
    </contour>
  </outline>
</glyph>
<glyph name="LtnSmIStrk" format="2">
  <advance width="876"/>
  <unicode hex="0268"/>
  <anchor x="400" y="0" name="H"/>
  <anchor x="475" y="-100" name="L"/>
  <anchor x="640" y="0" name="O"/>
  <anchor x="990" y="1000" name="R"/>
  <anchor x="661" y="1100" name="U"/>
  <outline>
    <contour>
      <point x="474" y="1010" type="line"/>
      <point x="474" y="902"/>
      <point x="454" y="820"/>
      <point x="385" y="547" type="curve" smooth="yes"/>
      <point x="325" y="309"/>
      <point x="303" y="191"/>
      <point x="303" y="88" type="curve" smooth="yes"/>
      <point x="303" y="57"/>
      <point x="305" y="27"/>
      <point x="310" y="0" type="curve"/>
      <point x="605" y="0" type="line"/>
      <point x="596" y="39"/>
      <point x="592" y="82"/>
      <point x="592" y="126" type="curve" smooth="yes"/>
      <point x="592" y="217"/>
      <point x="603" y="310"/>
      <point x="664" y="546" type="curve" smooth="yes"/>
      <point x="738" y="833"/>
      <point x="758" y="926"/>
      <point x="758" y="1010" type="curve"/>
    </contour>
    <contour>
      <point x="537" y="1341" type="curve" smooth="yes"/>
      <point x="537" y="1259"/>
      <point x="595" y="1197"/>
      <point x="681" y="1197" type="curve" smooth="yes"/>
      <point x="801" y="1197"/>
      <point x="892" y="1292"/>
      <point x="892" y="1403" type="curve" smooth="yes"/>
      <point x="892" y="1483"/>
      <point x="834" y="1544"/>
      <point x="747" y="1544" type="curve" smooth="yes"/>
      <point x="629" y="1544"/>
      <point x="537" y="1451"/>
    </contour>
    <contour>
      <point x="122" y="464" type="line"/>
      <point x="887" y="464" type="line"/>
      <point x="938" y="667" type="line"/>
      <point x="173" y="667" type="line"/>
    </contour>
  </outline>
</glyph>
<glyph name="LtnSmIota" format="2">
  <advance width="811"/>
  <unicode hex="0269"/>
  <anchor x="300" y="0" name="H"/>
  <anchor x="300" y="-100" name="L"/>
  <anchor x="725" y="0" name="O"/>
  <anchor x="775" y="1000" name="R"/>
  <anchor x="485" y="1100" name="U"/>
  <outline>
    <contour>
      <point x="306" y="1010" type="line"/>
      <point x="306" y="877"/>
      <point x="255" y="698"/>
      <point x="217" y="547" type="curve" smooth="yes"/>
      <point x="180" y="400" type="line" smooth="yes"/>
      <point x="169" y="356"/>
      <point x="163" y="313"/>
      <point x="163" y="274" type="curve" smooth="yes"/>
      <point x="163" y="98"/>
      <point x="273" y="-25"/>
      <point x="480" y="-25" type="curve" smooth="yes"/>
      <point x="578" y="-25"/>
      <point x="685" y="9"/>
      <point x="761" y="59" type="curve"/>
      <point x="796" y="324" type="line"/>
      <point x="711" y="248"/>
      <point x="640" y="228"/>
      <point x="577" y="228" type="curve" smooth="yes"/>
      <point x="497" y="228"/>
      <point x="457" y="279"/>
      <point x="457" y="354" type="curve" smooth="yes"/>
      <point x="457" y="372"/>
      <point x="459" y="391"/>
      <point x="464" y="412" type="curve" smooth="yes"/>
      <point x="496" y="546" type="line" smooth="yes"/>
      <point x="537" y="719"/>
      <point x="586" y="875"/>
      <point x="590" y="1010" type="curve"/>
    </contour>
  </outline>
</glyph>
<glyph name="LtnSmNRetrHook" format="2">
  <advance width="1281"/>
  <unicode hex="0273"/>
  <anchor x="505" y="-100" name="L"/>
  <anchor x="835" y="1100" name="U"/>
  <outline>
    <contour>
      <point x="1068" y="-470" type="curve" smooth="yes"/>
      <point x="1170" y="-470"/>
      <point x="1264" y="-430"/>
      <point x="1308" y="-401" type="curve"/>
      <point x="1295" y="-184" type="line"/>
      <point x="1261" y="-206"/>
      <point x="1206" y="-229"/>
      <point x="1164" y="-229" type="curve" smooth="yes"/>
      <point x="1103" y="-229"/>
      <point x="1068" y="-182"/>
      <point x="1068" y="-113" type="curve" smooth="yes"/>
      <point x="1068" y="-12"/>
      <point x="1258" y="608"/>
      <point x="1258" y="725" type="curve" smooth="yes"/>
      <point x="1258" y="890"/>
      <point x="1188" y="1030"/>
      <point x="995" y="1030" type="curve" smooth="yes"/>
      <point x="844" y="1030"/>
      <point x="685" y="903"/>
      <point x="546" y="715" type="curve"/>
      <point x="555" y="771"/>
      <point x="569" y="875"/>
      <point x="569" y="933" type="curve" smooth="yes"/>
      <point x="569" y="962"/>
      <point x="568" y="988"/>
      <point x="565" y="1010" type="curve"/>
      <point x="290" y="1010" type="line"/>
      <point x="290" y="962" type="line" smooth="yes"/>
      <point x="290" y="859"/>
      <point x="280" y="685"/>
      <point x="261" y="609" type="curve" smooth="yes"/>
      <point x="110" y="0" type="line"/>
      <point x="388" y="0" type="line"/>
      <point x="490" y="405" type="line"/>
      <point x="569" y="569"/>
      <point x="740" y="787"/>
      <point x="835" y="787" type="curve" smooth="yes"/>
      <point x="922" y="787"/>
      <point x="958" y="732"/>
      <point x="958" y="625" type="curve" smooth="yes"/>
      <point x="958" y="440"/>
      <point x="782" y="2"/>
      <point x="782" y="-191" type="curve" smooth="yes"/>
      <point x="782" y="-335"/>
      <point x="909" y="-470"/>
    </contour>
  </outline>
</glyph>
<glyph name="LtnSmCapN" format="2">
  <advance width="1280"/>
  <unicode hex="0274"/>
  <anchor x="575" y="-100" name="L"/>
  <anchor x="875" y="1100" name="U"/>
  <outline>
    <contour>
      <point x="378" y="881" type="line"/>
      <point x="854" y="0" type="line"/>
      <point x="1026" y="182" type="line"/>
      <point x="587" y="1010" type="line"/>
    </contour>
    <contour>
      <point x="854" y="0" type="line"/>
      <point x="1103" y="0" type="line"/>
      <point x="1279" y="709" type="line" smooth="yes"/>
      <point x="1313" y="845"/>
      <point x="1341" y="954"/>
      <point x="1366" y="1010" type="curve"/>
      <point x="1105" y="1010" type="line"/>
    </contour>
    <contour>
      <point x="587" y="1010" type="line"/>
      <point x="326" y="1010" type="line"/>
      <point x="324" y="954"/>
      <point x="297" y="845"/>
      <point x="263" y="709" type="curve" smooth="yes"/>
      <point x="162" y="301" type="line" smooth="yes"/>
      <point x="128" y="164"/>
      <point x="99" y="55"/>
      <point x="75" y="0" type="curve"/>
      <point x="336" y="0" type="line"/>
    </contour>
  </outline>
</glyph>
<glyph name="LtnSmBarredO" format="2">
  <advance width="1139"/>
  <unicode hex="0275"/>
  <anchor x="482" y="-100" name="L"/>
  <anchor x="1327" y="1000" name="R"/>
  <anchor x="782" y="1100" name="U"/>
  <outline>
    <contour>
      <point x="140" y="370" type="curve" smooth="yes"/>
      <point x="140" y="128"/>
      <point x="289" y="-25"/>
      <point x="520" y="-25" type="curve" smooth="yes"/>
      <point x="906" y="-25"/>
      <point x="1144" y="295"/>
      <point x="1144" y="641" type="curve" smooth="yes"/>
      <point x="1144" y="880"/>
      <point x="1003" y="1030"/>
      <point x="773" y="1030" type="curve" smooth="yes"/>
      <point x="390" y="1030"/>
      <point x="140" y="718"/>
    </contour>
    <contour>
      <point x="866" y="417" type="line"/>
      <point x="819" y="293"/>
      <point x="718" y="198"/>
      <point x="579" y="198" type="curve" smooth="yes"/>
      <point x="466" y="198"/>
      <point x="393" y="278"/>
      <point x="393" y="396" type="curve" smooth="yes"/>
      <point x="393" y="403"/>
      <point x="393" y="410"/>
      <point x="394" y="417" type="curve"/>
    </contour>
    <contour>
      <point x="426" y="595" type="line"/>
      <point x="475" y="716"/>
      <point x="574" y="807"/>
      <point x="711" y="807" type="curve" smooth="yes"/>
      <point x="823" y="807"/>
      <point x="898" y="727"/>
      <point x="898" y="609" type="curve" smooth="yes"/>
      <point x="898" y="604"/>
      <point x="898" y="599"/>
      <point x="897" y="595" type="curve"/>
    </contour>
  </outline>
</glyph>
<glyph name="LtnSmCapOe" format="2">
  <advance width="1672"/>
  <unicode hex="0276"/>
  <anchor x="772" y="-100" name="L"/>
  <anchor x="1806" y="1000" name="R"/>
  <anchor x="1072" y="1100" name="U"/>
  <outline>
    <contour>
      <point x="1507" y="0" type="line"/>
      <point x="1558" y="208" type="line"/>
      <point x="1492" y="198"/>
      <point x="1379" y="198"/>
      <point x="1221" y="198" type="curve" smooth="yes"/>
      <point x="1090" y="198" type="line"/>
      <point x="1148" y="431" type="line"/>
      <point x="1527" y="431" type="line"/>
      <point x="1574" y="619" type="line"/>
      <point x="1195" y="619" type="line"/>
      <point x="1243" y="812" type="line"/>
      <point x="1684" y="812" type="line"/>
      <point x="1733" y="1010" type="line"/>
      <point x="1093" y="1010" type="line"/>
      <point x="1055" y="852" type="line"/>
      <point x="1018" y="940"/>
      <point x="895" y="1030"/>
      <point x="744" y="1030" type="curve" smooth="yes"/>
      <point x="398" y="1030"/>
      <point x="146" y="729"/>
      <point x="146" y="390" type="curve" smooth="yes"/>
      <point x="146" y="143"/>
      <point x="313" y="-20"/>
      <point x="540" y="-20" type="curve" smooth="yes"/>
      <point x="663" y="-20"/>
      <point x="817" y="56"/>
      <point x="874" y="130" type="curve"/>
      <point x="842" y="0" type="line"/>
    </contour>
    <contour>
      <point x="592" y="198" type="curve" smooth="yes"/>
      <point x="472" y="198"/>
      <point x="405" y="294"/>
      <point x="405" y="428" type="curve" smooth="yes"/>
      <point x="405" y="623"/>
      <point x="518" y="812"/>
      <point x="725" y="812" type="curve" smooth="yes"/>
      <point x="840" y="812"/>
      <point x="907" y="727"/>
      <point x="907" y="592" type="curve" smooth="yes"/>
      <point x="907" y="394"/>
      <point x="805" y="198"/>
    </contour>
  </outline>
</glyph>
<glyph name="LtnSmTurnedR" format="2">
  <advance width="981"/>
  <unicode hex="0279"/>
  <anchor x="405" y="-100" name="L"/>
  <anchor x="705" y="1100" name="U"/>
  <outline>
    <contour>
      <point x="755" y="1010" type="line"/>
      <point x="651" y="590" type="line"/>
      <point x="590" y="453"/>
      <point x="418" y="237"/>
      <point x="335" y="237" type="curve" smooth="yes"/>
      <point x="281" y="237"/>
      <point x="258" y="273"/>
      <point x="258" y="332" type="curve" smooth="yes"/>
      <point x="258" y="348"/>
      <point x="260" y="366"/>
      <point x="263" y="386" type="curve"/>
      <point x="31" y="352" type="line"/>
      <point x="19" y="304"/>
      <point x="9" y="258"/>
      <point x="9" y="216" type="curve" smooth="yes"/>
      <point x="9" y="79"/>
      <point x="61" y="-20"/>
      <point x="182" y="-20" type="curve" smooth="yes"/>
      <point x="317" y="-20"/>
      <point x="475" y="127"/>
      <point x="601" y="294" type="curve"/>
      <point x="590" y="223"/>
      <point x="575" y="50"/>
      <point x="575" y="0" type="curve"/>
      <point x="850" y="0" type="line"/>
      <point x="850" y="48" type="line" smooth="yes"/>
      <point x="850" y="116"/>
      <point x="864" y="321"/>
      <point x="884" y="401" type="curve" smooth="yes"/>
      <point x="1035" y="1010" type="line"/>
    </contour>
  </outline>
</glyph>
<glyph name="LtnSmTurnedRHook" format="2">
  <advance width="985"/>
  <unicode hex="027B"/>
  <anchor x="325" y="-500" name="L"/>
  <anchor x="905" y="1100" name="U"/>
  <outline>
    <contour>
      <point x="797" y="-465" type="curve" smooth="yes"/>
      <point x="901" y="-465"/>
      <point x="1013" y="-431"/>
      <point x="1098" y="-381" type="curve"/>
      <point x="1066" y="-160" type="line"/>
      <point x="1004" y="-198"/>
      <point x="952" y="-220"/>
      <point x="884" y="-220" type="curve" smooth="yes"/>
      <point x="810" y="-220"/>
      <point x="764" y="-170"/>
      <point x="764" y="-74" type="curve" smooth="yes"/>
      <point x="764" y="-43"/>
      <point x="769" y="-8"/>
      <point x="779" y="32" type="curve" smooth="yes"/>
      <point x="1021" y="1010" type="line"/>
      <point x="741" y="1010" type="line"/>
      <point x="637" y="590" type="line"/>
      <point x="576" y="453"/>
      <point x="404" y="237"/>
      <point x="321" y="237" type="curve" smooth="yes"/>
      <point x="267" y="237"/>
      <point x="244" y="273"/>
      <point x="244" y="332" type="curve" smooth="yes"/>
      <point x="244" y="348"/>
      <point x="246" y="366"/>
      <point x="249" y="386" type="curve"/>
      <point x="17" y="352" type="line"/>
      <point x="8" y="304"/>
      <point x="-5" y="258"/>
      <point x="-5" y="216" type="curve" smooth="yes"/>
      <point x="-5" y="79"/>
      <point x="47" y="-20"/>
      <point x="168" y="-20" type="curve" smooth="yes"/>
      <point x="303" y="-20"/>
      <point x="437" y="103"/>
      <point x="553" y="250" type="curve"/>
      <point x="502" y="43" type="line" smooth="yes"/>
      <point x="486" y="-21"/>
      <point x="479" y="-79"/>
      <point x="479" y="-131" type="curve" smooth="yes"/>
      <point x="479" y="-350"/>
      <point x="609" y="-465"/>
    </contour>
  </outline>
</glyph>
<glyph name="LtnSmRHookTail" format="2">
  <advance width="965"/>
  <unicode hex="027D"/>
  <anchor x="375" y="-500" name="L"/>
  <anchor x="735" y="1100" name="U"/>
  <outline>
    <contour>
      <point x="659" y="-160" type="line"/>
      <point x="597" y="-198"/>
      <point x="545" y="-220"/>
      <point x="477" y="-220" type="curve" smooth="yes"/>
      <point x="403" y="-220"/>
      <point x="357" y="-170"/>
      <point x="357" y="-74" type="curve" smooth="yes"/>
      <point x="357" y="-43"/>
      <point x="362" y="-8"/>
      <point x="372" y="32" type="curve" smooth="yes"/>
      <point x="467" y="420" type="line"/>
      <point x="528" y="557"/>
      <point x="700" y="773"/>
      <point x="783" y="773" type="curve" smooth="yes"/>
      <point x="837" y="773"/>
      <point x="860" y="737"/>
      <point x="860" y="678" type="curve" smooth="yes"/>
      <point x="860" y="662"/>
      <point x="858" y="644"/>
      <point x="855" y="624" type="curve"/>
      <point x="1087" y="658" type="line"/>
      <point x="1096" y="706"/>
      <point x="1109" y="752"/>
      <point x="1109" y="794" type="curve" smooth="yes"/>
      <point x="1109" y="931"/>
      <point x="1057" y="1030"/>
      <point x="936" y="1030" type="curve" smooth="yes"/>
      <point x="801" y="1030"/>
      <point x="643" y="883"/>
      <point x="517" y="716" type="curve"/>
      <point x="528" y="787"/>
      <point x="543" y="960"/>
      <point x="543" y="1010" type="curve"/>
      <point x="268" y="1010" type="line"/>
      <point x="268" y="962" type="line" smooth="yes"/>
      <point x="268" y="894"/>
      <point x="254" y="689"/>
      <point x="234" y="609" type="curve" smooth="yes"/>
      <point x="95" y="43" type="line" smooth="yes"/>
      <point x="79" y="-21"/>
      <point x="72" y="-79"/>
      <point x="72" y="-131" type="curve" smooth="yes"/>
      <point x="72" y="-350"/>
      <point x="202" y="-465"/>
      <point x="390" y="-465" type="curve" smooth="yes"/>
      <point x="494" y="-465"/>
      <point x="606" y="-431"/>
      <point x="691" y="-381" type="curve"/>
    </contour>
  </outline>
</glyph>
<glyph name="LtnSmRFishhook" format="2">
  <advance width="865"/>
  <unicode hex="027E"/>
  <anchor x="220" y="-100" name="L"/>
  <anchor x="760" y="1100" name="U"/>
  <outline>
    <contour>
      <point x="85" y="0" type="line"/>
      <point x="380" y="0" type="line"/>
      <point x="404" y="154"/>
      <point x="435" y="290"/>
      <point x="474" y="441" type="curve" smooth="yes"/>
      <point x="503" y="554" type="line" smooth="yes"/>
      <point x="544" y="712"/>
      <point x="610" y="792"/>
      <point x="712" y="792" type="curve" smooth="yes"/>
      <point x="792" y="792"/>
      <point x="853" y="759"/>
      <point x="895" y="703" type="curve"/>
      <point x="1029" y="940" type="line"/>
      <point x="976" y="995"/>
      <point x="850" y="1030"/>
      <point x="731" y="1030" type="curve" smooth="yes"/>
      <point x="521" y="1030"/>
      <point x="309" y="899"/>
      <point x="249" y="658" type="curve" smooth="yes"/>
    </contour>
  </outline>
</glyph>
<glyph name="LtnSmCapR" format="2">
  <advance width="1042"/>
  <unicode hex="0280"/>
  <anchor x="475" y="-100" name="L"/>
  <anchor x="752" y="1100" name="U"/>
  <outline>
    <contour>
      <point x="426" y="381" type="line"/>
      <point x="567" y="381" type="line" smooth="yes"/>
      <point x="818" y="381"/>
      <point x="1084" y="507"/>
      <point x="1084" y="751" type="curve" smooth="yes"/>
      <point x="1084" y="941"/>
      <point x="890" y="1020"/>
      <point x="652" y="1020" type="curve" smooth="yes"/>
      <point x="510" y="1020"/>
      <point x="375" y="1014"/>
      <point x="313" y="1010" type="curve"/>
      <point x="137" y="301" type="line" smooth="yes"/>
      <point x="103" y="164"/>
      <point x="74" y="55"/>
      <point x="50" y="0" type="curve"/>
      <point x="332" y="0" type="line"/>
    </contour>
    <contour>
      <point x="537" y="823" type="line"/>
      <point x="556" y="825"/>
      <point x="577" y="827"/>
      <point x="606" y="827" type="curve" smooth="yes"/>
      <point x="715" y="827"/>
      <point x="798" y="802"/>
      <point x="798" y="716" type="curve" smooth="yes"/>
      <point x="798" y="597"/>
      <point x="676" y="569"/>
      <point x="561" y="569" type="curve" smooth="yes"/>
      <point x="473" y="569" type="line"/>
    </contour>
    <contour>
      <point x="687" y="0" type="line"/>
      <point x="987" y="0" type="line"/>
      <point x="723" y="505" type="line"/>
      <point x="502" y="460" type="line"/>
    </contour>
  </outline>
</glyph>
